<svg width="342" height="360" viewBox="0 0 342 360" fill="none" xmlns="http://www.w3.org/2000/svg">
<path d="M42.0918 23.2258C42.0918 10.3985 52.4903 0 65.3176 0H221.582C225.61 0 229.458 1.67424 232.204 4.6222L264.189 38.961L296.585 73.7414C299.087 76.4282 300.479 79.9636 300.479 83.6354V336.774C300.479 349.601 290.08 360 277.253 360H65.3176C52.4903 360 42.0918 349.601 42.0918 336.774V23.2258Z" fill="#ECF0F3"/>
<path d="M232.973 6.10156L236.602 9.7306L298.296 75.7798L254.984 75.309C242.065 75.1686 231.743 64.5126 232.015 51.5957L232.973 6.10156Z" fill="#839E2E"/>
<g filter="url(#filter0_d_1860_17546)">
<path d="M5.80664 226.445H315C326.224 226.445 335.323 235.544 335.323 246.768V322.252C335.323 333.476 326.224 342.574 315 342.574H26.1292C14.9053 342.574 5.80664 333.476 5.80664 322.252V226.445Z" fill="#A4C639"/>
<path d="M5.80664 226.445H315C326.224 226.445 335.323 235.544 335.323 246.768V322.252C335.323 333.476 326.224 342.574 315 342.574H26.1292C14.9053 342.574 5.80664 333.476 5.80664 322.252V226.445Z" fill="black" fill-opacity="0.2"/>
</g>
<path d="M5.80664 208.29C5.80664 198.268 13.9305 190.145 23.9518 190.145H42.097V226.435H5.80664V208.29Z" fill="#A4C639"/>
<path d="M5.80664 208.29C5.80664 198.268 13.9305 190.145 23.9518 190.145H42.097V226.435H5.80664V208.29Z" fill="black" fill-opacity="0.2"/>
<g filter="url(#filter1_i_1860_17546)">
<path d="M5.80664 208.29C5.80664 198.268 13.9305 190.145 23.9518 190.145H42.097V226.435H23.9518C13.9305 226.435 5.80664 218.311 5.80664 208.29Z" fill="black" fill-opacity="0.25"/>
</g>
<g clip-path="url(#clip0_1860_17546)">
<path d="M122.102 101.644C117.466 101.642 113.708 105.408 113.707 110.041L113.713 145.199C113.712 146.302 113.929 147.395 114.351 148.414C114.773 149.433 115.392 150.359 116.171 151.139C116.951 151.919 117.877 152.538 118.897 152.96C119.916 153.382 121.008 153.599 122.111 153.599C123.214 153.6 124.306 153.383 125.326 152.962C126.345 152.54 127.271 151.921 128.051 151.141C128.83 150.361 129.448 149.435 129.87 148.415C130.291 147.396 130.507 146.303 130.505 145.2V110.037C130.502 107.81 129.616 105.675 128.04 104.101C126.465 102.527 124.329 101.644 122.102 101.644ZM189.81 70.0708L195.67 59.3699C195.819 59.0984 195.855 58.7789 195.769 58.4812C195.683 58.1836 195.482 57.9322 195.211 57.7822C194.94 57.6347 194.621 57.6009 194.325 57.6882C194.028 57.7754 193.779 57.9767 193.631 58.2478L187.711 69.0608C182.731 66.8439 177.156 65.6017 171.259 65.6074C165.377 65.6017 159.805 66.8405 154.845 69.0448L148.919 58.2592C148.846 58.1246 148.748 58.0056 148.63 57.9093C148.511 57.8129 148.374 57.7411 148.228 57.6979C148.081 57.6547 147.927 57.641 147.775 57.6576C147.623 57.6743 147.476 57.7209 147.343 57.7948C147.208 57.867 147.088 57.9654 146.992 58.0842C146.895 58.2031 146.823 58.34 146.78 58.487C146.737 58.634 146.724 58.7881 146.741 58.9403C146.758 59.0925 146.806 59.2397 146.88 59.3733L152.743 70.0674C141.224 76.0075 133.441 87.3204 133.448 100.309L209.078 100.3C209.082 87.3158 201.313 76.0258 189.81 70.0708ZM154.057 86.6078C153.216 86.6073 152.41 86.2727 151.815 85.6777C151.221 85.0826 150.887 84.2758 150.887 83.4347C150.888 82.5936 151.222 81.7871 151.818 81.1927C152.413 80.5982 153.219 80.2645 154.061 80.265C154.902 80.2665 155.708 80.6013 156.303 81.196C156.898 81.7907 157.233 82.5969 157.235 83.4381C157.234 84.2798 156.898 85.0865 156.302 85.6809C155.706 86.2753 154.899 86.6087 154.057 86.6078ZM188.496 86.6009C188.079 86.6012 187.667 86.5194 187.282 86.3603C186.897 86.2011 186.548 85.9676 186.253 85.6733C185.959 85.3789 185.725 85.0294 185.566 84.6447C185.407 84.26 185.325 83.8476 185.325 83.4312C185.329 82.5908 185.665 81.7861 186.259 81.1913C186.852 80.5965 187.656 80.2596 188.497 80.2536C189.336 80.2605 190.14 80.598 190.732 81.1931C191.325 81.7881 191.659 82.5927 191.662 83.4324C191.662 83.8484 191.581 84.2604 191.422 84.6449C191.263 85.0294 191.03 85.3788 190.736 85.6731C190.442 85.9673 190.092 86.2008 189.708 86.36C189.324 86.5192 188.912 86.6011 188.496 86.6009ZM133.757 103.231L133.769 157.719C133.768 158.896 133.998 160.061 134.448 161.149C134.898 162.237 135.557 163.225 136.39 164.057C137.222 164.889 138.21 165.549 139.298 165.998C140.386 166.448 141.551 166.678 142.728 166.676L148.828 166.679L148.835 185.283C148.834 189.915 152.6 193.681 157.226 193.681C161.865 193.681 165.624 189.912 165.625 185.277L165.621 166.678L176.955 166.674L176.96 185.277C176.96 189.906 180.726 193.68 185.353 193.671C189.993 193.674 193.754 189.905 193.753 185.27L193.747 166.672L199.869 166.667C201.046 166.667 202.212 166.436 203.299 165.986C204.386 165.535 205.374 164.875 206.207 164.043C207.039 163.211 207.699 162.223 208.15 161.136C208.6 160.049 208.832 158.883 208.833 157.706L208.822 103.218L133.757 103.231ZM228.851 110.029C228.851 108.926 228.634 107.834 228.212 106.816C227.79 105.797 227.171 104.872 226.392 104.092C225.612 103.312 224.686 102.694 223.667 102.272C222.649 101.851 221.557 101.634 220.454 101.634C215.818 101.629 212.062 105.394 212.062 110.032L212.069 145.192C212.068 146.295 212.284 147.387 212.706 148.406C213.128 149.425 213.746 150.35 214.526 151.13C215.305 151.91 216.231 152.528 217.25 152.95C218.269 153.371 219.361 153.588 220.463 153.587C221.566 153.587 222.658 153.37 223.677 152.948C224.696 152.526 225.622 151.907 226.401 151.127C227.181 150.347 227.799 149.421 228.22 148.402C228.642 147.383 228.858 146.291 228.857 145.188L228.851 110.029Z" fill="#A4C439"/>
</g>
<path d="M100.576 303.684C100.576 303.253 100.724 302.924 101.018 302.697C101.291 302.47 101.62 302.3 102.005 302.187C102.391 302.051 102.776 301.949 103.162 301.881C103.57 301.79 103.899 301.665 104.149 301.506C104.217 301.461 104.307 301.393 104.421 301.302C104.534 301.189 104.659 301.075 104.795 300.962C104.931 300.826 105.067 300.712 105.203 300.622C105.339 300.508 105.441 300.429 105.509 300.384L107.142 299.567C107.347 299.476 107.596 299.215 107.891 298.785C108.208 298.354 108.515 297.877 108.81 297.356C109.127 296.811 109.422 296.29 109.694 295.791C109.966 295.269 110.159 294.883 110.272 294.634C110.318 294.588 110.352 294.464 110.375 294.26C110.397 294.055 110.409 293.897 110.409 293.783C110.431 293.693 110.477 293.579 110.545 293.443C110.613 293.284 110.647 293.182 110.647 293.137C110.692 293.091 110.771 292.989 110.885 292.831C110.998 292.649 111.123 292.468 111.259 292.286C111.395 292.105 111.509 291.935 111.599 291.776C111.713 291.595 111.781 291.481 111.803 291.436C111.826 291.413 111.849 291.334 111.872 291.198C111.894 291.039 111.917 290.88 111.94 290.721C111.962 290.54 111.985 290.37 112.008 290.211C112.03 290.052 112.042 289.95 112.042 289.905C112.178 289.179 112.371 288.453 112.62 287.727C112.892 286.979 113.153 286.242 113.403 285.516C113.675 284.79 113.913 284.053 114.117 283.304C114.321 282.556 114.457 281.796 114.525 281.025L116.873 274.561C117.19 273.653 117.372 272.701 117.417 271.703C117.485 270.682 117.655 269.684 117.927 268.709C118.313 267.824 118.778 266.962 119.322 266.123C119.867 265.261 120.366 264.343 120.819 263.367C120.978 262.868 121.069 262.347 121.092 261.802C121.137 261.235 121.318 260.714 121.636 260.237C121.749 260.079 122.033 259.772 122.486 259.319C122.94 258.865 123.428 258.4 123.949 257.924C124.471 257.448 124.981 257.028 125.48 256.665C125.979 256.302 126.342 256.121 126.569 256.121C127 256.121 127.295 256.279 127.454 256.597C127.567 256.688 127.681 256.835 127.794 257.039C127.93 257.243 127.998 257.368 127.998 257.414C128.111 257.822 128.27 258.23 128.474 258.638C128.678 259.047 128.849 259.489 128.985 259.965L128.951 260.714C128.951 261.031 129.019 261.371 129.155 261.734C129.314 262.075 129.438 262.358 129.529 262.585C129.779 263.379 129.994 264.15 130.175 264.898C130.38 265.647 130.538 266.395 130.652 267.144C130.743 267.598 130.89 268.017 131.094 268.403C131.298 268.766 131.4 269.185 131.4 269.662L131.366 270.206C131.775 270.569 132.081 270.898 132.285 271.193C132.489 271.487 132.648 271.794 132.761 272.111C132.897 272.406 133.022 272.735 133.135 273.098C133.271 273.438 133.476 273.858 133.748 274.357C133.975 274.81 134.145 275.241 134.258 275.649C134.372 276.035 134.462 276.432 134.53 276.84C134.621 277.248 134.712 277.679 134.802 278.133C134.893 278.587 135.041 279.074 135.245 279.596C135.267 279.709 135.335 279.902 135.449 280.174C135.585 280.447 135.653 280.628 135.653 280.719V282.012C135.653 282.057 135.698 282.159 135.789 282.318C135.88 282.477 135.982 282.658 136.095 282.862C136.209 283.044 136.311 283.225 136.402 283.407C136.492 283.588 136.538 283.713 136.538 283.781C136.538 283.803 136.538 283.871 136.538 283.985C136.56 284.076 136.572 284.189 136.572 284.325C136.594 284.439 136.617 284.552 136.64 284.665C136.662 284.779 136.685 284.835 136.708 284.835L137.66 285.788C137.819 285.924 137.921 286.083 137.967 286.264C138.012 286.446 138.046 286.65 138.069 286.877C138.091 287.081 138.114 287.296 138.137 287.523C138.159 287.727 138.227 287.931 138.341 288.136C138.613 288.771 138.851 289.428 139.055 290.109C139.259 290.767 139.532 291.424 139.872 292.082C140.076 292.558 140.246 293.069 140.382 293.613C140.518 294.135 140.586 294.645 140.586 295.144V295.552C140.881 296.074 141.21 296.539 141.573 296.947C141.936 297.356 142.231 297.753 142.457 298.138C142.662 298.637 142.877 299.034 143.104 299.329C143.331 299.624 143.546 299.862 143.75 300.043C143.977 300.225 144.193 300.372 144.397 300.486C144.601 300.576 144.805 300.678 145.009 300.792C145.508 301.087 146.018 301.302 146.54 301.438C147.084 301.574 147.765 301.71 148.581 301.847L149.534 302.085C149.829 302.266 150.01 302.538 150.078 302.901C150.146 303.241 150.181 303.536 150.181 303.786C150.181 304.262 149.988 304.614 149.602 304.84C149.239 305.045 148.865 305.147 148.479 305.147L145.588 304.977H144.873C144.76 304.886 144.601 304.818 144.397 304.772C144.215 304.704 144.022 304.659 143.818 304.636C143.614 304.614 143.421 304.602 143.24 304.602C143.081 304.602 142.979 304.591 142.934 304.568H138.885C138.704 304.319 138.534 304.183 138.375 304.16C138.239 304.115 138.035 304.092 137.762 304.092C136.832 304.092 135.857 304.217 134.837 304.466C133.839 304.693 132.772 304.806 131.638 304.806H130.89C130.527 304.806 130.175 304.795 129.835 304.772C129.518 304.75 129.234 304.659 128.985 304.5C128.871 304.432 128.815 304.239 128.815 303.922L128.883 303.378C128.928 303.264 128.951 303.162 128.951 303.071C128.951 302.981 128.951 302.913 128.951 302.867C128.951 302.708 129.019 302.606 129.155 302.561C129.563 302.38 130.028 302.243 130.55 302.153C131.071 302.062 131.57 301.96 132.047 301.847C132.523 301.733 132.92 301.574 133.237 301.37C133.578 301.166 133.748 300.86 133.748 300.452V300.384C133.725 299.862 133.68 299.272 133.612 298.614C133.566 297.934 133.544 297.265 133.544 296.607C133.544 296.38 133.464 296.142 133.306 295.893C133.169 295.643 133.09 295.416 133.067 295.212V293.137C133.022 292.842 132.875 292.377 132.625 291.742C132.398 291.084 132.103 290.438 131.74 289.803C131.4 289.168 131.026 288.612 130.618 288.136C130.209 287.637 129.801 287.387 129.393 287.387C128.803 287.387 128.191 287.512 127.556 287.761C126.943 288.011 126.32 288.136 125.685 288.136C125.14 288.136 124.619 288.034 124.12 287.829C123.643 287.603 123.076 287.489 122.418 287.489H120.241C119.765 287.489 119.277 287.523 118.778 287.591C118.302 287.637 117.859 287.784 117.451 288.034C116.748 288.442 116.102 288.997 115.512 289.701C114.922 290.381 114.491 291.232 114.219 292.252L113.981 294.634C113.981 294.679 113.958 294.793 113.913 294.974C113.868 295.155 113.822 295.348 113.777 295.552C113.731 295.757 113.686 295.949 113.641 296.131C113.595 296.29 113.573 296.392 113.573 296.437C113.573 296.482 113.561 296.55 113.539 296.641C113.516 296.732 113.505 296.823 113.505 296.913C113.505 297.322 113.573 297.616 113.709 297.798C113.845 297.979 114.015 298.252 114.219 298.614C114.332 298.819 114.48 299.091 114.661 299.431C114.865 299.771 115.07 300.066 115.274 300.316C115.591 300.588 116.011 300.803 116.533 300.962C117.077 301.121 117.61 301.291 118.132 301.472C118.653 301.654 119.096 301.881 119.458 302.153C119.844 302.425 120.037 302.799 120.037 303.275V303.514C119.923 304.398 119.595 304.977 119.05 305.249C118.506 305.544 117.803 305.691 116.941 305.691L113.981 304.909H112.756C112.348 304.909 111.928 304.92 111.497 304.943C111.066 304.965 110.647 304.999 110.238 305.045C109.853 305.09 109.501 305.147 109.184 305.215C108.889 305.305 108.662 305.408 108.503 305.521C107.936 305.521 107.369 305.532 106.802 305.555C106.258 305.578 105.759 305.6 105.305 305.623C104.874 305.646 104.511 305.657 104.217 305.657C103.944 305.68 103.786 305.691 103.74 305.691C103.445 305.691 103.116 305.646 102.754 305.555C102.391 305.464 102.039 305.328 101.699 305.147C101.381 304.965 101.121 304.761 100.916 304.534C100.69 304.285 100.576 304.001 100.576 303.684ZM118.098 280.617C118.075 280.866 118.052 281.116 118.03 281.365C118.007 281.592 117.996 281.807 117.996 282.012C117.996 282.647 118.143 283.078 118.438 283.304C118.733 283.509 119.186 283.611 119.799 283.611C119.867 283.611 119.923 283.588 119.969 283.543C119.991 283.52 120.014 283.486 120.037 283.441C120.082 283.441 120.23 283.418 120.479 283.372C120.751 283.327 120.944 283.293 121.058 283.27C121.262 283.293 121.454 283.327 121.636 283.372C121.84 283.418 121.999 283.441 122.112 283.441H127.454C128.996 283.441 129.767 282.737 129.767 281.331C129.767 281.127 129.688 280.866 129.529 280.549C129.393 280.231 129.223 279.891 129.019 279.528C128.815 279.142 128.61 278.745 128.406 278.337C128.225 277.929 128.089 277.532 127.998 277.146C127.998 276.988 127.941 276.852 127.828 276.738L126.229 274.357C126.229 274.243 126.184 274.13 126.093 274.016C126.025 273.903 125.968 273.79 125.923 273.676L125.753 272.962C125.639 272.485 125.503 271.907 125.344 271.227C125.186 270.546 124.993 269.9 124.766 269.287C124.539 268.675 124.278 268.153 123.983 267.722C123.711 267.291 123.405 267.076 123.065 267.076C122.861 267.076 122.6 267.371 122.282 267.96C121.965 268.55 121.613 269.299 121.228 270.206C120.865 271.113 120.49 272.122 120.105 273.234C119.742 274.323 119.413 275.366 119.118 276.364C118.823 277.362 118.574 278.258 118.37 279.052C118.188 279.823 118.098 280.345 118.098 280.617ZM151.133 302.867C151.133 302.731 151.178 302.595 151.269 302.459C151.36 302.3 151.462 302.153 151.575 302.017C151.711 301.881 151.836 301.756 151.95 301.642C152.086 301.529 152.188 301.438 152.256 301.37H153.14C153.639 301.37 154.127 301.359 154.603 301.336C155.102 301.291 155.567 301.211 155.998 301.098C156.452 300.985 156.872 300.792 157.257 300.52C157.665 300.247 158.04 299.873 158.38 299.397L159.435 298.104C159.548 297.991 159.616 297.889 159.639 297.798C159.661 297.684 159.673 297.503 159.673 297.254L159.435 292.797C159.435 292.071 159.548 291.379 159.775 290.721C160.024 290.064 160.149 289.417 160.149 288.782C160.149 288.079 160.024 287.353 159.775 286.605C159.548 285.856 159.435 285.096 159.435 284.325C159.435 284.144 159.457 283.996 159.503 283.883C159.571 283.747 159.627 283.622 159.673 283.509C159.741 283.372 159.797 283.236 159.843 283.1C159.911 282.964 159.945 282.805 159.945 282.624L159.605 280.208L159.945 276.976V275.649L159.435 274.731C159.389 274.164 159.332 273.619 159.264 273.098C159.219 272.644 159.174 272.191 159.128 271.737C159.083 271.283 159.049 270.909 159.026 270.614L159.503 269.015C159.503 268.698 159.435 268.176 159.298 267.45C159.162 266.724 158.981 265.976 158.754 265.205C158.527 264.433 158.278 263.73 158.006 263.095C157.756 262.46 157.507 262.075 157.257 261.939C156.872 261.825 156.339 261.723 155.658 261.632C154.978 261.519 154.297 261.36 153.617 261.156C152.959 260.929 152.381 260.634 151.882 260.271C151.383 259.909 151.133 259.41 151.133 258.774C151.133 258.57 151.19 258.468 151.303 258.468C151.666 258.468 151.984 258.434 152.256 258.366C152.528 258.298 152.778 258.219 153.004 258.128C153.254 258.037 153.492 257.958 153.719 257.89C153.968 257.822 154.24 257.788 154.535 257.788L157.257 258.128L162.735 257.584L163.857 257.958L165.627 257.584C166.284 257.493 166.931 257.436 167.566 257.414C168.201 257.368 168.847 257.346 169.505 257.346C170.117 257.346 170.73 257.368 171.342 257.414C171.955 257.436 172.556 257.493 173.145 257.584C173.622 257.833 174.098 257.981 174.574 258.026C175.073 258.049 175.572 258.06 176.071 258.06C176.616 258.06 177.149 258.083 177.67 258.128C178.192 258.173 178.702 258.253 179.201 258.366C179.61 258.434 180.143 258.627 180.8 258.945C181.458 259.239 182.127 259.602 182.808 260.033C183.511 260.442 184.146 260.895 184.713 261.394C185.303 261.893 185.722 262.369 185.972 262.823C186.176 263.345 186.357 263.912 186.516 264.524C186.698 265.137 186.856 265.76 186.992 266.395C187.129 267.008 187.231 267.632 187.299 268.267C187.389 268.879 187.435 269.457 187.435 270.002C187.435 270.274 187.423 270.637 187.401 271.09C187.401 271.544 187.367 272.009 187.299 272.485C187.253 272.962 187.185 273.404 187.095 273.812C187.004 274.221 186.89 274.527 186.754 274.731L185.734 276.024L185.496 277.317C185.382 277.589 185.121 277.963 184.713 278.439C184.327 278.893 183.885 279.369 183.386 279.868C182.91 280.345 182.434 280.787 181.957 281.195C181.504 281.603 181.141 281.864 180.869 281.978C180.664 282.091 180.415 282.227 180.12 282.386C179.825 282.522 179.519 282.669 179.201 282.828C178.884 282.987 178.578 283.134 178.283 283.27C178.011 283.384 177.784 283.463 177.602 283.509L175.221 283.679L173.724 284.155C173.452 284.155 173.123 284.121 172.737 284.053C172.352 283.962 171.977 283.837 171.614 283.679C171.274 283.52 170.968 283.35 170.696 283.168C170.446 282.964 170.322 282.737 170.322 282.488C170.322 282.125 170.56 281.853 171.036 281.671L174.983 280.855C175.005 280.741 175.085 280.651 175.221 280.583C175.38 280.492 175.516 280.424 175.629 280.379C176.423 279.97 177.16 279.437 177.841 278.779C178.521 278.099 179.111 277.351 179.61 276.534C180.109 275.717 180.494 274.856 180.766 273.948C181.061 273.018 181.209 272.077 181.209 271.124C181.163 270.943 181.095 270.784 181.005 270.648C180.937 270.489 180.891 270.353 180.869 270.24C180.869 270.217 180.857 270.195 180.834 270.172C180.812 270.127 180.8 270.058 180.8 269.968C180.71 269.333 180.608 268.596 180.494 267.756C180.381 266.894 180.211 266.157 179.984 265.545C179.893 265.318 179.644 265.012 179.235 264.626C178.85 264.218 178.396 263.787 177.875 263.333C177.376 262.88 176.854 262.438 176.31 262.007C175.788 261.553 175.346 261.167 174.983 260.85L171.955 260.135H169.267C169.063 260.249 168.768 260.351 168.382 260.442C168.019 260.532 167.657 260.646 167.294 260.782C166.953 260.918 166.647 261.111 166.375 261.36C166.103 261.587 165.967 261.904 165.967 262.313V266.259C166.126 266.463 166.216 266.622 166.239 266.736C166.262 266.849 166.273 267.042 166.273 267.314L165.967 268.607C165.967 268.652 166.012 268.8 166.103 269.049C166.216 269.276 166.273 269.446 166.273 269.559V270.138L165.661 271.907L166.443 275.854C166.443 276.058 166.432 276.228 166.409 276.364C166.409 276.477 166.364 276.659 166.273 276.908V282.148C166.364 282.352 166.409 282.545 166.409 282.726C166.432 282.885 166.443 283.066 166.443 283.27L165.967 285.244C165.967 286.083 166.08 286.922 166.307 287.761C166.534 288.578 166.67 289.417 166.715 290.279C166.738 290.914 166.749 291.572 166.749 292.252C166.749 292.91 166.761 293.579 166.783 294.26C166.806 294.917 166.851 295.575 166.919 296.233C166.987 296.868 167.124 297.492 167.328 298.104C167.35 298.263 167.6 298.512 168.076 298.853C168.575 299.193 169.131 299.544 169.743 299.907C170.356 300.247 170.934 300.554 171.478 300.826C172.045 301.075 172.408 301.2 172.567 301.2H173.622C173.871 301.2 174.053 301.211 174.166 301.234C174.28 301.234 174.416 301.279 174.574 301.37C174.574 301.393 174.62 301.45 174.71 301.54C174.824 301.631 174.949 301.744 175.085 301.881C175.221 301.994 175.357 302.107 175.493 302.221C175.652 302.334 175.788 302.425 175.901 302.493C175.947 302.606 175.981 302.697 176.003 302.765C176.049 302.833 176.071 302.924 176.071 303.037V303.139C175.867 303.593 175.55 303.945 175.119 304.194C174.71 304.444 174.257 304.625 173.758 304.738C173.259 304.852 172.749 304.92 172.227 304.943C171.705 304.965 171.229 304.977 170.798 304.977L168.212 304.5C167.963 304.5 167.713 304.557 167.464 304.67C167.237 304.761 166.987 304.806 166.715 304.806L163.891 304.024H163.483C163.302 304.024 163.188 304.047 163.143 304.092C162.168 304.205 161.192 304.387 160.217 304.636C159.242 304.863 158.198 304.977 157.087 304.977C156.633 304.977 156.066 304.965 155.386 304.943C154.728 304.92 154.082 304.84 153.447 304.704C152.812 304.568 152.267 304.364 151.814 304.092C151.36 303.797 151.133 303.389 151.133 302.867ZM235.134 305.317C235.089 305.317 234.975 305.328 234.794 305.351C234.635 305.373 234.442 305.396 234.215 305.419C234.011 305.442 233.807 305.464 233.603 305.487C233.399 305.51 233.229 305.521 233.093 305.521C232.888 305.521 232.571 305.464 232.14 305.351C231.709 305.237 231.244 305.101 230.745 304.943C230.246 304.784 229.77 304.625 229.316 304.466C228.885 304.285 228.568 304.137 228.363 304.024L227.139 302.629C227.093 302.561 227.048 302.47 227.003 302.357C226.98 302.221 226.844 302.096 226.594 301.983C226.345 301.71 226.061 301.461 225.744 301.234C225.426 300.985 225.245 300.78 225.199 300.622C224.95 300.395 224.768 300.179 224.655 299.975C224.564 299.771 224.474 299.578 224.383 299.397C224.315 299.215 224.235 299.034 224.145 298.853C224.054 298.671 223.907 298.478 223.702 298.274L221.729 296.267L220.947 294.974C220.833 294.657 220.629 294.35 220.334 294.055C220.062 293.761 219.745 293.488 219.382 293.239C219.041 292.967 218.678 292.706 218.293 292.456C217.93 292.207 217.601 291.969 217.306 291.742C216.83 291.424 216.467 291.027 216.218 290.551C215.968 290.075 215.741 289.621 215.537 289.19C215.333 288.918 215.072 288.68 214.755 288.476C214.437 288.249 214.12 288.022 213.802 287.795C213.507 287.569 213.235 287.319 212.985 287.047C212.759 286.752 212.611 286.389 212.543 285.958L209.345 282.896C209.254 282.783 209.084 282.692 208.835 282.624C208.608 282.533 208.347 282.465 208.052 282.42C207.78 282.352 207.497 282.306 207.202 282.284C206.929 282.261 206.703 282.25 206.521 282.25C206.317 282.25 206.124 282.318 205.943 282.454C205.761 282.567 205.591 282.715 205.433 282.896C205.296 283.078 205.183 283.282 205.092 283.509C205.024 283.713 204.99 283.905 204.99 284.087C204.99 284.45 205.058 284.813 205.194 285.176C205.33 285.539 205.421 285.879 205.467 286.196C205.512 286.922 205.557 287.693 205.603 288.51C205.671 289.326 205.705 290.132 205.705 290.925L205.296 292.218L205.467 293.205L205.705 295.144L206.113 296.267L205.705 298.138C205.705 298.751 205.784 299.227 205.943 299.567C206.124 299.907 206.362 300.168 206.657 300.35C206.952 300.531 207.292 300.656 207.678 300.724C208.064 300.792 208.472 300.86 208.903 300.928H209.583C209.674 300.928 209.833 300.973 210.06 301.064C210.309 301.155 210.559 301.268 210.808 301.404C211.058 301.518 211.273 301.642 211.454 301.778C211.636 301.892 211.727 301.983 211.727 302.051C211.885 302.3 212.033 302.482 212.169 302.595C212.328 302.686 212.452 302.765 212.543 302.833C212.657 302.879 212.736 302.935 212.781 303.003C212.849 303.049 212.883 303.139 212.883 303.275C212.883 304.636 212.18 305.317 210.774 305.317C210.252 305.317 209.731 305.249 209.209 305.113C208.687 304.977 208.154 304.829 207.61 304.67C207.088 304.512 206.555 304.364 206.011 304.228C205.489 304.092 204.956 304.024 204.412 304.024C203.641 304.024 202.881 304.115 202.132 304.296C201.384 304.478 200.579 304.568 199.717 304.568L197.948 304.398L195.362 304.568C195.294 304.568 195.192 304.557 195.056 304.534C194.92 304.489 194.784 304.444 194.647 304.398C194.511 304.33 194.387 304.273 194.273 304.228C194.16 304.16 194.103 304.092 194.103 304.024C194.217 303.298 194.5 302.822 194.954 302.595C195.407 302.346 195.929 302.198 196.519 302.153C196.836 301.881 197.154 301.631 197.471 301.404C197.789 301.155 198.061 300.894 198.288 300.622C198.537 300.327 198.73 300.021 198.866 299.703C199.025 299.363 199.104 298.977 199.104 298.546C199.104 298.002 199.093 297.639 199.07 297.458C199.07 297.276 199.048 297.129 199.002 297.015L199.172 294.804L199.717 293.749C199.603 293.386 199.513 293.023 199.445 292.661C199.377 292.275 199.343 291.923 199.343 291.606V291.572C199.343 291.481 199.354 291.368 199.377 291.232C199.399 291.096 199.422 290.959 199.445 290.823C199.467 290.687 199.49 290.574 199.513 290.483C199.535 290.392 199.558 290.336 199.581 290.313C199.603 290.29 199.615 290.268 199.615 290.245C199.615 290.2 199.626 290.166 199.649 290.143C199.671 290.098 199.694 290.041 199.717 289.973L199.581 289.19V285.788C199.377 285.312 199.206 284.847 199.07 284.393C198.934 283.94 198.866 283.486 198.866 283.032C198.866 282.828 198.889 282.726 198.934 282.726L199.104 282.012C199.036 281.535 198.991 281.161 198.968 280.889C198.946 280.594 198.923 280.367 198.9 280.208C198.878 280.027 198.866 279.891 198.866 279.8C198.866 279.709 198.866 279.607 198.866 279.494L199.343 277.827C199.343 277.736 199.309 277.657 199.24 277.589C199.195 277.521 199.15 277.464 199.104 277.419L199.07 276.092L199.343 273.608C199.343 273.291 199.297 272.996 199.206 272.724C199.116 272.429 199.07 272.157 199.07 271.907L199.343 271.022C199.138 270.002 199.014 269.163 198.968 268.505C198.946 267.824 198.934 267.189 198.934 266.6C198.934 266.373 198.855 266.044 198.696 265.613C198.56 265.182 198.379 264.751 198.152 264.32C197.925 263.889 197.664 263.515 197.369 263.197C197.074 262.88 196.791 262.721 196.519 262.721C196.224 262.721 195.974 262.721 195.77 262.721C195.589 262.721 195.385 262.698 195.158 262.653C194.886 262.517 194.568 262.403 194.205 262.313C193.842 262.199 193.491 262.063 193.151 261.904C192.833 261.746 192.561 261.553 192.334 261.326C192.107 261.077 191.994 260.759 191.994 260.373C191.994 260.101 192.016 259.886 192.062 259.727C192.107 259.568 192.266 259.444 192.538 259.353H193.287L196.417 259.523L199.309 259.421C199.513 259.421 199.728 259.432 199.955 259.455C200.204 259.478 200.431 259.568 200.635 259.727C200.885 259.818 201.134 259.874 201.384 259.897C201.656 259.897 201.917 259.897 202.166 259.897C202.643 259.897 203.142 259.84 203.663 259.727L205.228 259.183C205.342 259.137 205.455 259.115 205.569 259.115C205.705 259.115 205.829 259.115 205.943 259.115H206.759C207.077 259.115 207.372 259.126 207.644 259.149C207.939 259.171 208.234 259.239 208.529 259.353L209.889 259.727C209.98 259.75 210.037 259.897 210.06 260.169C210.105 260.442 210.128 260.623 210.128 260.714C210.128 261.009 209.969 261.281 209.651 261.53C209.356 261.78 209.005 262.007 208.597 262.211C208.188 262.415 207.78 262.608 207.372 262.789C206.986 262.948 206.703 263.084 206.521 263.197C206.385 263.379 206.249 263.685 206.113 264.116C205.977 264.524 205.841 264.978 205.705 265.477C205.591 265.976 205.489 266.463 205.398 266.94C205.33 267.393 205.296 267.734 205.296 267.96C205.296 268.074 205.319 268.176 205.364 268.267C205.433 268.357 205.467 268.527 205.467 268.777L204.752 270.308C204.752 270.489 204.775 270.614 204.82 270.682C204.888 270.728 204.956 270.762 205.024 270.784C205.092 270.807 205.16 270.841 205.228 270.886C205.319 270.909 205.398 270.988 205.467 271.124V271.941C205.467 272.281 205.387 272.633 205.228 272.996C205.07 273.336 204.99 273.653 204.99 273.948C204.99 274.039 205.036 274.198 205.126 274.425C205.24 274.629 205.296 274.754 205.296 274.799V277.419C205.251 277.464 205.183 277.521 205.092 277.589C205.024 277.657 204.99 277.736 204.99 277.827C204.99 277.94 205.058 278.031 205.194 278.099C205.33 278.167 205.501 278.201 205.705 278.201C205.909 278.201 206.068 278.156 206.181 278.065C206.294 277.952 206.396 277.827 206.487 277.691C206.601 277.532 206.703 277.373 206.793 277.214C206.907 277.033 207.054 276.886 207.236 276.772C207.599 276.523 207.984 276.296 208.392 276.092C208.823 275.888 209.254 275.683 209.685 275.479C210.116 275.275 210.524 275.048 210.91 274.799C211.318 274.549 211.681 274.266 211.999 273.948C212.475 273.495 212.815 272.962 213.019 272.349C213.246 271.714 213.473 271.136 213.7 270.614C213.791 270.455 213.927 270.342 214.108 270.274C214.29 270.183 214.471 270.104 214.653 270.036C214.857 269.968 215.061 269.9 215.265 269.832C215.469 269.741 215.639 269.628 215.775 269.491C215.934 269.333 216.218 269.004 216.626 268.505C217.057 268.006 217.488 267.461 217.919 266.872C218.35 266.259 218.724 265.681 219.041 265.137C219.382 264.57 219.552 264.15 219.552 263.878C219.552 263.878 219.495 263.787 219.382 263.606C219.268 263.424 219.143 263.231 219.007 263.027C218.871 262.8 218.735 262.596 218.599 262.415C218.463 262.211 218.384 262.097 218.361 262.075L217.783 262.143C217.488 262.143 217.193 262.12 216.898 262.075C216.603 262.007 216.331 261.916 216.081 261.802C215.855 261.666 215.662 261.496 215.503 261.292C215.367 261.088 215.299 260.838 215.299 260.544C215.299 260.339 215.356 260.124 215.469 259.897C215.582 259.67 215.73 259.466 215.911 259.285C216.115 259.081 216.32 258.922 216.524 258.808C216.751 258.672 216.966 258.604 217.17 258.604L217.885 258.842L220.947 259.081C221.151 258.967 221.627 258.877 222.376 258.808C223.124 258.718 223.941 258.65 224.825 258.604C225.71 258.536 226.56 258.491 227.377 258.468C228.193 258.446 228.76 258.434 229.078 258.434C229.214 258.434 229.475 258.457 229.86 258.502C230.246 258.548 230.632 258.627 231.017 258.74C231.425 258.854 231.777 259.013 232.072 259.217C232.389 259.398 232.548 259.648 232.548 259.965C232.503 260.305 232.367 260.521 232.14 260.612C231.936 260.68 231.664 260.816 231.323 261.02C230.983 261.201 230.609 261.405 230.201 261.632C229.792 261.836 229.384 262.029 228.976 262.211C228.59 262.392 228.227 262.54 227.887 262.653C227.57 262.766 227.32 262.823 227.139 262.823C226.844 263.027 226.64 263.152 226.526 263.197C226.413 263.22 226.345 263.231 226.322 263.231L225.301 263.708C225.029 263.708 224.723 263.855 224.383 264.15C224.043 264.422 223.714 264.751 223.396 265.137C223.079 265.499 222.784 265.874 222.512 266.259C222.239 266.645 222.035 266.94 221.899 267.144L221.355 267.654C220.38 268.425 219.552 269.253 218.871 270.138C218.191 271 217.431 271.918 216.592 272.894L216.115 273.302L215.129 273.472C214.834 273.653 214.573 273.869 214.346 274.118C214.142 274.345 213.938 274.583 213.734 274.833C213.552 275.082 213.371 275.332 213.19 275.581C213.008 275.808 212.793 276.012 212.543 276.194C212.43 276.194 212.373 276.251 212.373 276.364C212.373 276.455 212.384 276.591 212.407 276.772C212.452 276.931 212.498 277.033 212.543 277.078V278.541C212.725 278.541 212.997 278.655 213.36 278.882C213.723 279.108 214.12 279.403 214.55 279.766C215.004 280.106 215.458 280.492 215.911 280.923C216.388 281.331 216.83 281.739 217.238 282.148C217.646 282.556 217.998 282.93 218.293 283.27C218.61 283.611 218.826 283.86 218.939 284.019C218.985 284.064 219.087 284.2 219.246 284.427C219.404 284.654 219.484 284.813 219.484 284.903C219.688 285.289 219.937 285.618 220.232 285.89C220.527 286.162 220.833 286.434 221.151 286.707C221.491 286.956 221.82 287.24 222.137 287.557C222.478 287.852 222.772 288.226 223.022 288.68C223.067 288.793 223.147 288.85 223.26 288.85C223.351 288.85 223.476 288.861 223.634 288.884C223.793 288.884 223.963 288.918 224.145 288.986C224.326 289.054 224.508 289.168 224.689 289.326C224.871 289.485 225.041 289.701 225.199 289.973C225.29 290.222 225.392 290.483 225.506 290.755C225.642 291.027 225.789 291.277 225.948 291.504C226.107 291.731 226.288 291.923 226.492 292.082C226.719 292.241 226.991 292.32 227.309 292.32C227.536 292.592 227.808 292.876 228.125 293.171C228.466 293.466 228.806 293.772 229.146 294.089C229.509 294.384 229.86 294.691 230.201 295.008C230.541 295.326 230.836 295.632 231.085 295.927C231.108 295.949 231.176 296.029 231.289 296.165C231.425 296.301 231.493 296.392 231.493 296.437C231.811 296.891 232.185 297.288 232.616 297.628C233.047 297.968 233.478 298.297 233.909 298.614C234.363 298.932 234.782 299.272 235.168 299.635C235.576 299.998 235.905 300.429 236.155 300.928C236.291 301.2 236.563 301.37 236.971 301.438C237.402 301.506 237.844 301.597 238.298 301.71C238.752 301.801 239.148 301.971 239.489 302.221C239.852 302.47 240.033 302.913 240.033 303.548C240.033 303.979 239.954 304.341 239.795 304.636C239.636 304.931 239.421 305.169 239.148 305.351C238.899 305.532 238.604 305.657 238.264 305.725C237.924 305.816 237.572 305.861 237.209 305.861C236.96 305.861 236.744 305.827 236.563 305.759C236.381 305.714 236.211 305.657 236.052 305.589C235.916 305.521 235.78 305.453 235.644 305.385C235.508 305.339 235.338 305.317 235.134 305.317Z" fill="white"/>
<defs>
<filter id="filter0_d_1860_17546" x="0.000188828" y="211.929" width="341.129" height="130.645" filterUnits="userSpaceOnUse" color-interpolation-filters="sRGB">
<feFlood flood-opacity="0" result="BackgroundImageFix"/>
<feColorMatrix in="SourceAlpha" type="matrix" values="0 0 0 0 0 0 0 0 0 0 0 0 0 0 0 0 0 0 127 0" result="hardAlpha"/>
<feOffset dy="-8.70968"/>
<feGaussianBlur stdDeviation="2.90323"/>
<feComposite in2="hardAlpha" operator="out"/>
<feColorMatrix type="matrix" values="0 0 0 0 0 0 0 0 0 0 0 0 0 0 0 0 0 0 0.15 0"/>
<feBlend mode="normal" in2="BackgroundImageFix" result="effect1_dropShadow_1860_17546"/>
<feBlend mode="normal" in="SourceGraphic" in2="effect1_dropShadow_1860_17546" result="shape"/>
</filter>
<filter id="filter1_i_1860_17546" x="5.80664" y="188.693" width="36.291" height="37.7407" filterUnits="userSpaceOnUse" color-interpolation-filters="sRGB">
<feFlood flood-opacity="0" result="BackgroundImageFix"/>
<feBlend mode="normal" in="SourceGraphic" in2="BackgroundImageFix" result="shape"/>
<feColorMatrix in="SourceAlpha" type="matrix" values="0 0 0 0 0 0 0 0 0 0 0 0 0 0 0 0 0 0 127 0" result="hardAlpha"/>
<feOffset dy="-1.45161"/>
<feGaussianBlur stdDeviation="2.90323"/>
<feComposite in2="hardAlpha" operator="arithmetic" k2="-1" k3="1"/>
<feColorMatrix type="matrix" values="0 0 0 0 0 0 0 0 0 0 0 0 0 0 0 0 0 0 0.25 0"/>
<feBlend mode="normal" in2="shape" result="effect1_innerShadow_1860_17546"/>
</filter>
<clipPath id="clip0_1860_17546">
<rect width="174.194" height="174.194" fill="white" transform="translate(84.1855 53.7109)"/>
</clipPath>
</defs>
</svg>
