<svg width="342" height="360" viewBox="0 0 342 360" fill="none" xmlns="http://www.w3.org/2000/svg">
<path d="M42.1152 23.2258C42.1152 10.3985 52.5138 0 65.341 0H221.605C225.634 0 229.481 1.67424 232.227 4.6222L264.212 38.961L296.608 73.7414C299.111 76.4282 300.502 79.9636 300.502 83.6354V336.774C300.502 349.601 290.104 360 277.277 360H65.341C52.5138 360 42.1152 349.601 42.1152 336.774V23.2258Z" fill="#ECF0F3"/>
<path d="M230.805 3.62891L234.434 7.25794L296.128 73.3072L252.816 72.8364C239.897 72.696 229.575 62.0399 229.847 49.1231L230.805 3.62891Z" fill="#525252"/>
<g filter="url(#filter0_d_1860_17549)">
<path d="M5.80664 226.445H315C326.224 226.445 335.323 235.544 335.323 246.768V322.252C335.323 333.476 326.224 342.574 315 342.574H26.1292C14.9053 342.574 5.80664 333.476 5.80664 322.252V226.445Z" fill="#9C9C9C"/>
<path d="M5.80664 226.445H315C326.224 226.445 335.323 235.544 335.323 246.768V322.252C335.323 333.476 326.224 342.574 315 342.574H26.1292C14.9053 342.574 5.80664 333.476 5.80664 322.252V226.445Z" fill="black" fill-opacity="0.2"/>
</g>
<path d="M5.80664 208.29C5.80664 198.268 13.9305 190.145 23.9518 190.145H42.097V226.435H5.80664V208.29Z" fill="#9C9C9C"/>
<path d="M5.80664 208.29C5.80664 198.268 13.9305 190.145 23.9518 190.145H42.097V226.435H5.80664V208.29Z" fill="black" fill-opacity="0.2"/>
<g filter="url(#filter1_i_1860_17549)">
<path d="M5.80664 208.29C5.80664 198.268 13.9305 190.145 23.9518 190.145H42.097V226.435H23.9518C13.9305 226.435 5.80664 218.311 5.80664 208.29Z" fill="black" fill-opacity="0.25"/>
</g>
<path d="M128.603 122.505C122.917 122.505 120.074 122.505 117.835 123.433C116.354 124.046 115.008 124.945 113.874 126.079C112.74 127.212 111.841 128.558 111.228 130.04C110.301 132.279 110.301 135.121 110.301 140.807C110.301 146.493 110.301 149.336 111.228 151.575C111.841 153.056 112.74 154.402 113.874 155.536C115.008 156.67 116.354 157.569 117.835 158.182C120.074 159.109 122.917 159.109 128.603 159.109M128.603 122.505C122.917 122.505 120.074 122.505 117.835 121.578C116.354 120.965 115.008 120.066 113.874 118.932C112.74 117.798 111.841 116.452 111.228 114.971C110.301 112.732 110.301 109.889 110.301 104.203C110.301 98.5176 110.301 95.6747 111.228 93.4357C111.841 91.9544 112.74 90.6084 113.874 89.4747C115.008 88.3411 116.354 87.4419 117.835 86.8287C120.074 85.9014 122.917 85.9014 128.603 85.9014H172.942M128.603 122.505H171.307M128.603 159.109C122.917 159.109 120.074 159.109 117.835 160.037C116.354 160.65 115.008 161.549 113.874 162.683C112.74 163.816 111.841 165.162 111.228 166.644C110.301 168.882 110.301 171.725 110.301 177.411C110.301 183.097 110.301 185.94 111.228 188.179C111.841 189.66 112.74 191.006 113.874 192.14C115.008 193.274 116.354 194.173 117.835 194.786C120.074 195.713 122.917 195.713 128.603 195.713H172.942M128.603 159.109H171.307M172.942 85.9014C172.675 86.3633 172.439 86.8422 172.235 87.3351C171.307 89.574 171.307 92.4169 171.307 98.1027V122.505M172.942 85.9014C174.285 83.5745 176.359 81.756 178.842 80.7281C181.081 79.8008 183.923 79.8008 189.609 79.8008C195.295 79.8008 198.138 79.8008 200.377 80.7281C202.859 81.756 204.933 83.5745 206.276 85.9014M171.307 122.505V159.109M214.012 122.505C219.698 122.505 222.541 122.505 224.779 123.433C226.261 124.046 227.607 124.945 228.74 126.079C229.874 127.212 230.773 128.558 231.386 130.04C232.314 132.279 232.314 135.121 232.314 140.807C232.314 146.493 232.314 149.336 231.386 151.575C230.773 153.056 229.874 154.402 228.74 155.536C227.607 156.67 226.261 157.569 224.779 158.182C222.541 159.109 219.698 159.109 214.012 159.109M214.012 122.505C219.698 122.505 222.541 122.505 224.779 121.578C226.261 120.965 227.607 120.066 228.74 118.932C229.874 117.798 230.773 116.452 231.386 114.971C232.314 112.732 232.314 109.889 232.314 104.203C232.314 98.5176 232.314 95.6747 231.386 93.4357C230.773 91.9544 229.874 90.6084 228.74 89.4747C227.607 88.3411 226.261 87.4419 224.779 86.8287C222.541 85.9014 219.698 85.9014 214.012 85.9014H206.276M214.012 122.505H207.911M214.012 159.109C219.698 159.109 222.541 159.109 224.779 160.037C226.261 160.65 227.607 161.549 228.74 162.683C229.874 163.816 230.773 165.162 231.386 166.644C232.314 168.882 232.314 171.725 232.314 177.411C232.314 183.097 232.314 185.94 231.386 188.179C230.773 189.66 229.874 191.006 228.74 192.14C227.607 193.274 226.261 194.173 224.779 194.786C222.541 195.713 219.698 195.713 214.012 195.713H206.276M214.012 159.109H207.911M206.276 85.9014C206.545 86.361 206.781 86.8389 206.984 87.3351C207.911 89.574 207.911 92.4169 207.911 98.1027V122.505M207.911 122.505V159.109M206.276 195.713C206.545 195.254 206.781 194.776 206.984 194.279C207.911 192.041 207.911 189.198 207.911 183.512V159.109M206.276 195.713C204.933 198.04 202.859 199.859 200.377 200.886C198.138 201.814 195.295 201.814 189.609 201.814C183.923 201.814 181.081 201.814 178.842 200.886C176.359 199.859 174.285 198.04 172.942 195.713M172.942 195.713C172.678 195.254 172.442 194.776 172.235 194.279C171.307 192.041 171.307 189.198 171.307 183.512V159.109" stroke="#525252" stroke-width="9.15097"/>
<path d="M189.609 134.707V146.908" stroke="#525252" stroke-width="9.15097" stroke-linecap="round"/>
<path d="M50.0692 302.901C50.0692 302.561 50.228 302.311 50.5456 302.153C50.8631 301.994 51.26 301.869 51.7363 301.778C52.2353 301.665 52.7683 301.552 53.3354 301.438C53.9024 301.325 54.4241 301.143 54.9004 300.894C55.3994 300.644 55.8076 300.293 56.1252 299.839C56.4427 299.386 56.6015 298.762 56.6015 297.968L56.3633 296.845C56.3633 296.686 56.4087 296.562 56.4994 296.471C56.5902 296.358 56.6922 296.256 56.8056 296.165C56.919 296.074 57.0211 295.972 57.1118 295.859C57.2026 295.745 57.2479 295.586 57.2479 295.382L56.9757 293.035L57.1459 291.674C57.1912 291.56 57.2139 291.322 57.2139 290.959C57.2139 290.234 57.1005 289.61 56.8737 289.088C56.6695 288.544 56.5675 288.011 56.5675 287.489C56.5675 287.172 56.5788 286.979 56.6015 286.911C56.8737 286.049 57.0891 285.164 57.2479 284.257C57.4067 283.327 57.4861 282.443 57.4861 281.603C57.4861 281.24 57.4067 280.991 57.2479 280.855L56.9757 274.663C56.885 274.277 56.7603 273.858 56.6015 273.404C56.4427 272.95 56.3633 272.485 56.3633 272.009C56.3633 271.964 56.3747 271.907 56.3974 271.839C56.42 271.771 56.4881 271.578 56.6015 271.261C56.6015 270.172 56.5561 269.106 56.4654 268.063C56.3747 266.996 56.284 265.896 56.1932 264.762L56.2613 263.708C56.2613 263.685 56.2046 263.617 56.0912 263.504C55.9778 263.39 55.8417 263.265 55.6829 263.129C55.5468 262.993 55.4221 262.857 55.3087 262.721C55.1952 262.585 55.1385 262.483 55.1385 262.415C55.1839 262.301 55.2179 262.199 55.2406 262.109C55.2633 262.018 55.2746 261.927 55.2746 261.836C55.2746 261.723 55.2633 261.61 55.2406 261.496C55.2179 261.36 55.1839 261.235 55.1385 261.122C55.1159 261.009 54.9571 260.884 54.6622 260.748C54.3901 260.589 54.0498 260.442 53.6416 260.305C53.2333 260.169 52.791 260.033 52.3147 259.897C51.8611 259.738 51.4301 259.602 51.0219 259.489C50.6363 259.353 50.3074 259.228 50.0352 259.115C49.7857 258.979 49.661 258.865 49.661 258.774C49.661 258.457 49.7517 258.196 49.9332 257.992C50.1146 257.765 50.3414 257.595 50.6136 257.482C50.8858 257.346 51.1806 257.255 51.4982 257.209C51.8384 257.164 52.1673 257.141 52.4848 257.141C53.0065 257.346 53.5395 257.47 54.0839 257.516C54.6509 257.538 55.1952 257.55 55.7169 257.55C57.1005 257.55 58.3593 257.482 59.4934 257.346C60.378 257.255 61.3079 257.153 62.2832 257.039C63.2585 256.926 64.1544 256.801 64.971 256.665C65.4473 256.506 65.8102 256.393 66.0597 256.325C66.3092 256.234 66.4566 256.189 66.502 256.189C66.7741 256.189 66.9783 256.2 67.1144 256.223C67.2731 256.245 67.3979 256.268 67.4886 256.291H70.9589C71.0723 256.336 71.2084 256.359 71.3671 256.359C71.5486 256.359 71.7073 256.359 71.8434 256.359C72.0022 256.359 72.1496 256.359 72.2857 256.359C72.4445 256.359 72.5919 256.336 72.728 256.291C74.0662 256.291 75.3477 256.461 76.5725 256.801C77.7973 257.141 79.0561 257.504 80.349 257.89C80.3943 257.89 80.5531 257.924 80.8253 257.992C81.1201 258.037 81.4263 258.094 81.7439 258.162C82.0841 258.23 82.4016 258.298 82.6965 258.366C83.014 258.412 83.2068 258.434 83.2749 258.434C83.3202 258.434 83.3996 258.491 83.513 258.604C83.6491 258.695 83.7966 258.797 83.9553 258.911C84.1141 259.001 84.2502 259.092 84.3636 259.183C84.4997 259.273 84.5904 259.319 84.6358 259.319L86.2348 259.523C86.2348 259.523 86.2688 259.557 86.3369 259.625C86.4276 259.693 86.5183 259.772 86.6091 259.863C86.6998 259.954 86.7905 260.033 86.8812 260.101C86.972 260.169 87.04 260.215 87.0854 260.237C87.7204 260.714 88.4009 261.088 89.1267 261.36C89.8752 261.61 90.6123 261.961 91.3381 262.415C92.0639 263.277 92.8691 264.139 93.7537 265.001C94.6383 265.862 95.4775 266.747 96.2714 267.654C96.294 267.677 96.3167 267.722 96.3394 267.79C96.3848 267.858 96.4301 267.983 96.4755 268.165C96.5209 268.323 96.5889 268.55 96.6796 268.845C96.7703 269.14 96.8724 269.525 96.9858 270.002C96.9858 270.274 97.0312 270.455 97.1219 270.546C97.1219 270.614 97.1786 270.716 97.292 270.852C97.4054 270.988 97.5302 271.136 97.6663 271.295C97.825 271.453 97.9725 271.601 98.1086 271.737C98.2446 271.873 98.3467 271.964 98.4148 272.009C98.4148 272.463 98.4601 272.871 98.5508 273.234C98.6416 273.574 98.7436 273.903 98.857 274.221C98.9704 274.538 99.0725 274.844 99.1632 275.139C99.254 275.434 99.2993 275.729 99.2993 276.024L99.1632 277.963L99.5715 280.617C99.5715 281.297 99.5148 281.955 99.4014 282.59C99.288 283.225 99.1519 283.849 98.9931 284.461C98.8344 285.074 98.6642 285.697 98.4828 286.332C98.3013 286.945 98.1426 287.591 98.0065 288.272V289.565C98.0065 289.587 97.9271 289.701 97.7683 289.905C97.6322 290.086 97.5642 290.222 97.5642 290.313C97.3601 290.812 97.1219 291.3 96.8497 291.776C96.6002 292.252 96.3394 292.74 96.0672 293.239C95.795 293.715 95.5229 294.203 95.2507 294.702C95.0012 295.201 94.7744 295.723 94.5702 296.267L91.6784 298.785L89.7391 299.907C89.5803 299.907 89.5009 299.964 89.5009 300.077C89.0019 300.758 88.3782 301.37 87.6297 301.915C86.9039 302.459 86.0987 302.731 85.2141 302.731L83.445 302.561C83.2409 302.561 82.9914 302.64 82.6965 302.799C82.4243 302.935 82.1635 303.049 81.914 303.139C81.846 303.139 81.7099 303.162 81.5057 303.207C81.3016 303.23 81.0861 303.264 80.8593 303.309C80.6552 303.332 80.451 303.366 80.2469 303.412C80.0655 303.434 79.9521 303.446 79.9067 303.446C79.8386 303.446 79.6572 303.48 79.3623 303.548C79.0675 303.616 78.7273 303.695 78.3417 303.786C77.9561 303.854 77.5705 303.933 77.1849 304.024C76.7993 304.115 76.4931 304.183 76.2663 304.228C75.9941 304.455 75.6426 304.568 75.2116 304.568C75.0529 304.568 74.8487 304.546 74.5992 304.5C74.3497 304.432 73.9868 304.341 73.5105 304.228C73.4878 304.228 73.4085 304.251 73.2724 304.296C73.159 304.319 73.0229 304.353 72.8641 304.398C72.728 304.444 72.5806 304.489 72.4218 304.534C72.263 304.557 72.1383 304.568 72.0476 304.568C71.8888 304.523 71.6847 304.455 71.4352 304.364C71.1857 304.273 71.0156 304.228 70.9248 304.228C69.9042 304.364 68.9062 304.455 67.9309 304.5C66.9783 304.546 66.0256 304.568 65.073 304.568C64.075 304.568 63.1111 304.546 62.1811 304.5C61.2512 304.455 60.2986 304.364 59.3233 304.228C58.7336 304.115 58.2346 304.047 57.8263 304.024C57.418 304.001 56.919 303.99 56.3293 303.99L52.4508 304.738C52.1786 304.738 51.8951 304.704 51.6002 304.636C51.3281 304.568 51.0786 304.466 50.8518 304.33C50.6249 304.171 50.4321 303.979 50.2734 303.752C50.1373 303.525 50.0692 303.241 50.0692 302.901ZM63.8482 294.089C63.8482 295.155 64.1884 296.176 64.8689 297.151C65.5493 298.127 66.3885 298.977 67.3865 299.703C68.4072 300.429 69.4959 301.007 70.6527 301.438C71.8094 301.869 72.8528 302.085 73.7827 302.085C75.0075 302.085 76.1075 301.949 77.0828 301.676C78.0808 301.404 79.0902 300.973 80.1108 300.384C80.4057 300.202 80.6665 300.066 80.8933 299.975C81.1428 299.862 81.381 299.76 81.6078 299.669C81.8346 299.556 82.0614 299.431 82.2882 299.295C82.5377 299.159 82.8099 298.989 83.1048 298.785C83.9213 298.195 84.7152 297.56 85.4863 296.879C86.2802 296.199 87.0173 295.428 87.6978 294.566L87.8679 293.681C87.9586 293.296 88.072 292.967 88.2081 292.695C88.3442 292.4 88.4916 292.116 88.6504 291.844C88.8092 291.572 88.9566 291.3 89.0927 291.027C89.2514 290.733 89.3875 290.404 89.5009 290.041C89.5009 290.018 89.5123 289.939 89.535 289.803C89.5576 289.667 89.5803 289.519 89.603 289.36C89.6257 289.202 89.6484 289.054 89.6711 288.918C89.7164 288.782 89.7391 288.703 89.7391 288.68C89.8979 288.272 90.0793 287.863 90.2835 287.455C90.4876 287.024 90.6804 286.593 90.8618 286.162C91.0433 285.731 91.1907 285.289 91.3041 284.835C91.4402 284.382 91.5083 283.917 91.5083 283.441C91.3948 283.123 91.3268 282.908 91.3041 282.794C91.2814 282.658 91.2701 282.533 91.2701 282.42C91.2701 282.306 91.2814 282.17 91.3041 282.012C91.3268 281.853 91.3381 281.762 91.3381 281.739C91.2928 281.558 91.2361 281.218 91.168 280.719C91.1 280.22 91.0319 279.698 90.9639 279.154C90.9185 278.587 90.8732 278.054 90.8278 277.555C90.7824 277.033 90.7598 276.681 90.7598 276.5C90.5556 276.228 90.4195 275.91 90.3515 275.547C90.3061 275.162 90.2835 274.81 90.2835 274.493C90.2835 274.198 90.2948 273.948 90.3175 273.744C90.3402 273.517 90.3515 273.313 90.3515 273.132C89.9659 272.86 89.6937 272.531 89.535 272.145C89.3762 271.737 89.2514 271.317 89.1607 270.886C89.07 270.455 88.9679 270.024 88.8545 269.594C88.7638 269.14 88.5937 268.732 88.3442 268.369C88.3215 268.323 88.2648 268.255 88.1741 268.165C88.0834 268.051 87.9813 267.938 87.8679 267.824C87.7545 267.688 87.6524 267.575 87.5617 267.484C87.471 267.393 87.4142 267.337 87.3916 267.314L86.8132 266.532L84.9079 264.592C84.3863 264.093 83.8986 263.56 83.445 262.993C83.014 262.426 82.5037 261.939 81.914 261.53C81.483 261.235 81.0634 261.031 80.6552 260.918C80.2696 260.782 79.8727 260.657 79.4644 260.544C79.0561 260.43 78.6365 260.271 78.2056 260.067C77.7746 259.863 77.321 259.546 76.8447 259.115C76.5725 258.888 76.1302 258.706 75.5178 258.57C74.9281 258.434 74.293 258.332 73.6126 258.264C72.9321 258.173 72.2744 258.117 71.6393 258.094C71.0269 258.071 70.5733 258.06 70.2784 258.06C69.2351 258.06 68.101 258.139 66.8762 258.298C65.6741 258.434 64.5854 258.706 63.6101 259.115C63.4286 259.205 63.2698 259.421 63.1338 259.761C63.0203 260.101 62.9183 260.498 62.8276 260.952C62.7595 261.405 62.7028 261.882 62.6574 262.381C62.6348 262.88 62.6234 263.322 62.6234 263.708V264.728C62.6234 265.545 62.7255 266.327 62.9296 267.076C63.1564 267.802 63.2698 268.607 63.2698 269.491C63.2698 269.605 63.2358 269.764 63.1678 269.968C63.1224 270.149 63.0771 270.263 63.0317 270.308C62.9636 270.784 62.9183 271.261 62.8956 271.737C62.8729 272.213 62.8616 272.678 62.8616 273.132C62.8616 273.517 62.8729 273.914 62.8956 274.323C62.9183 274.708 62.9636 275.082 63.0317 275.445C63.1905 275.899 63.2812 276.285 63.3039 276.602C63.3492 276.897 63.3719 277.192 63.3719 277.487C63.3719 277.782 63.3606 278.054 63.3379 278.303C63.3379 278.553 63.3152 278.87 63.2698 279.256L63.3379 280.072L63.2698 280.685C63.1564 280.889 63.0884 281.07 63.0657 281.229C63.043 281.365 63.0317 281.547 63.0317 281.773V282.318C63.0317 283.338 63.0657 284.393 63.1338 285.482C63.2245 286.571 63.3265 287.637 63.44 288.68C63.5307 289.292 63.6668 289.905 63.8482 290.517C64.0524 291.13 64.1544 291.731 64.1544 292.32L63.8482 294.089ZM104.573 290.075C104.573 289.961 104.595 289.746 104.641 289.428C104.686 289.088 104.732 288.737 104.777 288.374C104.845 287.988 104.89 287.625 104.913 287.285C104.958 286.945 104.981 286.718 104.981 286.605C105.072 285.516 105.31 284.404 105.695 283.27C106.104 282.136 106.614 281.048 107.226 280.004C107.839 278.938 108.542 277.963 109.336 277.078C110.152 276.194 111.037 275.445 111.99 274.833C112.012 274.788 112.126 274.708 112.33 274.595C112.557 274.481 112.795 274.368 113.044 274.255C113.294 274.141 113.532 274.028 113.759 273.914C113.986 273.801 114.122 273.722 114.167 273.676C114.326 273.608 114.53 273.495 114.779 273.336C115.052 273.154 115.324 272.984 115.596 272.826C115.868 272.644 116.14 272.485 116.412 272.349C116.685 272.213 116.934 272.145 117.161 272.145C117.365 272.145 117.524 272.168 117.637 272.213C117.773 272.259 117.932 272.327 118.114 272.417C118.499 272.372 118.862 272.338 119.202 272.315C119.565 272.27 119.928 272.247 120.291 272.247C120.677 272.247 121.039 272.27 121.38 272.315C121.72 272.338 122.083 272.372 122.468 272.417C122.468 272.417 122.514 272.44 122.605 272.485C122.695 272.508 122.797 272.542 122.911 272.587C123.024 272.633 123.138 272.678 123.251 272.724C123.364 272.769 123.455 272.803 123.523 272.826C123.591 272.848 123.727 272.916 123.931 273.03C124.136 273.12 124.362 273.234 124.612 273.37C124.861 273.506 125.099 273.631 125.326 273.744C125.553 273.835 125.712 273.892 125.803 273.914C125.803 273.937 125.882 273.971 126.041 274.016C126.2 274.062 126.302 274.084 126.347 274.084L127.708 274.833L130.77 277.623C130.861 277.736 130.997 278.042 131.178 278.541C131.382 279.018 131.575 279.551 131.756 280.14C131.961 280.707 132.131 281.252 132.267 281.773C132.426 282.295 132.505 282.635 132.505 282.794C132.505 283.112 132.414 283.372 132.233 283.577C132.051 283.758 131.836 283.917 131.586 284.053C131.337 284.166 131.065 284.257 130.77 284.325C130.498 284.37 130.26 284.404 130.055 284.427H129.919C129.692 284.45 129.318 284.473 128.797 284.495C128.298 284.518 127.765 284.541 127.198 284.563C126.653 284.563 126.131 284.575 125.632 284.597C125.156 284.597 124.827 284.597 124.646 284.597C124.396 284.711 124.17 284.779 123.965 284.801C123.784 284.824 123.591 284.835 123.387 284.835L120.971 284.597C120.518 284.597 120.042 284.677 119.543 284.835C119.066 284.994 118.601 285.074 118.148 285.074C117.853 285.074 117.558 284.972 117.263 284.767C116.991 284.541 116.685 284.427 116.344 284.427C116.299 284.427 116.174 284.484 115.97 284.597C115.789 284.688 115.653 284.733 115.562 284.733L112.976 284.563C112.613 284.563 112.273 284.631 111.956 284.767C111.638 284.903 111.275 285.142 110.867 285.482C110.799 286.072 110.753 286.593 110.731 287.047C110.708 287.478 110.697 287.965 110.697 288.51C110.697 288.986 110.719 289.372 110.765 289.667C110.833 289.961 110.924 290.245 111.037 290.517C111.15 290.767 111.286 291.027 111.445 291.3C111.604 291.549 111.785 291.867 111.99 292.252L112.33 292.899C112.92 294.192 113.679 295.235 114.609 296.029C115.539 296.823 116.741 297.446 118.216 297.9C118.216 298.013 118.374 298.127 118.692 298.24C119.032 298.331 119.406 298.399 119.815 298.444C120.291 298.535 120.835 298.592 121.448 298.614C122.196 298.614 122.967 298.569 123.761 298.478C124.555 298.388 125.326 298.24 126.075 298.036C126.823 297.832 127.526 297.56 128.184 297.22C128.865 296.879 129.443 296.46 129.919 295.961H130.464C130.736 295.961 130.917 296.006 131.008 296.097C131.121 296.165 131.235 296.38 131.348 296.743C131.28 297.401 131.178 297.991 131.042 298.512C130.929 299.011 130.759 299.465 130.532 299.873C130.328 300.282 130.055 300.667 129.715 301.03C129.375 301.37 128.933 301.722 128.388 302.085C128.207 302.221 128.037 302.323 127.878 302.391C127.719 302.436 127.572 302.482 127.436 302.527C127.3 302.572 127.152 302.64 126.993 302.731C126.857 302.822 126.699 302.981 126.517 303.207L122.877 305.045L122.468 304.977L119.917 305.385C118.012 305.385 116.299 305.113 114.779 304.568C113.26 304.024 111.899 303.253 110.697 302.255C109.517 301.234 108.485 300.021 107.601 298.614C106.739 297.208 106.002 295.654 105.389 293.953C105.185 293.341 105.06 292.717 105.015 292.082C104.97 291.424 104.822 290.755 104.573 290.075ZM111.275 280.787C111.275 280.9 111.286 281.07 111.309 281.297C111.355 281.524 111.411 281.751 111.479 281.978C111.547 282.204 111.627 282.409 111.717 282.59C111.808 282.771 111.899 282.873 111.99 282.896H113.044L117.569 282.182L120.461 282.42C120.96 282.42 121.402 282.374 121.788 282.284C122.196 282.193 122.639 282.091 123.115 281.978C123.546 281.91 123.909 281.853 124.204 281.807C124.521 281.739 124.771 281.626 124.952 281.467C125.156 281.308 125.304 281.104 125.394 280.855C125.485 280.583 125.53 280.208 125.53 279.732C125.53 278.938 125.315 278.246 124.884 277.657C124.453 277.067 123.909 276.579 123.251 276.194C122.616 275.786 121.913 275.491 121.142 275.309C120.393 275.105 119.69 275.003 119.032 275.003C118.873 275.003 118.647 275.048 118.352 275.139C118.057 275.207 117.717 275.309 117.331 275.445C116.968 275.559 116.583 275.695 116.174 275.854C115.789 275.99 115.426 276.148 115.086 276.33C114.768 276.489 114.485 276.647 114.235 276.806C113.986 276.942 113.827 277.067 113.759 277.18L113.044 278.711C112.908 278.87 112.738 279.018 112.534 279.154C112.33 279.29 112.126 279.437 111.922 279.596C111.74 279.755 111.581 279.936 111.445 280.14C111.332 280.322 111.275 280.537 111.275 280.787ZM137.37 298.989C137.37 298.716 137.393 298.32 137.438 297.798C137.484 297.254 137.563 296.721 137.676 296.199C137.812 295.677 137.994 295.224 138.221 294.838C138.448 294.452 138.754 294.26 139.139 294.26C139.207 294.26 139.264 294.384 139.309 294.634C139.355 294.883 139.4 295.178 139.445 295.518C139.514 295.836 139.593 296.142 139.684 296.437C139.774 296.732 139.888 296.913 140.024 296.981C140.319 297.117 140.512 297.22 140.602 297.288C140.693 297.356 140.772 297.548 140.84 297.866L141.963 299.499C142.077 299.771 142.281 299.964 142.576 300.077C142.87 300.191 143.097 300.35 143.256 300.554C143.505 300.917 143.857 301.189 144.311 301.37C144.764 301.529 145.275 301.608 145.842 301.608L146.828 301.438C146.851 301.416 146.953 301.404 147.135 301.404C147.339 301.382 147.543 301.359 147.747 301.336C147.974 301.314 148.178 301.302 148.359 301.302C148.563 301.279 148.688 301.268 148.734 301.268C148.847 301.223 149.006 301.177 149.21 301.132C149.414 301.064 149.618 300.996 149.822 300.928C150.026 300.86 150.208 300.792 150.367 300.724C150.525 300.656 150.627 300.599 150.673 300.554C150.695 300.531 150.798 300.44 150.979 300.282C151.16 300.1 151.365 299.896 151.591 299.669C151.818 299.442 152.045 299.215 152.272 298.989C152.521 298.739 152.714 298.535 152.85 298.376C153.032 298.195 153.145 298.059 153.19 297.968C153.236 297.855 153.258 297.684 153.258 297.458V297.151C153.258 296.267 153.1 295.53 152.782 294.94C152.465 294.35 151.977 293.772 151.319 293.205C150.775 292.706 150.219 292.32 149.652 292.048C149.085 291.753 148.495 291.526 147.883 291.368C147.293 291.209 146.67 291.084 146.012 290.993C145.354 290.88 144.674 290.755 143.97 290.619C143.721 290.597 143.494 290.517 143.29 290.381C143.109 290.245 142.927 290.098 142.746 289.939C142.587 289.757 142.428 289.576 142.269 289.394C142.111 289.213 141.952 289.054 141.793 288.918L139.718 287.659C139.241 287.319 138.878 286.922 138.629 286.468C138.402 285.992 138.221 285.493 138.085 284.972C137.971 284.45 137.88 283.917 137.812 283.372C137.744 282.828 137.654 282.295 137.54 281.773L137.064 280.685C137.064 279.959 137.166 279.335 137.37 278.814C137.574 278.292 137.824 277.77 138.119 277.248C138.504 277.158 138.799 276.954 139.003 276.636C139.207 276.319 139.445 276.058 139.718 275.854C139.74 275.786 139.82 275.695 139.956 275.581C140.092 275.445 140.228 275.309 140.364 275.173C140.5 275.014 140.625 274.867 140.738 274.731C140.874 274.595 140.942 274.493 140.942 274.425C141.056 274.379 141.192 274.277 141.351 274.118C141.51 273.96 141.589 273.824 141.589 273.71C141.657 273.71 141.77 273.676 141.929 273.608C142.088 273.54 142.258 273.461 142.439 273.37C142.621 273.279 142.791 273.2 142.95 273.132C143.131 273.041 143.267 272.984 143.358 272.962C143.403 272.962 143.494 272.939 143.63 272.894C143.789 272.848 143.902 272.814 143.97 272.792C143.993 272.792 144.073 272.746 144.209 272.655C144.367 272.542 144.481 272.485 144.549 272.485C144.798 272.485 145.036 272.542 145.263 272.655C145.513 272.746 145.762 272.792 146.012 272.792L148.189 272.485L150.911 272.894L152.85 273.71C153.1 273.71 153.383 273.619 153.701 273.438C154.018 273.234 154.302 273.132 154.551 273.132C154.619 273.132 154.676 273.154 154.721 273.2C154.789 273.2 154.846 273.223 154.892 273.268C154.96 273.291 155.028 273.325 155.096 273.37C155.096 273.415 155.118 273.506 155.164 273.642C155.186 273.71 155.22 273.778 155.266 273.846C155.266 274.209 155.175 274.515 154.994 274.765C154.812 274.992 154.721 275.253 154.721 275.547L154.653 276.432C154.653 276.613 154.642 276.795 154.619 276.976C154.619 277.135 154.563 277.283 154.449 277.419C154.381 277.736 154.347 278.156 154.347 278.677C154.37 279.199 154.347 279.709 154.279 280.208C154.211 280.685 154.075 281.104 153.871 281.467C153.689 281.83 153.383 282.012 152.952 282.012L152.612 281.433C152.544 281.388 152.499 281.286 152.476 281.127C152.453 280.946 152.385 280.832 152.272 280.787C152.158 280.696 152.034 280.537 151.898 280.31C151.762 280.084 151.625 279.834 151.489 279.562C151.376 279.267 151.263 278.984 151.149 278.711C151.058 278.439 150.979 278.224 150.911 278.065L150.435 277.657C149.981 277.317 149.573 277.067 149.21 276.908C148.87 276.749 148.495 276.511 148.087 276.194C147.996 276.103 147.838 276.058 147.611 276.058C147.407 276.035 147.112 276.024 146.726 276.024C146.363 276.024 145.864 276.103 145.229 276.262C144.617 276.398 144.004 276.602 143.392 276.874C142.802 277.146 142.281 277.475 141.827 277.861C141.396 278.224 141.181 278.632 141.181 279.086L141.351 279.8C141.351 279.914 141.294 280.118 141.181 280.413C141.09 280.707 141.011 280.934 140.942 281.093C140.942 281.342 140.976 281.524 141.045 281.637C141.113 281.751 141.203 281.841 141.317 281.91C141.453 281.978 141.589 282.046 141.725 282.114C141.884 282.182 142.054 282.306 142.235 282.488C142.349 282.579 142.417 282.703 142.439 282.862C142.485 282.998 142.519 283.146 142.542 283.304C142.564 283.463 142.587 283.622 142.61 283.781C142.655 283.94 142.746 284.076 142.882 284.189C143.131 284.393 143.494 284.541 143.97 284.631C144.469 284.722 144.9 284.79 145.263 284.835H147.135C147.588 284.881 148.008 285.051 148.393 285.346C148.802 285.641 149.108 285.811 149.312 285.856H151.319L152.374 286.571C152.873 286.888 153.281 287.206 153.599 287.523C153.939 287.818 154.222 288.136 154.449 288.476C154.699 288.816 154.914 289.202 155.096 289.633C155.277 290.041 155.47 290.528 155.674 291.096C155.674 291.096 155.697 291.141 155.742 291.232C155.787 291.322 155.833 291.424 155.878 291.538C155.946 291.629 156.003 291.719 156.048 291.81C156.094 291.901 156.128 291.957 156.15 291.98L155.844 293.035C155.844 293.057 155.867 293.148 155.912 293.307C155.958 293.443 156.014 293.602 156.082 293.783C156.15 293.942 156.207 294.112 156.252 294.294C156.298 294.452 156.32 294.566 156.32 294.634V295.791C156.32 296.153 156.286 296.573 156.218 297.049C156.15 297.526 156.048 298.013 155.912 298.512C155.776 298.989 155.606 299.454 155.402 299.907C155.198 300.361 154.971 300.735 154.721 301.03C154.699 301.075 154.597 301.189 154.415 301.37C154.234 301.552 154.03 301.767 153.803 302.017C153.599 302.243 153.383 302.47 153.156 302.697C152.952 302.901 152.794 303.049 152.68 303.139C152.657 303.162 152.612 303.196 152.544 303.241C152.476 303.287 152.397 303.332 152.306 303.378C152.215 303.446 152.102 303.502 151.966 303.548L151.557 304.092L150.673 304.262C150.65 304.262 150.582 304.273 150.469 304.296C150.355 304.296 150.231 304.307 150.094 304.33C149.981 304.353 149.868 304.376 149.754 304.398C149.641 304.421 149.573 304.432 149.55 304.432C149.346 304.5 149.074 304.636 148.734 304.84C148.416 305.045 148.144 305.147 147.917 305.147C147.373 305.124 146.976 305.101 146.726 305.079C146.499 305.056 146.239 305.022 145.944 304.977H144.787C144.719 304.954 144.617 304.931 144.481 304.909C144.345 304.863 144.197 304.829 144.038 304.806C143.88 304.761 143.732 304.727 143.596 304.704C143.46 304.659 143.381 304.636 143.358 304.636C143.335 304.614 143.256 304.58 143.12 304.534C143.006 304.466 142.87 304.398 142.712 304.33C142.576 304.262 142.451 304.205 142.337 304.16C142.224 304.115 142.156 304.092 142.133 304.092C142.043 304.047 141.872 304.013 141.623 303.99C141.373 303.945 141.226 303.922 141.181 303.922L140.602 303.616C140.33 303.525 140.069 303.434 139.82 303.343C139.57 303.253 139.309 303.139 139.037 303.003C138.788 302.845 138.516 302.652 138.221 302.425C137.926 302.175 137.597 301.869 137.234 301.506C137.211 301.416 137.189 301.302 137.166 301.166C137.143 301.03 137.132 300.905 137.132 300.792C137.132 300.429 137.166 300.089 137.234 299.771C137.325 299.431 137.37 299.17 137.37 298.989ZM158.906 304.738C158.884 304.693 158.872 304.625 158.872 304.534C158.872 304.421 158.872 304.319 158.872 304.228L158.906 303.514C158.906 303.309 158.986 303.185 159.144 303.139C159.326 303.094 159.507 303.015 159.689 302.901C159.893 302.652 160.142 302.516 160.437 302.493C160.755 302.448 161.016 302.368 161.22 302.255C161.832 302.005 162.456 301.756 163.091 301.506C163.726 301.234 164.236 300.758 164.622 300.077C164.69 299.987 164.781 299.805 164.894 299.533C165.03 299.261 165.155 298.966 165.268 298.648C165.382 298.308 165.484 297.979 165.575 297.662C165.665 297.344 165.722 297.117 165.745 296.981C165.79 296.913 165.813 296.823 165.813 296.709C165.813 296.573 165.813 296.482 165.813 296.437L165.03 292.729C165.03 292.434 165.132 292.162 165.336 291.912C165.541 291.663 165.643 291.402 165.643 291.13L165.234 289.565C165.234 289.247 165.234 288.861 165.234 288.408C165.257 287.954 165.28 287.501 165.302 287.047C165.348 286.571 165.416 286.14 165.506 285.754C165.597 285.346 165.722 285.04 165.881 284.835C165.926 284.178 165.96 283.554 165.983 282.964C166.028 282.374 166.051 281.762 166.051 281.127C166.051 280.628 166.028 280.14 165.983 279.664C165.96 279.165 165.926 278.655 165.881 278.133C165.994 277.952 166.062 277.747 166.085 277.521C166.13 277.271 166.153 277.044 166.153 276.84V276.296L165.915 273.846C165.915 273.642 165.96 273.495 166.051 273.404C166.164 273.291 166.278 273.2 166.391 273.132C166.504 273.041 166.607 272.962 166.697 272.894C166.811 272.803 166.867 272.69 166.867 272.553L165.915 270.614L166.459 266.736C166.459 266.305 166.402 265.885 166.289 265.477C166.198 265.046 166.153 264.581 166.153 264.082L166.323 262.721C166.323 262.358 166.153 261.984 165.813 261.598C165.495 261.19 165.223 260.838 164.996 260.544L162.683 258.23C162.637 258.23 162.569 258.207 162.479 258.162C162.388 258.094 162.342 258.037 162.342 257.992C162.32 257.947 162.308 257.913 162.308 257.89C162.286 257.867 162.274 257.833 162.274 257.788C162.274 257.47 162.297 257.175 162.342 256.903C162.388 256.631 162.501 256.45 162.683 256.359C162.796 256.245 162.943 256.177 163.125 256.155C163.329 256.132 163.556 256.121 163.805 256.121H164.384C164.701 256.121 164.917 256.098 165.03 256.053C165.665 255.917 166.3 255.701 166.935 255.406C167.57 255.111 168.251 254.964 168.977 254.964C169.204 254.964 169.476 255.009 169.793 255.1C170.134 255.191 170.462 255.304 170.78 255.44C171.097 255.576 171.37 255.746 171.596 255.951C171.823 256.132 171.937 256.325 171.937 256.529C171.937 256.801 171.869 257.051 171.733 257.277C171.619 257.482 171.562 257.708 171.562 257.958L172.107 261.7C172.107 262.018 172.095 262.256 172.073 262.415C172.05 262.574 171.982 262.812 171.869 263.129V266.361C171.869 266.588 171.869 266.883 171.869 267.246C171.891 267.609 171.903 267.972 171.903 268.335C171.903 268.675 171.903 268.981 171.903 269.253C171.925 269.503 171.937 269.639 171.937 269.662L172.107 272.009L171.869 273.03C171.869 273.415 171.903 273.778 171.971 274.118C172.061 274.459 172.107 274.822 172.107 275.207C172.107 275.661 172.016 276.046 171.835 276.364C171.653 276.681 171.562 276.999 171.562 277.317L171.937 278.541C171.937 278.7 171.88 278.859 171.767 279.018C171.676 279.154 171.574 279.301 171.46 279.46C171.347 279.619 171.234 279.777 171.12 279.936C171.029 280.095 170.984 280.265 170.984 280.447L171.12 281.739L170.984 282.726C170.984 282.976 171.075 283.236 171.256 283.509C171.46 283.781 171.744 283.917 172.107 283.917H172.277C172.481 283.894 172.685 283.815 172.889 283.679C173.116 283.52 173.32 283.35 173.502 283.168C173.706 282.987 173.887 282.817 174.046 282.658C174.205 282.499 174.341 282.386 174.454 282.318C175.044 282 175.543 281.762 175.951 281.603C176.382 281.422 176.768 281.24 177.108 281.059C177.471 280.855 177.811 280.605 178.129 280.31C178.469 279.993 178.855 279.528 179.285 278.916C179.399 278.711 179.49 278.553 179.558 278.439C179.648 278.326 179.716 278.235 179.762 278.167C179.83 278.099 179.875 278.031 179.898 277.963C179.921 277.895 179.932 277.793 179.932 277.657C179.932 277.407 179.853 277.192 179.694 277.01C179.558 276.829 179.399 276.647 179.217 276.466C179.059 276.285 178.911 276.092 178.775 275.888C178.639 275.683 178.571 275.434 178.571 275.139V274.731C178.571 274.64 178.582 274.549 178.605 274.459C178.65 274.368 178.764 274.277 178.945 274.186C179.263 274.141 179.58 274.107 179.898 274.084C180.215 274.039 180.499 274.016 180.748 274.016C181.134 274.062 181.508 274.107 181.871 274.152C182.234 274.175 182.586 274.186 182.926 274.186C183.107 274.186 183.266 274.186 183.402 274.186C183.561 274.186 183.72 274.164 183.878 274.118L186.6 274.016C186.623 274.016 186.68 274.005 186.77 273.982C186.884 273.96 186.997 273.937 187.111 273.914C187.224 273.869 187.326 273.835 187.417 273.812C187.507 273.79 187.564 273.778 187.587 273.778H190.649C190.898 273.982 191.125 274.198 191.329 274.425C191.533 274.651 191.636 274.89 191.636 275.139C191.636 275.366 191.522 275.593 191.295 275.82C191.068 276.024 190.774 276.228 190.411 276.432C190.048 276.613 189.64 276.784 189.186 276.942C188.755 277.101 188.335 277.248 187.927 277.385C187.519 277.521 187.145 277.645 186.804 277.759C186.464 277.85 186.215 277.918 186.056 277.963C185.398 278.258 184.854 278.507 184.423 278.711C183.992 278.893 183.482 279.131 182.892 279.426C182.71 279.675 182.574 279.914 182.484 280.14C182.416 280.367 182.234 280.605 181.939 280.855C181.826 280.923 181.622 281.014 181.327 281.127C181.055 281.24 180.76 281.377 180.442 281.535C180.147 281.694 179.875 281.887 179.626 282.114C179.399 282.318 179.285 282.545 179.285 282.794C179.285 282.976 179.285 283.214 179.285 283.509C179.308 283.803 179.342 284.11 179.388 284.427C179.433 284.745 179.501 285.051 179.592 285.346C179.682 285.641 179.796 285.89 179.932 286.094C180.431 286.752 180.953 287.33 181.497 287.829C182.041 288.306 182.506 288.884 182.892 289.565C183.028 289.723 183.107 289.848 183.13 289.939C183.175 290.007 183.198 290.075 183.198 290.143C183.221 290.211 183.243 290.302 183.266 290.415C183.289 290.506 183.357 290.653 183.47 290.857C183.538 291.107 183.663 291.311 183.844 291.47C184.049 291.606 184.253 291.742 184.457 291.878C184.684 292.014 184.899 292.162 185.103 292.32C185.33 292.456 185.512 292.638 185.648 292.865C186.215 294.18 186.997 295.473 187.995 296.743C188.993 297.991 190.014 299.091 191.057 300.043C191.261 300.202 191.601 300.372 192.078 300.554C192.577 300.735 193.098 300.939 193.643 301.166C194.21 301.37 194.754 301.586 195.276 301.813C195.798 302.039 196.194 302.289 196.467 302.561C196.535 302.629 196.569 302.708 196.569 302.799C196.591 302.89 196.603 302.992 196.603 303.105V303.786C196.603 304.013 196.535 304.217 196.399 304.398C196.285 304.58 196.138 304.693 195.956 304.738H193.132L188.948 304.16C188.925 304.16 188.902 304.171 188.88 304.194C188.857 304.194 188.834 304.194 188.812 304.194C188.766 304.217 188.732 304.228 188.71 304.228C187.213 304.682 185.784 304.909 184.423 304.909L182.518 304.977C182.155 304.977 181.803 304.954 181.463 304.909C181.145 304.863 180.907 304.784 180.748 304.67C180.499 304.421 180.351 304.183 180.306 303.956C180.261 303.706 180.238 303.423 180.238 303.105V302.459C180.238 302.232 180.374 302.062 180.646 301.949C180.919 301.813 181.225 301.676 181.565 301.54C181.905 301.404 182.211 301.234 182.484 301.03C182.756 300.826 182.892 300.531 182.892 300.145C182.892 299.873 182.812 299.658 182.654 299.499C182.495 299.318 182.313 299.159 182.109 299.023C181.905 298.864 181.69 298.716 181.463 298.58C181.236 298.422 181.055 298.24 180.919 298.036C180.76 297.696 180.646 297.344 180.578 296.981C180.533 296.596 180.465 296.233 180.374 295.893C180.283 295.53 180.125 295.201 179.898 294.906C179.671 294.611 179.308 294.373 178.809 294.192C178.764 294.101 178.684 293.953 178.571 293.749C178.48 293.545 178.378 293.33 178.265 293.103C178.151 292.853 178.038 292.627 177.925 292.422C177.834 292.196 177.777 292.025 177.754 291.912C177.641 291.731 177.471 291.583 177.244 291.47C177.04 291.356 176.836 291.243 176.632 291.13C176.337 290.857 176.042 290.528 175.747 290.143C175.475 289.735 175.169 289.338 174.829 288.952C174.511 288.567 174.171 288.238 173.808 287.965C173.445 287.693 173.037 287.557 172.583 287.557C172.402 287.557 172.232 287.614 172.073 287.727C171.937 287.818 171.869 287.999 171.869 288.272L172.107 289.02C172.107 289.088 172.05 289.224 171.937 289.428C171.846 289.61 171.733 289.803 171.596 290.007C171.483 290.211 171.37 290.404 171.256 290.585C171.166 290.744 171.12 290.835 171.12 290.857V292.49C171.12 293.126 171.2 293.693 171.358 294.192C171.54 294.691 171.63 295.224 171.63 295.791C171.63 296.04 171.596 296.256 171.528 296.437C171.46 296.618 171.392 296.8 171.324 296.981C171.279 297.185 171.234 297.378 171.188 297.56C171.143 297.741 171.12 297.934 171.12 298.138C171.12 299 171.234 299.714 171.46 300.282C171.71 300.826 172.039 301.234 172.447 301.506C172.697 301.665 172.98 301.79 173.298 301.881C173.638 301.949 173.955 302.005 174.25 302.051C174.568 302.073 174.863 302.096 175.135 302.119C175.407 302.141 175.611 302.187 175.747 302.255C175.997 302.368 176.133 302.482 176.155 302.595C176.201 302.708 176.223 302.833 176.223 302.969C176.223 303.287 176.189 303.627 176.121 303.99C176.076 304.33 175.94 304.602 175.713 304.806C175.532 304.92 175.305 304.988 175.033 305.011C174.761 305.056 174.488 305.079 174.216 305.079H173.298L170.644 304.568L167.037 304.806H164.792L162.036 305.079L160.437 305.147C160.301 305.101 160.131 305.079 159.927 305.079C159.723 305.079 159.541 305.079 159.382 305.079L158.906 304.738ZM201.774 291.912L201.57 288.51L201.774 284.972V283.951C201.797 283.837 201.831 283.701 201.876 283.543C201.922 283.384 201.944 283.248 201.944 283.134C201.944 282.477 201.842 281.807 201.638 281.127C201.434 280.424 201.275 279.743 201.162 279.086C200.935 278.927 200.606 278.814 200.175 278.745C199.767 278.677 199.359 278.598 198.95 278.507C198.542 278.394 198.179 278.235 197.862 278.031C197.567 277.827 197.419 277.509 197.419 277.078C197.419 276.602 197.578 276.251 197.896 276.024C198.213 275.774 198.587 275.57 199.018 275.411C199.472 275.23 199.926 275.071 200.379 274.935C200.856 274.799 201.241 274.595 201.536 274.323C201.831 274.073 202.16 273.767 202.523 273.404C202.886 273.041 203.146 272.758 203.305 272.553C203.487 272.191 203.725 271.737 204.02 271.193C204.337 270.648 204.677 270.127 205.04 269.628C205.403 269.106 205.789 268.664 206.197 268.301C206.605 267.915 207.014 267.722 207.422 267.722C207.694 267.722 207.909 267.802 208.068 267.96C208.25 268.097 208.386 268.278 208.476 268.505C208.59 268.709 208.669 268.936 208.715 269.185C208.76 269.435 208.794 269.673 208.817 269.9V273.846L208.987 274.084H210.586C211.153 274.084 211.675 274.05 212.151 273.982C212.627 273.892 213.069 273.801 213.478 273.71C213.909 273.597 214.317 273.506 214.703 273.438C215.111 273.347 215.542 273.302 215.995 273.302C216.63 273.302 217.163 273.54 217.594 274.016C218.025 274.493 218.241 275.06 218.241 275.717C218.241 276.239 218.15 276.67 217.969 277.01C217.81 277.351 217.572 277.623 217.254 277.827C216.937 278.031 216.562 278.178 216.131 278.269C215.701 278.337 215.224 278.371 214.703 278.371L212.457 278.201L210.756 278.371L209.123 278.201C208.805 278.201 208.511 278.349 208.238 278.643C207.989 278.916 207.864 279.176 207.864 279.426L208.17 281.978C208.17 282.295 208.125 282.601 208.034 282.896C207.943 283.191 207.841 283.497 207.728 283.815C207.615 284.11 207.513 284.416 207.422 284.733C207.331 285.051 207.286 285.38 207.286 285.72V286.332L207.592 290.279C207.524 290.415 207.479 290.551 207.456 290.687C207.456 290.823 207.456 290.993 207.456 291.198C207.456 291.356 207.479 291.504 207.524 291.64C207.569 291.776 207.592 291.901 207.592 292.014C207.66 292.672 207.694 293.318 207.694 293.953C207.694 294.52 207.671 295.065 207.626 295.586C207.581 296.108 207.513 296.63 207.422 297.151C207.444 297.174 207.49 297.242 207.558 297.356C207.626 297.446 207.694 297.56 207.762 297.696C207.853 297.809 207.932 297.934 208 298.07C208.068 298.183 208.125 298.252 208.17 298.274C208.352 298.546 208.556 298.751 208.783 298.887C209.01 299.023 209.236 299.147 209.463 299.261C209.713 299.352 209.962 299.454 210.212 299.567C210.484 299.68 210.745 299.851 210.994 300.077H212.287C212.809 300.077 213.308 300.021 213.784 299.907C214.26 299.794 214.714 299.68 215.145 299.567C215.598 299.431 216.029 299.306 216.438 299.193C216.869 299.079 217.311 299.023 217.765 299.023C218.037 299.023 218.241 299.159 218.377 299.431C218.513 299.703 218.581 299.964 218.581 300.213C218.581 300.35 218.57 300.463 218.547 300.554C218.547 300.622 218.524 300.69 218.479 300.758C218.434 300.826 218.366 300.905 218.275 300.996C218.207 301.087 218.116 301.211 218.003 301.37L217.526 302.051C217.458 302.096 217.345 302.209 217.186 302.391C217.05 302.572 216.891 302.776 216.71 303.003C216.528 303.207 216.347 303.412 216.166 303.616C215.984 303.797 215.848 303.933 215.757 304.024C215.53 304.273 215.19 304.512 214.737 304.738C214.283 304.965 213.807 305.158 213.308 305.317C212.809 305.498 212.321 305.634 211.845 305.725C211.391 305.816 211.028 305.861 210.756 305.861L206.401 304.977C206.016 304.863 205.585 304.693 205.108 304.466C204.632 304.239 204.167 303.979 203.713 303.684C203.282 303.366 202.897 303.015 202.557 302.629C202.239 302.243 202.035 301.824 201.944 301.37V299.023C201.831 298.252 201.695 297.526 201.536 296.845C201.4 296.142 201.332 295.416 201.332 294.668L201.774 291.912ZM222.46 286.979C222.777 285.777 223.174 284.631 223.65 283.543C224.127 282.431 224.671 281.297 225.283 280.14L226.236 279.018L226.644 278.303C226.712 278.19 226.792 278.088 226.882 277.997C226.951 277.906 227.019 277.827 227.087 277.759C227.155 277.668 227.223 277.6 227.291 277.555L229.298 276.126C229.411 275.99 229.536 275.899 229.672 275.854C229.808 275.786 229.933 275.74 230.047 275.717C230.183 275.672 230.319 275.638 230.455 275.615C230.591 275.57 230.716 275.491 230.829 275.377L231.475 274.731L232.02 274.493H232.53L234.367 273.778C234.458 273.733 234.583 273.688 234.742 273.642C234.923 273.597 235.105 273.551 235.286 273.506C235.467 273.461 235.638 273.427 235.796 273.404C235.955 273.381 236.068 273.37 236.137 273.37H239.607C239.811 273.279 239.981 273.234 240.117 273.234C240.276 273.211 240.401 273.2 240.491 273.2C241.149 273.2 241.807 273.313 242.465 273.54C243.122 273.744 243.78 273.937 244.438 274.118H245.731C245.776 274.118 245.844 274.164 245.935 274.255C246.026 274.323 246.128 274.413 246.241 274.527L246.615 274.901C247.182 275.219 247.738 275.536 248.282 275.854C248.827 276.148 249.371 276.477 249.916 276.84C250.369 277.203 250.721 277.611 250.97 278.065C251.242 278.496 251.549 278.927 251.889 279.358C251.934 279.403 252.014 279.517 252.127 279.698C252.263 279.857 252.399 280.038 252.535 280.242C252.671 280.447 252.796 280.651 252.909 280.855C253.046 281.059 253.136 281.218 253.182 281.331L253.386 281.739L254.713 286.094C254.781 286.23 254.837 286.389 254.883 286.571C254.928 286.752 254.973 286.933 255.019 287.115C255.064 287.274 255.098 287.432 255.121 287.591C255.144 287.727 255.155 287.818 255.155 287.863V288.952L254.951 289.803V292.252L253.182 297.458C252.728 298.07 252.252 298.705 251.753 299.363C251.254 299.998 250.755 300.599 250.256 301.166C250.256 301.189 250.21 301.245 250.12 301.336C249.984 301.518 249.825 301.71 249.643 301.915C249.462 302.119 249.258 302.311 249.031 302.493C248.986 302.538 248.849 302.572 248.623 302.595C248.419 302.618 248.192 302.686 247.942 302.799L245.901 303.99C245.856 303.99 245.753 304.013 245.595 304.058C245.459 304.081 245.3 304.115 245.118 304.16C244.96 304.183 244.801 304.205 244.642 304.228C244.483 304.251 244.37 304.262 244.302 304.262C243.894 304.353 243.553 304.478 243.281 304.636C243.032 304.795 242.669 304.874 242.192 304.874L238.722 304.977C238.631 304.977 238.439 304.977 238.144 304.977C237.849 304.954 237.531 304.943 237.191 304.943C236.851 304.92 236.522 304.909 236.205 304.909C235.887 304.886 235.649 304.874 235.49 304.874L234.537 304.67L232.36 304.5L232.02 304.33L228.652 301.983L227.835 301.608C227.427 301.382 227.087 301.053 226.814 300.622C226.542 300.168 226.27 299.737 225.998 299.329C225.748 298.875 225.488 298.467 225.215 298.104C224.966 297.741 224.716 297.401 224.467 297.083C224.263 296.721 224.036 296.369 223.786 296.029C223.56 295.689 223.344 295.337 223.14 294.974C222.959 294.611 222.8 294.248 222.664 293.885C222.528 293.5 222.46 293.08 222.46 292.627L222.187 289.973L222.46 286.979ZM229.468 291.776C229.65 291.98 229.774 292.162 229.842 292.32C229.933 292.479 229.99 292.627 230.013 292.763C230.058 292.899 230.081 293.046 230.081 293.205C230.103 293.364 230.137 293.556 230.183 293.783C230.364 294.532 230.659 295.314 231.067 296.131C231.475 296.947 231.906 297.639 232.36 298.206L233.653 299.431C234.107 299.998 234.537 300.565 234.946 301.132C235.354 301.676 235.864 302.073 236.477 302.323H237.838C238.337 302.323 238.87 302.266 239.437 302.153C240.004 302.017 240.571 301.903 241.138 301.813C241.455 301.813 241.739 301.801 241.988 301.778C242.238 301.733 242.544 301.597 242.907 301.37L243.315 300.928C244.404 300.338 245.345 299.612 246.139 298.751L248.487 295.042L248.385 291.504C248.498 291.322 248.566 291.152 248.589 290.993C248.611 290.835 248.623 290.597 248.623 290.279C248.623 289.893 248.532 289.542 248.35 289.224C248.169 288.907 248.078 288.521 248.078 288.068L248.385 286.775C248.316 286.503 248.248 286.185 248.18 285.822C248.112 285.459 248.033 285.096 247.942 284.733C247.874 284.348 247.783 283.996 247.67 283.679C247.579 283.338 247.455 283.066 247.296 282.862L245.561 280.855C245.493 280.809 245.402 280.707 245.288 280.549C245.198 280.39 245.096 280.208 244.982 280.004C244.892 279.8 244.801 279.607 244.71 279.426C244.642 279.244 244.608 279.108 244.608 279.018L243.587 278.303C243.179 277.85 242.771 277.464 242.363 277.146C241.954 276.806 241.467 276.591 240.9 276.5L239.233 276.296C238.643 276.205 238.121 276.103 237.668 275.99C237.214 275.854 236.704 275.786 236.137 275.786H235.898L233.823 277.01L230.523 280.855C230.432 281.104 230.353 281.331 230.285 281.535C230.217 281.739 230.183 281.944 230.183 282.148L230.013 283.202L229.468 284.597V285.482C229.468 285.799 229.514 286.094 229.604 286.366C229.718 286.639 229.774 286.956 229.774 287.319C229.774 287.501 229.763 287.648 229.74 287.761C229.718 287.852 229.627 287.954 229.468 288.068V291.776ZM269.24 323.757L267.301 324.097H260.394C260.122 324.097 259.839 324.063 259.544 323.995C259.272 323.927 259.011 323.814 258.761 323.655C258.534 323.519 258.342 323.337 258.183 323.11C258.047 322.884 257.979 322.611 257.979 322.294C257.979 321.976 258.001 321.704 258.047 321.477C258.115 321.273 258.308 321.126 258.625 321.035L261.041 320.559C261.2 320.513 261.347 320.457 261.483 320.389C261.596 320.343 261.71 320.298 261.823 320.253C261.959 320.207 262.061 320.162 262.129 320.116C262.22 320.116 262.322 320.082 262.436 320.014C262.481 319.992 262.526 319.958 262.572 319.912C262.685 319.776 262.821 319.549 262.98 319.232C263.139 318.937 263.218 318.722 263.218 318.585C263.218 318.54 263.23 318.381 263.252 318.109C263.275 317.86 263.298 317.565 263.32 317.225C263.366 316.907 263.4 316.589 263.422 316.272C263.445 315.954 263.456 315.705 263.456 315.523V313.686C263.456 313.006 263.445 312.325 263.422 311.645C263.4 310.987 263.332 310.352 263.218 309.74L263.014 309.093V307.8L263.218 307.086L263.184 305.691C263.184 305.442 263.195 305.203 263.218 304.977C263.264 304.772 263.343 304.58 263.456 304.398C263.366 303.173 263.298 301.983 263.252 300.826C263.23 299.646 263.218 298.456 263.218 297.254V296.165L263.286 295.212C263.286 295.19 263.286 295.155 263.286 295.11C263.286 295.065 263.275 294.963 263.252 294.804C263.252 294.645 263.241 294.396 263.218 294.055C263.195 293.715 263.161 293.25 263.116 292.661C263.116 292.479 263.116 292.309 263.116 292.15C263.116 291.991 263.139 291.81 263.184 291.606L263.218 290.279C263.105 289.621 263.025 288.963 262.98 288.306C262.957 287.648 262.946 286.967 262.946 286.264C262.946 285.607 262.957 284.949 262.98 284.291C263.025 283.611 263.105 282.908 263.218 282.182L263.014 281.841C262.946 281.796 262.844 281.717 262.708 281.603C262.594 281.467 262.481 281.342 262.368 281.229C262.232 281.093 262.073 280.946 261.891 280.787C261.823 280.719 261.71 280.628 261.551 280.515C261.392 280.401 261.211 280.288 261.007 280.174C260.803 280.061 260.598 279.959 260.394 279.868C260.213 279.777 260.077 279.709 259.986 279.664C259.85 279.619 259.737 279.596 259.646 279.596C259.578 279.573 259.521 279.539 259.476 279.494C259.113 279.222 258.931 278.904 258.931 278.541C258.931 278.496 258.931 278.417 258.931 278.303C258.931 278.167 258.954 278.076 258.999 278.031C259.045 277.963 259.079 277.906 259.101 277.861C259.124 277.793 259.192 277.725 259.306 277.657L261.041 276.602C261.109 276.579 261.188 276.557 261.279 276.534C261.347 276.511 261.415 276.489 261.483 276.466C261.551 276.443 261.608 276.432 261.653 276.432L263.218 275.956L264.103 275.207C264.42 274.822 264.817 274.493 265.294 274.221C265.793 273.926 266.257 273.778 266.688 273.778C267.187 273.778 267.573 273.869 267.845 274.05C268.14 274.209 268.367 274.425 268.526 274.697C268.684 274.969 268.786 275.253 268.832 275.547C268.9 275.842 268.957 276.126 269.002 276.398C269.07 276.67 269.149 276.897 269.24 277.078C269.353 277.237 269.512 277.317 269.716 277.317L272.778 275.956L273.595 275.377C273.981 275.105 274.366 274.901 274.752 274.765C275.16 274.629 275.568 274.527 275.976 274.459C276.385 274.391 276.793 274.357 277.201 274.357C277.632 274.334 278.075 274.3 278.528 274.255L279.413 273.948C279.889 273.948 280.286 273.982 280.603 274.05C280.944 274.096 281.25 274.175 281.522 274.289C281.794 274.402 282.055 274.538 282.305 274.697C282.554 274.833 282.849 275.003 283.189 275.207C283.802 275.457 284.437 275.683 285.094 275.888C285.775 276.069 286.41 276.364 287 276.772L290.232 280.208L290.436 280.617C290.481 280.73 290.527 280.832 290.572 280.923C290.64 281.014 290.674 281.082 290.674 281.127L291.559 283.781L292.239 285.04C292.239 285.176 292.273 285.312 292.341 285.448L292.477 285.72V286.673C292.5 286.786 292.523 286.888 292.545 286.979C292.568 287.07 292.591 287.149 292.613 287.217C292.636 287.285 292.647 287.342 292.647 287.387L292.851 288.068C292.874 288.362 292.897 288.646 292.92 288.918C292.942 289.168 292.965 289.417 292.988 289.667C293.01 289.893 293.022 290.098 293.022 290.279C292.636 291.708 292.205 293.057 291.729 294.328C291.252 295.598 290.685 296.857 290.028 298.104L289.177 299.737L288.939 300.384C288.712 300.724 288.429 301.03 288.088 301.302C287.771 301.552 287.419 301.79 287.034 302.017C286.648 302.243 286.263 302.459 285.877 302.663C285.491 302.845 285.128 303.049 284.788 303.275L283.7 304.092C283.291 304.387 282.86 304.568 282.407 304.636C281.953 304.704 281.465 304.738 280.944 304.738H279.413C279.05 304.738 278.71 304.738 278.392 304.738C278.097 304.738 277.791 304.738 277.473 304.738C277.156 304.716 276.816 304.693 276.453 304.67C276.113 304.648 275.727 304.614 275.296 304.568L274.411 304.398L273.833 304.568H271.179C270.748 304.909 270.42 305.283 270.193 305.691C269.966 306.122 269.796 306.576 269.682 307.052C269.592 307.528 269.535 308.027 269.512 308.549C269.49 309.071 269.478 309.604 269.478 310.148V313.346C269.478 313.527 269.49 313.788 269.512 314.129C269.535 314.469 269.558 314.809 269.58 315.149C269.626 315.512 269.66 315.83 269.682 316.102C269.705 316.374 269.716 316.533 269.716 316.578L270.363 318.211V319.028L270.771 320.763C270.771 320.899 270.85 320.978 271.009 321.001C271.168 321.024 271.327 321.035 271.486 321.035L272.54 320.389H272.778L273.357 320.627H275.228C275.477 320.627 275.704 320.672 275.908 320.763C276.135 320.854 276.385 321.024 276.657 321.273C276.952 321.455 277.145 321.613 277.235 321.749C277.326 321.908 277.371 322.146 277.371 322.464L277.405 322.804C277.405 323.167 277.235 323.485 276.895 323.757C276.555 324.052 276.158 324.222 275.704 324.267L272.642 324.573C272.189 324.392 271.712 324.21 271.213 324.029C270.737 323.848 270.295 323.757 269.887 323.757H269.24ZM269.24 295.859C269.24 296.176 269.251 296.426 269.274 296.607C269.297 296.766 269.365 297.027 269.478 297.39C269.524 297.571 269.603 297.787 269.716 298.036C269.852 298.286 269.977 298.524 270.091 298.751C270.227 299 270.374 299.272 270.533 299.567C270.533 299.612 270.59 299.68 270.703 299.771C270.839 299.862 270.987 299.953 271.145 300.043C271.304 300.134 271.452 300.213 271.588 300.282C271.746 300.35 271.848 300.384 271.894 300.384L272.949 301.336L274.411 301.744H276.181L276.589 301.915C277.065 301.915 277.496 301.869 277.882 301.778C278.267 301.665 278.619 301.54 278.936 301.404C279.277 301.245 279.594 301.075 279.889 300.894C280.184 300.712 280.479 300.542 280.774 300.384C281.068 300.134 281.363 299.975 281.658 299.907C281.976 299.817 282.293 299.624 282.611 299.329C282.679 299.284 282.747 299.215 282.815 299.125C282.906 299.034 282.996 298.943 283.087 298.853L283.359 298.512L283.529 296.505L284.414 294.328L284.584 293.273V292.456L285.026 291.096V290.075C284.8 289.258 284.663 288.567 284.618 287.999C284.573 287.41 284.505 286.854 284.414 286.332C284.369 286.174 284.312 286.049 284.244 285.958C284.199 285.867 284.142 285.777 284.074 285.686C284.006 285.595 283.938 285.493 283.87 285.38C283.824 285.244 283.768 285.062 283.7 284.835C283.654 284.677 283.62 284.484 283.597 284.257C283.575 284.008 283.541 283.758 283.495 283.509C283.473 283.259 283.439 283.021 283.393 282.794C283.348 282.567 283.28 282.363 283.189 282.182C283.121 282.136 282.985 282.046 282.781 281.91C282.599 281.751 282.407 281.581 282.203 281.399C282.021 281.195 281.84 281.014 281.658 280.855C281.499 280.673 281.397 280.549 281.352 280.481L280.944 279.664C280.944 279.619 280.898 279.551 280.808 279.46C280.717 279.347 280.615 279.244 280.501 279.154C280.388 279.04 280.263 278.938 280.127 278.848C279.991 278.734 279.889 278.655 279.821 278.609L279.413 278.439H277.712L276.589 278.065H276.01C275.126 278.065 274.4 278.156 273.833 278.337C273.266 278.519 272.676 278.723 272.064 278.95L270.941 279.494C270.669 279.585 270.454 279.709 270.295 279.868C270.159 280.027 270.045 280.208 269.955 280.413C269.864 280.617 269.784 280.843 269.716 281.093C269.648 281.32 269.569 281.569 269.478 281.841L268.9 283.27C268.9 283.52 268.923 283.758 268.968 283.985C269.036 284.189 269.07 284.416 269.07 284.665L268.9 286.332C268.9 287.126 268.968 287.863 269.104 288.544C269.263 289.202 269.467 289.893 269.716 290.619V291.334L269.478 292.899V294.328L269.24 295.076V295.859Z" fill="white"/>
<defs>
<filter id="filter0_d_1860_17549" x="0.000188828" y="211.929" width="341.129" height="130.645" filterUnits="userSpaceOnUse" color-interpolation-filters="sRGB">
<feFlood flood-opacity="0" result="BackgroundImageFix"/>
<feColorMatrix in="SourceAlpha" type="matrix" values="0 0 0 0 0 0 0 0 0 0 0 0 0 0 0 0 0 0 127 0" result="hardAlpha"/>
<feOffset dy="-8.70968"/>
<feGaussianBlur stdDeviation="2.90323"/>
<feComposite in2="hardAlpha" operator="out"/>
<feColorMatrix type="matrix" values="0 0 0 0 0 0 0 0 0 0 0 0 0 0 0 0 0 0 0.15 0"/>
<feBlend mode="normal" in2="BackgroundImageFix" result="effect1_dropShadow_1860_17549"/>
<feBlend mode="normal" in="SourceGraphic" in2="effect1_dropShadow_1860_17549" result="shape"/>
</filter>
<filter id="filter1_i_1860_17549" x="5.80664" y="188.693" width="36.291" height="37.7407" filterUnits="userSpaceOnUse" color-interpolation-filters="sRGB">
<feFlood flood-opacity="0" result="BackgroundImageFix"/>
<feBlend mode="normal" in="SourceGraphic" in2="BackgroundImageFix" result="shape"/>
<feColorMatrix in="SourceAlpha" type="matrix" values="0 0 0 0 0 0 0 0 0 0 0 0 0 0 0 0 0 0 127 0" result="hardAlpha"/>
<feOffset dy="-1.45161"/>
<feGaussianBlur stdDeviation="2.90323"/>
<feComposite in2="hardAlpha" operator="arithmetic" k2="-1" k3="1"/>
<feColorMatrix type="matrix" values="0 0 0 0 0 0 0 0 0 0 0 0 0 0 0 0 0 0 0.25 0"/>
<feBlend mode="normal" in2="shape" result="effect1_innerShadow_1860_17549"/>
</filter>
</defs>
</svg>
