<svg width="342" height="360" viewBox="0 0 342 360" fill="none" xmlns="http://www.w3.org/2000/svg">
<path d="M44.7793 23.2258C44.7793 10.3985 55.1778 0 68.0051 0H224.269C228.298 0 232.145 1.67424 234.891 4.6222L266.876 38.961L299.272 73.7414C301.775 76.4282 303.166 79.9636 303.166 83.6354V336.774C303.166 349.601 292.768 360 279.941 360H68.0051C55.1778 360 44.7793 349.601 44.7793 336.774V23.2258Z" fill="#ECF0F3"/>
<path d="M233.493 3.62891L237.122 7.25794L298.815 73.3072L255.503 72.8364C242.584 72.696 232.263 62.0399 232.535 49.1231L233.493 3.62891Z" fill="#0485BD"/>
<g filter="url(#filter0_d_1860_17547)">
<path d="M5.80664 226.438H314.919C326.143 226.438 335.242 235.536 335.242 246.76V322.027C335.242 333.251 326.143 342.35 314.919 342.35H26.1292C14.9053 342.35 5.80664 333.251 5.80664 322.027V226.438Z" fill="#0485BD"/>
<path d="M5.80664 226.438H314.919C326.143 226.438 335.242 235.536 335.242 246.76V322.027C335.242 333.251 326.143 342.35 314.919 342.35H26.1292C14.9053 342.35 5.80664 333.251 5.80664 322.027V226.438Z" fill="black" fill-opacity="0.2"/>
</g>
<path d="M5.80859 208.29C5.80859 198.268 13.9325 190.145 23.9538 190.145H44.768V226.435H5.80859V208.29Z" fill="#0485BD"/>
<path d="M5.80859 208.29C5.80859 198.268 13.9325 190.145 23.9538 190.145H44.768V226.435H5.80859V208.29Z" fill="black" fill-opacity="0.2"/>
<g filter="url(#filter1_i_1860_17547)">
<path d="M5.80859 208.29C5.80859 198.268 13.9325 190.145 23.9538 190.145H44.768V226.435H23.9538C13.9325 226.435 5.80859 218.311 5.80859 208.29Z" fill="black" fill-opacity="0.25"/>
</g>
<path d="M177.782 144.62H234.976V201.814L177.782 195.035V144.62ZM177.782 136.994V86.5793L234.976 79.8008V136.994H177.782ZM170.156 136.994H112.963V93.3578L170.156 86.5793V136.994ZM170.156 144.62V195.035L112.963 188.257V144.62H170.156Z" fill="#0485BD"/>
<path d="M120.654 298.692C120.654 297.331 120.949 296.299 121.538 295.596C122.128 294.87 123.137 294.508 124.566 294.508C125.043 294.508 125.462 294.587 125.825 294.746C126.188 294.904 126.562 295.063 126.948 295.222C127.447 295.472 127.821 295.71 128.071 295.936C128.343 296.163 128.535 296.424 128.649 296.719C128.785 296.991 128.864 297.309 128.887 297.672C128.91 298.035 128.921 298.477 128.921 298.998V301.006C128.876 301.187 128.74 301.425 128.513 301.72C128.309 301.992 128.059 302.265 127.764 302.537C127.492 302.809 127.209 303.047 126.914 303.251C126.619 303.433 126.369 303.523 126.165 303.523C125.371 303.365 124.634 303.183 123.954 302.979C123.296 302.775 122.718 302.503 122.219 302.163C121.742 301.822 121.357 301.38 121.062 300.836C120.79 300.269 120.654 299.554 120.654 298.692ZM134.501 288.622C134.501 288.508 134.523 288.293 134.569 287.975C134.614 287.635 134.659 287.284 134.705 286.921C134.773 286.535 134.818 286.172 134.841 285.832C134.886 285.492 134.909 285.265 134.909 285.151C135 284.063 135.238 282.951 135.623 281.817C136.032 280.683 136.542 279.595 137.154 278.551C137.767 277.485 138.47 276.51 139.264 275.625C140.08 274.741 140.965 273.992 141.918 273.38C141.94 273.334 142.054 273.255 142.258 273.142C142.485 273.028 142.723 272.915 142.972 272.801C143.222 272.688 143.46 272.575 143.687 272.461C143.913 272.348 144.05 272.268 144.095 272.223C144.254 272.155 144.458 272.042 144.707 271.883C144.98 271.701 145.252 271.531 145.524 271.372C145.796 271.191 146.068 271.032 146.34 270.896C146.613 270.76 146.862 270.692 147.089 270.692C147.293 270.692 147.452 270.715 147.565 270.76C147.701 270.805 147.86 270.873 148.042 270.964C148.427 270.919 148.79 270.885 149.13 270.862C149.493 270.817 149.856 270.794 150.219 270.794C150.605 270.794 150.967 270.817 151.308 270.862C151.648 270.885 152.011 270.919 152.396 270.964C152.396 270.964 152.442 270.987 152.532 271.032C152.623 271.055 152.725 271.089 152.839 271.134C152.952 271.18 153.065 271.225 153.179 271.27C153.292 271.316 153.383 271.35 153.451 271.372C153.519 271.395 153.655 271.463 153.859 271.577C154.063 271.667 154.29 271.781 154.54 271.917C154.789 272.053 155.027 272.178 155.254 272.291C155.481 272.382 155.64 272.439 155.731 272.461C155.731 272.484 155.81 272.518 155.969 272.563C156.127 272.609 156.23 272.631 156.275 272.631L157.636 273.38L160.698 276.17C160.788 276.283 160.925 276.589 161.106 277.088C161.31 277.565 161.503 278.098 161.684 278.687C161.889 279.254 162.059 279.799 162.195 280.32C162.354 280.842 162.433 281.182 162.433 281.341C162.433 281.659 162.342 281.919 162.161 282.123C161.979 282.305 161.764 282.464 161.514 282.6C161.265 282.713 160.993 282.804 160.698 282.872C160.426 282.917 160.187 282.951 159.983 282.974H159.847C159.62 282.997 159.246 283.019 158.724 283.042C158.225 283.065 157.692 283.087 157.125 283.11C156.581 283.11 156.059 283.121 155.56 283.144C155.084 283.144 154.755 283.144 154.574 283.144C154.324 283.258 154.097 283.326 153.893 283.348C153.712 283.371 153.519 283.382 153.315 283.382L150.899 283.144C150.446 283.144 149.969 283.224 149.47 283.382C148.994 283.541 148.529 283.62 148.076 283.62C147.781 283.62 147.486 283.518 147.191 283.314C146.919 283.087 146.613 282.974 146.272 282.974C146.227 282.974 146.102 283.031 145.898 283.144C145.717 283.235 145.581 283.28 145.49 283.28L142.904 283.11C142.541 283.11 142.201 283.178 141.884 283.314C141.566 283.45 141.203 283.689 140.795 284.029C140.727 284.618 140.681 285.14 140.659 285.594C140.636 286.025 140.625 286.512 140.625 287.057C140.625 287.533 140.647 287.919 140.693 288.213C140.761 288.508 140.851 288.792 140.965 289.064C141.078 289.314 141.214 289.574 141.373 289.847C141.532 290.096 141.713 290.414 141.918 290.799L142.258 291.446C142.847 292.738 143.607 293.782 144.537 294.576C145.467 295.369 146.669 295.993 148.144 296.447C148.144 296.56 148.302 296.674 148.62 296.787C148.96 296.878 149.334 296.946 149.743 296.991C150.219 297.082 150.763 297.139 151.376 297.161C152.124 297.161 152.895 297.116 153.689 297.025C154.483 296.934 155.254 296.787 156.003 296.583C156.751 296.379 157.454 296.107 158.112 295.766C158.793 295.426 159.371 295.007 159.847 294.508H160.392C160.664 294.508 160.845 294.553 160.936 294.644C161.049 294.712 161.163 294.927 161.276 295.29C161.208 295.948 161.106 296.538 160.97 297.059C160.857 297.558 160.686 298.012 160.46 298.42C160.255 298.828 159.983 299.214 159.643 299.577C159.303 299.917 158.861 300.269 158.316 300.632C158.135 300.768 157.965 300.87 157.806 300.938C157.647 300.983 157.5 301.028 157.364 301.074C157.228 301.119 157.08 301.187 156.921 301.278C156.785 301.369 156.626 301.527 156.445 301.754L152.805 303.591L152.396 303.523L149.845 303.932C147.939 303.932 146.227 303.66 144.707 303.115C143.188 302.571 141.827 301.8 140.625 300.802C139.445 299.781 138.413 298.568 137.529 297.161C136.667 295.755 135.93 294.201 135.317 292.5C135.113 291.888 134.988 291.264 134.943 290.629C134.898 289.971 134.75 289.302 134.501 288.622ZM141.203 279.334C141.203 279.447 141.214 279.617 141.237 279.844C141.282 280.071 141.339 280.298 141.407 280.524C141.475 280.751 141.555 280.955 141.645 281.137C141.736 281.318 141.827 281.42 141.918 281.443H142.972L147.497 280.729L150.389 280.967C150.888 280.967 151.33 280.921 151.716 280.831C152.124 280.74 152.566 280.638 153.043 280.524C153.474 280.456 153.837 280.4 154.131 280.354C154.449 280.286 154.699 280.173 154.88 280.014C155.084 279.855 155.232 279.651 155.322 279.402C155.413 279.13 155.458 278.755 155.458 278.279C155.458 277.485 155.243 276.793 154.812 276.204C154.381 275.614 153.837 275.126 153.179 274.741C152.544 274.332 151.841 274.038 151.069 273.856C150.321 273.652 149.618 273.55 148.96 273.55C148.801 273.55 148.575 273.595 148.28 273.686C147.985 273.754 147.645 273.856 147.259 273.992C146.896 274.106 146.511 274.242 146.102 274.4C145.717 274.537 145.354 274.695 145.014 274.877C144.696 275.036 144.412 275.194 144.163 275.353C143.913 275.489 143.755 275.614 143.687 275.727L142.972 277.258C142.836 277.417 142.666 277.565 142.462 277.701C142.258 277.837 142.054 277.984 141.849 278.143C141.668 278.302 141.509 278.483 141.373 278.687C141.26 278.869 141.203 279.084 141.203 279.334ZM165.903 302.639C165.903 302.389 166.073 302.174 166.413 301.992C167.434 301.607 168.398 301.108 169.305 300.495C170.213 299.86 171.063 299.169 171.857 298.42C172.674 297.672 173.445 296.878 174.171 296.039C174.896 295.177 175.588 294.337 176.246 293.521C176.405 293.317 176.631 293.079 176.926 292.806C177.221 292.534 177.516 292.239 177.811 291.922C178.106 291.582 178.355 291.253 178.559 290.935C178.786 290.595 178.9 290.277 178.9 289.983C178.9 289.824 178.843 289.654 178.73 289.472C178.616 289.291 178.48 289.109 178.321 288.928C178.185 288.746 178.049 288.565 177.913 288.384C177.777 288.202 177.675 288.032 177.607 287.873C177.584 287.805 177.516 287.669 177.403 287.465C177.289 287.261 177.176 287.034 177.062 286.785C176.949 286.535 176.836 286.297 176.722 286.07C176.631 285.843 176.575 285.696 176.552 285.628C176.235 285.514 175.906 285.333 175.565 285.083C175.225 284.811 174.896 284.516 174.579 284.199C174.284 283.881 174 283.552 173.728 283.212C173.479 282.872 173.275 282.554 173.116 282.26C172.957 281.965 172.821 281.647 172.708 281.307C172.617 280.967 172.515 280.615 172.401 280.252C172.311 279.889 172.186 279.538 172.027 279.198C171.891 278.857 171.687 278.551 171.415 278.279C171.392 278.256 171.324 278.211 171.211 278.143C171.12 278.075 171.018 278.007 170.904 277.939C170.814 277.848 170.723 277.769 170.632 277.701C170.542 277.633 170.496 277.587 170.496 277.565C170.451 277.519 170.349 277.428 170.19 277.292C170.031 277.134 169.861 276.975 169.68 276.816C169.498 276.635 169.328 276.476 169.169 276.34C169.011 276.181 168.897 276.079 168.829 276.034C168.512 275.761 168.171 275.58 167.808 275.489C167.445 275.398 167.105 275.296 166.788 275.183C166.493 275.047 166.243 274.865 166.039 274.639C165.835 274.389 165.733 273.992 165.733 273.448C165.733 273.289 165.767 273.119 165.835 272.938C165.903 272.733 165.994 272.552 166.107 272.393C166.243 272.234 166.391 272.098 166.55 271.985C166.731 271.871 166.924 271.815 167.128 271.815C168.307 271.679 169.487 271.611 170.666 271.611C171.823 271.611 173.014 271.679 174.239 271.815C174.556 271.928 175.021 271.985 175.633 271.985C176.246 271.962 176.847 271.974 177.437 272.019C178.049 272.042 178.571 272.144 179.002 272.325C179.455 272.507 179.682 272.847 179.682 273.346C179.682 273.663 179.58 273.947 179.376 274.196C179.194 274.423 178.99 274.65 178.764 274.877C178.537 275.081 178.321 275.308 178.117 275.557C177.936 275.784 177.845 276.045 177.845 276.34C177.845 276.861 177.913 277.292 178.049 277.633C178.208 277.973 178.401 278.29 178.627 278.585C178.854 278.857 179.092 279.141 179.342 279.436C179.591 279.731 179.818 280.093 180.022 280.524C180.136 280.729 180.226 280.978 180.295 281.273C180.363 281.545 180.442 281.817 180.533 282.089C180.646 282.362 180.794 282.588 180.975 282.77C181.179 282.951 181.474 283.042 181.86 283.042C182.472 283.042 182.926 282.985 183.22 282.872C183.538 282.759 183.787 282.588 183.969 282.362C184.15 282.112 184.298 281.829 184.411 281.511C184.547 281.171 184.751 280.774 185.024 280.32C185.228 279.867 185.421 279.447 185.602 279.061C185.806 278.653 185.908 278.2 185.908 277.701C185.908 277.338 185.84 276.895 185.704 276.374C185.568 275.852 185.477 275.364 185.432 274.911C184.91 274.707 184.525 274.457 184.275 274.162C184.026 273.845 183.901 273.368 183.901 272.733C183.901 272.597 183.901 272.484 183.901 272.393C183.924 272.28 183.98 272.223 184.071 272.223C184.434 272.155 184.785 272.098 185.126 272.053C185.489 272.008 185.851 271.985 186.214 271.985C186.555 271.985 186.929 272.008 187.337 272.053C187.745 272.098 188.074 272.155 188.324 272.223C188.369 272.246 188.494 272.28 188.698 272.325C188.925 272.37 189.118 272.416 189.276 272.461C189.299 272.439 189.356 272.416 189.447 272.393C189.56 272.348 189.673 272.302 189.787 272.257C189.9 272.212 190.014 272.166 190.127 272.121C190.24 272.076 190.32 272.03 190.365 271.985C190.683 271.917 190.966 271.871 191.216 271.849C191.488 271.826 191.783 271.815 192.1 271.815C192.35 271.815 192.611 271.826 192.883 271.849C193.178 271.871 193.461 271.917 193.733 271.985C193.937 272.098 194.198 272.166 194.516 272.189C194.856 272.189 195.174 272.212 195.468 272.257C195.786 272.28 196.058 272.359 196.285 272.495C196.512 272.631 196.625 272.892 196.625 273.278C196.625 273.641 196.455 273.935 196.115 274.162C195.797 274.389 195.412 274.582 194.958 274.741C194.527 274.877 194.074 275.013 193.597 275.149C193.144 275.262 192.792 275.398 192.543 275.557C191.93 276.034 191.34 276.589 190.773 277.224C190.229 277.837 189.662 278.426 189.072 278.993C188.982 279.061 188.857 279.164 188.698 279.3C188.562 279.436 188.414 279.583 188.256 279.742C188.12 279.878 187.995 280.003 187.881 280.116C187.791 280.23 187.745 280.298 187.745 280.32C187.677 280.388 187.541 280.604 187.337 280.967C187.156 281.307 186.963 281.681 186.759 282.089C186.577 282.475 186.396 282.838 186.214 283.178C186.056 283.518 185.954 283.723 185.908 283.791C185.886 283.859 185.817 283.972 185.704 284.131C185.591 284.29 185.466 284.448 185.33 284.607C185.216 284.766 185.103 284.913 184.99 285.049C184.876 285.185 184.808 285.265 184.785 285.288V285.696C184.785 286.286 184.91 286.887 185.16 287.499C185.432 288.111 185.761 288.724 186.146 289.336C186.555 289.926 186.974 290.504 187.405 291.071C187.836 291.638 188.222 292.16 188.562 292.636C188.811 292.931 188.97 293.26 189.038 293.623C189.129 293.986 189.265 294.326 189.447 294.644L190.569 295.562C190.66 295.653 190.717 295.766 190.739 295.902C190.785 296.039 190.819 296.186 190.841 296.345C190.887 296.481 190.943 296.617 191.012 296.753C191.08 296.889 191.182 297.003 191.318 297.093C191.93 297.728 192.554 298.329 193.189 298.896C193.847 299.441 194.538 300.008 195.264 300.598C195.378 300.711 195.525 300.858 195.707 301.04C195.888 301.221 196.058 301.403 196.217 301.584C196.398 301.743 196.546 301.89 196.659 302.026C196.795 302.14 196.863 302.208 196.863 302.231V302.639C196.478 302.82 196.126 302.99 195.809 303.149C195.514 303.285 195.151 303.353 194.72 303.353L191.726 303.115L190.569 303.183C190.456 303.274 190.32 303.331 190.161 303.353C190.002 303.353 189.798 303.353 189.549 303.353C189.367 303.353 189.197 303.319 189.038 303.251C188.879 303.161 188.721 303.081 188.562 303.013C188.403 302.922 188.233 302.843 188.052 302.775C187.893 302.684 187.711 302.639 187.507 302.639L184.071 302.945C183.753 302.945 183.561 302.911 183.493 302.843C183.425 302.752 183.391 302.548 183.391 302.231V301.822C183.64 301.596 183.878 301.414 184.105 301.278C184.332 301.119 184.525 300.972 184.683 300.836C184.865 300.677 185.001 300.495 185.092 300.291C185.205 300.087 185.262 299.826 185.262 299.509C185.262 299.123 185.16 298.749 184.956 298.386C184.751 298.023 184.502 297.672 184.207 297.331C183.935 296.968 183.64 296.617 183.323 296.277C183.005 295.936 182.744 295.585 182.54 295.222C182.313 294.882 182.2 294.61 182.2 294.405C182.2 294.179 182.177 293.997 182.132 293.861C182.086 293.725 181.962 293.634 181.757 293.589C181.553 293.544 181.134 293.521 180.499 293.521H179.784C179.625 293.521 179.478 293.532 179.342 293.555C179.229 293.578 179.081 293.646 178.9 293.759C178.832 293.782 178.695 293.997 178.491 294.405C178.287 294.814 178.072 295.279 177.845 295.8C177.618 296.299 177.414 296.787 177.233 297.263C177.051 297.717 176.96 298.001 176.96 298.114C176.96 298.477 176.96 298.874 176.96 299.305C176.983 299.736 177.04 300.099 177.13 300.393C177.221 300.643 177.38 300.824 177.607 300.938C177.856 301.051 178.094 301.153 178.321 301.244C178.548 301.335 178.752 301.448 178.934 301.584C179.115 301.698 179.206 301.89 179.206 302.163C179.206 302.48 179.081 302.73 178.832 302.911C178.605 303.092 178.333 303.229 178.015 303.319C177.698 303.41 177.357 303.467 176.994 303.489C176.654 303.512 176.371 303.523 176.144 303.523H174C172.776 303.523 171.494 303.501 170.156 303.455C168.84 303.41 167.593 303.319 166.413 303.183C166.073 303.115 165.903 302.934 165.903 302.639ZM199.823 288.622C199.823 288.508 199.846 288.293 199.891 287.975C199.937 287.635 199.982 287.284 200.027 286.921C200.095 286.535 200.141 286.172 200.163 285.832C200.209 285.492 200.232 285.265 200.232 285.151C200.322 284.063 200.56 282.951 200.946 281.817C201.354 280.683 201.865 279.595 202.477 278.551C203.089 277.485 203.793 276.51 204.586 275.625C205.403 274.741 206.287 273.992 207.24 273.38C207.263 273.334 207.376 273.255 207.58 273.142C207.807 273.028 208.045 272.915 208.295 272.801C208.544 272.688 208.782 272.575 209.009 272.461C209.236 272.348 209.372 272.268 209.418 272.223C209.576 272.155 209.78 272.042 210.03 271.883C210.302 271.701 210.574 271.531 210.846 271.372C211.119 271.191 211.391 271.032 211.663 270.896C211.935 270.76 212.185 270.692 212.411 270.692C212.616 270.692 212.774 270.715 212.888 270.76C213.024 270.805 213.183 270.873 213.364 270.964C213.75 270.919 214.113 270.885 214.453 270.862C214.816 270.817 215.179 270.794 215.542 270.794C215.927 270.794 216.29 270.817 216.63 270.862C216.97 270.885 217.333 270.919 217.719 270.964C217.719 270.964 217.764 270.987 217.855 271.032C217.946 271.055 218.048 271.089 218.161 271.134C218.275 271.18 218.388 271.225 218.501 271.27C218.615 271.316 218.706 271.35 218.774 271.372C218.842 271.395 218.978 271.463 219.182 271.577C219.386 271.667 219.613 271.781 219.862 271.917C220.112 272.053 220.35 272.178 220.577 272.291C220.804 272.382 220.962 272.439 221.053 272.461C221.053 272.484 221.132 272.518 221.291 272.563C221.45 272.609 221.552 272.631 221.597 272.631L222.958 273.38L226.02 276.17C226.111 276.283 226.247 276.589 226.429 277.088C226.633 277.565 226.826 278.098 227.007 278.687C227.211 279.254 227.381 279.799 227.517 280.32C227.676 280.842 227.755 281.182 227.755 281.341C227.755 281.659 227.665 281.919 227.483 282.123C227.302 282.305 227.086 282.464 226.837 282.6C226.587 282.713 226.315 282.804 226.02 282.872C225.748 282.917 225.51 282.951 225.306 282.974H225.17C224.943 282.997 224.569 283.019 224.047 283.042C223.548 283.065 223.015 283.087 222.448 283.11C221.904 283.11 221.382 283.121 220.883 283.144C220.407 283.144 220.078 283.144 219.896 283.144C219.647 283.258 219.42 283.326 219.216 283.348C219.034 283.371 218.842 283.382 218.638 283.382L216.222 283.144C215.768 283.144 215.292 283.224 214.793 283.382C214.317 283.541 213.852 283.62 213.398 283.62C213.103 283.62 212.808 283.518 212.514 283.314C212.241 283.087 211.935 282.974 211.595 282.974C211.55 282.974 211.425 283.031 211.221 283.144C211.039 283.235 210.903 283.28 210.812 283.28L208.227 283.11C207.864 283.11 207.524 283.178 207.206 283.314C206.889 283.45 206.526 283.689 206.117 284.029C206.049 284.618 206.004 285.14 205.981 285.594C205.959 286.025 205.947 286.512 205.947 287.057C205.947 287.533 205.97 287.919 206.015 288.213C206.083 288.508 206.174 288.792 206.287 289.064C206.401 289.314 206.537 289.574 206.696 289.847C206.855 290.096 207.036 290.414 207.24 290.799L207.58 291.446C208.17 292.738 208.93 293.782 209.86 294.576C210.79 295.369 211.992 295.993 213.466 296.447C213.466 296.56 213.625 296.674 213.942 296.787C214.283 296.878 214.657 296.946 215.065 296.991C215.542 297.082 216.086 297.139 216.698 297.161C217.447 297.161 218.218 297.116 219.012 297.025C219.806 296.934 220.577 296.787 221.325 296.583C222.074 296.379 222.777 296.107 223.435 295.766C224.115 295.426 224.693 295.007 225.17 294.508H225.714C225.986 294.508 226.168 294.553 226.258 294.644C226.372 294.712 226.485 294.927 226.599 295.29C226.531 295.948 226.429 296.538 226.293 297.059C226.179 297.558 226.009 298.012 225.782 298.42C225.578 298.828 225.306 299.214 224.966 299.577C224.625 299.917 224.183 300.269 223.639 300.632C223.457 300.768 223.287 300.87 223.128 300.938C222.97 300.983 222.822 301.028 222.686 301.074C222.55 301.119 222.403 301.187 222.244 301.278C222.108 301.369 221.949 301.527 221.768 301.754L218.127 303.591L217.719 303.523L215.167 303.932C213.262 303.932 211.55 303.66 210.03 303.115C208.51 302.571 207.149 301.8 205.947 300.802C204.768 299.781 203.736 298.568 202.851 297.161C201.989 295.755 201.252 294.201 200.64 292.5C200.436 291.888 200.311 291.264 200.266 290.629C200.22 289.971 200.073 289.302 199.823 288.622ZM206.526 279.334C206.526 279.447 206.537 279.617 206.56 279.844C206.605 280.071 206.662 280.298 206.73 280.524C206.798 280.751 206.877 280.955 206.968 281.137C207.059 281.318 207.149 281.42 207.24 281.443H208.295L212.82 280.729L215.712 280.967C216.211 280.967 216.653 280.921 217.038 280.831C217.447 280.74 217.889 280.638 218.365 280.524C218.796 280.456 219.159 280.4 219.454 280.354C219.772 280.286 220.021 280.173 220.203 280.014C220.407 279.855 220.554 279.651 220.645 279.402C220.736 279.13 220.781 278.755 220.781 278.279C220.781 277.485 220.565 276.793 220.135 276.204C219.704 275.614 219.159 275.126 218.501 274.741C217.866 274.332 217.163 274.038 216.392 273.856C215.644 273.652 214.94 273.55 214.283 273.55C214.124 273.55 213.897 273.595 213.602 273.686C213.307 273.754 212.967 273.856 212.582 273.992C212.219 274.106 211.833 274.242 211.425 274.4C211.039 274.537 210.676 274.695 210.336 274.877C210.019 275.036 209.735 275.194 209.486 275.353C209.236 275.489 209.077 275.614 209.009 275.727L208.295 277.258C208.159 277.417 207.989 277.565 207.784 277.701C207.58 277.837 207.376 277.984 207.172 278.143C206.991 278.302 206.832 278.483 206.696 278.687C206.582 278.869 206.526 279.084 206.526 279.334Z" fill="white"/>
<defs>
<filter id="filter0_d_1860_17547" x="0.000188828" y="211.921" width="341.048" height="130.43" filterUnits="userSpaceOnUse" color-interpolation-filters="sRGB">
<feFlood flood-opacity="0" result="BackgroundImageFix"/>
<feColorMatrix in="SourceAlpha" type="matrix" values="0 0 0 0 0 0 0 0 0 0 0 0 0 0 0 0 0 0 127 0" result="hardAlpha"/>
<feOffset dy="-8.70968"/>
<feGaussianBlur stdDeviation="2.90323"/>
<feComposite in2="hardAlpha" operator="out"/>
<feColorMatrix type="matrix" values="0 0 0 0 0 0 0 0 0 0 0 0 0 0 0 0 0 0 0.15 0"/>
<feBlend mode="normal" in2="BackgroundImageFix" result="effect1_dropShadow_1860_17547"/>
<feBlend mode="normal" in="SourceGraphic" in2="effect1_dropShadow_1860_17547" result="shape"/>
</filter>
<filter id="filter1_i_1860_17547" x="5.80859" y="188.693" width="38.959" height="37.7407" filterUnits="userSpaceOnUse" color-interpolation-filters="sRGB">
<feFlood flood-opacity="0" result="BackgroundImageFix"/>
<feBlend mode="normal" in="SourceGraphic" in2="BackgroundImageFix" result="shape"/>
<feColorMatrix in="SourceAlpha" type="matrix" values="0 0 0 0 0 0 0 0 0 0 0 0 0 0 0 0 0 0 127 0" result="hardAlpha"/>
<feOffset dy="-1.45161"/>
<feGaussianBlur stdDeviation="2.90323"/>
<feComposite in2="hardAlpha" operator="arithmetic" k2="-1" k3="1"/>
<feColorMatrix type="matrix" values="0 0 0 0 0 0 0 0 0 0 0 0 0 0 0 0 0 0 0.25 0"/>
<feBlend mode="normal" in2="shape" result="effect1_innerShadow_1860_17547"/>
</filter>
</defs>
</svg>
