<svg width="342" height="360" viewBox="0 0 342 360" fill="none" xmlns="http://www.w3.org/2000/svg">
<path d="M42.1133 23.2278C42.1133 10.4005 52.5118 0.00195312 65.3391 0.00195312H221.603C225.632 0.00195312 229.479 1.67619 232.225 4.62415L264.21 38.963L296.606 73.7434C299.109 76.4302 300.5 79.9655 300.5 83.6373V336.776C300.5 349.603 290.102 360.002 277.275 360.002H65.3391C52.5118 360.002 42.1133 349.603 42.1133 336.776V23.2278Z" fill="#ECF0F3"/>
<path d="M230.803 3.63086L234.432 7.25989L296.126 73.3091L252.814 72.8383C239.895 72.6979 229.573 62.0419 229.845 49.125L230.803 3.63086Z" fill="#356BC4"/>
<g filter="url(#filter0_d_1875_18300)">
<path d="M5.80469 226.444H314.998C326.222 226.444 335.321 235.543 335.321 246.767V322.251C335.321 333.475 326.222 342.573 314.998 342.573H26.1272C14.9034 342.573 5.80469 333.475 5.80469 322.251V226.444Z" fill="#4286F5"/>
<path d="M5.80469 226.444H314.998C326.222 226.444 335.321 235.543 335.321 246.767V322.251C335.321 333.475 326.222 342.573 314.998 342.573H26.1272C14.9034 342.573 5.80469 333.475 5.80469 322.251V226.444Z" fill="black" fill-opacity="0.2"/>
</g>
<path d="M5.80469 208.292C5.80469 198.27 13.9286 190.146 23.9499 190.146H42.095V226.437H5.80469V208.292Z" fill="#4286F5"/>
<path d="M5.80469 208.292C5.80469 198.27 13.9286 190.146 23.9499 190.146H42.095V226.437H5.80469V208.292Z" fill="black" fill-opacity="0.2"/>
<g filter="url(#filter1_i_1875_18300)">
<path d="M5.80469 208.292C5.80469 198.27 13.9286 190.146 23.9499 190.146H42.095V226.437H23.9498C13.9285 226.437 5.80469 218.313 5.80469 208.292Z" fill="black" fill-opacity="0.25"/>
</g>
<g opacity="0.5">
<circle cx="171.305" cy="140.806" r="57" fill="white"/>
<circle cx="171.305" cy="140.806" r="56.5" stroke="#B4B4B4" stroke-opacity="0.25"/>
</g>
<path d="M151.902 107.79L151.902 173.436C151.903 173.559 151.939 173.678 152.007 173.78C152.075 173.882 152.172 173.961 152.285 174.009C152.398 174.056 152.523 174.068 152.643 174.045C152.763 174.022 152.874 173.963 152.961 173.877L186.377 140.613L152.961 107.349C152.874 107.263 152.763 107.205 152.643 107.181C152.523 107.158 152.398 107.171 152.285 107.218C152.172 107.265 152.075 107.344 152.007 107.446C151.939 107.548 151.903 107.668 151.902 107.79Z" fill="#4286F5"/>
<path d="M195.568 129.122L154.203 106.141L154.18 106.128C151.902 106.137 151.389 107.939 151.909 108.439L186.375 140.613L195.568 129.122Z" fill="#009343"/>
<path d="M151.892 172.789C151.369 173.289 151.905 175.087 154.179 175.1L154.202 175.087L195.565 152.104L186.372 140.612L151.892 172.789Z" fill="#E93D33"/>
<path d="M209.563 137.021L195.572 129.121L186.379 140.613L195.572 152.104L209.563 144.203C212.362 142.656 212.362 138.568 209.563 137.021Z" fill="#FFC519"/>
<path d="M48.8765 302.867C48.8765 302.731 48.9219 302.595 49.0126 302.459C49.1033 302.3 49.2054 302.153 49.3188 302.017C49.4549 301.881 49.5796 301.756 49.693 301.642C49.8291 301.529 49.9312 301.438 49.9992 301.37H50.8838C51.3828 301.37 51.8705 301.359 52.3468 301.336C52.8458 301.291 53.3107 301.211 53.7417 301.098C54.1953 300.985 54.6149 300.792 55.0005 300.52C55.4088 300.247 55.783 299.873 56.1232 299.397L57.1779 298.104C57.2913 297.991 57.3594 297.889 57.3821 297.798C57.4047 297.684 57.4161 297.503 57.4161 297.254L57.1779 292.797C57.1779 292.071 57.2913 291.379 57.5181 290.721C57.7676 290.064 57.8924 289.417 57.8924 288.782C57.8924 288.079 57.7676 287.353 57.5181 286.605C57.2913 285.856 57.1779 285.096 57.1779 284.325C57.1779 284.144 57.2006 283.996 57.246 283.883C57.314 283.747 57.3707 283.622 57.4161 283.509C57.4841 283.372 57.5408 283.236 57.5862 283.1C57.6542 282.964 57.6883 282.805 57.6883 282.624L57.348 280.208L57.6883 276.976V275.649L57.1779 274.731C57.1326 274.164 57.0759 273.619 57.0078 273.098C56.9624 272.644 56.9171 272.191 56.8717 271.737C56.8264 271.283 56.7923 270.909 56.7697 270.614L57.246 269.015C57.246 268.698 57.1779 268.176 57.0418 267.45C56.9057 266.724 56.7243 265.976 56.4975 265.205C56.2707 264.433 56.0212 263.73 55.749 263.095C55.4995 262.46 55.25 262.075 55.0005 261.939C54.6149 261.825 54.0819 261.723 53.4015 261.632C52.721 261.519 52.0406 261.36 51.3601 261.156C50.7024 260.929 50.124 260.634 49.625 260.271C49.126 259.909 48.8765 259.41 48.8765 258.774C48.8765 258.57 48.9332 258.468 49.0466 258.468C49.4095 258.468 49.7271 258.434 49.9992 258.366C50.2714 258.298 50.5209 258.219 50.7477 258.128C50.9972 258.037 51.2354 257.958 51.4622 257.89C51.7117 257.822 51.9839 257.788 52.2787 257.788L55.0005 258.128L60.4781 257.584L61.6008 257.958L63.37 257.584C64.0277 257.493 64.6741 257.436 65.3092 257.414C65.9443 257.368 66.5907 257.346 67.2485 257.346C67.8609 257.346 68.4733 257.368 69.0857 257.414C69.6981 257.436 70.2991 257.493 70.8889 257.584C71.3652 257.833 71.8415 257.981 72.3178 258.026C72.8168 258.049 73.3158 258.06 73.8148 258.06C74.3591 258.06 74.8921 258.083 75.4138 258.128C75.9355 258.173 76.4458 258.253 76.9448 258.366C77.3531 258.434 77.8861 258.627 78.5438 258.945C79.2016 259.239 79.8707 259.602 80.5512 260.033C81.2543 260.442 81.8894 260.895 82.4564 261.394C83.0461 261.893 83.4657 262.369 83.7152 262.823C83.9194 263.345 84.1008 263.912 84.2596 264.524C84.441 265.137 84.5998 265.76 84.7359 266.395C84.872 267.008 84.974 267.632 85.0421 268.267C85.1328 268.879 85.1782 269.457 85.1782 270.002C85.1782 270.274 85.1668 270.637 85.1442 271.09C85.1442 271.544 85.1101 272.009 85.0421 272.485C84.9967 272.962 84.9287 273.404 84.838 273.812C84.7472 274.221 84.6338 274.527 84.4977 274.731L83.4771 276.024L83.2389 277.317C83.1255 277.589 82.8647 277.963 82.4564 278.439C82.0708 278.893 81.6285 279.369 81.1295 279.868C80.6532 280.345 80.1769 280.787 79.7006 281.195C79.247 281.603 78.8841 281.864 78.6119 281.978C78.4078 282.091 78.1583 282.227 77.8634 282.386C77.5685 282.522 77.2623 282.669 76.9448 282.828C76.6273 282.987 76.3211 283.134 76.0262 283.27C75.754 283.384 75.5272 283.463 75.3458 283.509L72.9642 283.679L71.4672 284.155C71.1951 284.155 70.8662 284.121 70.4806 284.053C70.095 283.962 69.7208 283.837 69.3579 283.679C69.0176 283.52 68.7114 283.35 68.4393 283.168C68.1898 282.964 68.065 282.737 68.065 282.488C68.065 282.125 68.3032 281.853 68.7795 281.671L72.7261 280.855C72.7487 280.741 72.8281 280.651 72.9642 280.583C73.123 280.492 73.2591 280.424 73.3725 280.379C74.1663 279.97 74.9035 279.437 75.5839 278.779C76.2644 278.099 76.8541 277.351 77.3531 276.534C77.8521 275.717 78.2376 274.856 78.5098 273.948C78.8047 273.018 78.9521 272.077 78.9521 271.124C78.9068 270.943 78.8387 270.784 78.748 270.648C78.6799 270.489 78.6346 270.353 78.6119 270.24C78.6119 270.217 78.6006 270.195 78.5779 270.172C78.5552 270.127 78.5438 270.058 78.5438 269.968C78.4531 269.333 78.3511 268.596 78.2376 267.756C78.1242 266.894 77.9541 266.157 77.7273 265.545C77.6366 265.318 77.3871 265.012 76.9788 264.626C76.5932 264.218 76.1396 263.787 75.6179 263.333C75.1189 262.88 74.5973 262.438 74.0529 262.007C73.5312 261.553 73.089 261.167 72.7261 260.85L69.6981 260.135H67.0103C66.8062 260.249 66.5113 260.351 66.1258 260.442C65.7629 260.532 65.3999 260.646 65.037 260.782C64.6968 260.918 64.3906 261.111 64.1184 261.36C63.8463 261.587 63.7102 261.904 63.7102 262.313V266.259C63.869 266.463 63.9597 266.622 63.9824 266.736C64.005 266.849 64.0164 267.042 64.0164 267.314L63.7102 268.607C63.7102 268.652 63.7555 268.8 63.8463 269.049C63.9597 269.276 64.0164 269.446 64.0164 269.559V270.138L63.404 271.907L64.1865 275.854C64.1865 276.058 64.1751 276.228 64.1525 276.364C64.1525 276.477 64.1071 276.659 64.0164 276.908V282.148C64.1071 282.352 64.1525 282.545 64.1525 282.726C64.1751 282.885 64.1865 283.066 64.1865 283.27L63.7102 285.244C63.7102 286.083 63.8236 286.922 64.0504 287.761C64.2772 288.578 64.4133 289.417 64.4587 290.279C64.4813 290.914 64.4927 291.572 64.4927 292.252C64.4927 292.91 64.504 293.579 64.5267 294.26C64.5494 294.917 64.5948 295.575 64.6628 296.233C64.7308 296.868 64.8669 297.492 65.0711 298.104C65.0937 298.263 65.3432 298.512 65.8196 298.853C66.3185 299.193 66.8742 299.544 67.4866 299.907C68.099 300.247 68.6774 300.554 69.2218 300.826C69.7888 301.075 70.1517 301.2 70.3105 301.2H71.3652C71.6147 301.2 71.7961 301.211 71.9095 301.234C72.0229 301.234 72.159 301.279 72.3178 301.37C72.3178 301.393 72.3632 301.45 72.4539 301.54C72.5673 301.631 72.692 301.744 72.8281 301.881C72.9642 301.994 73.1003 302.107 73.2364 302.221C73.3952 302.334 73.5312 302.425 73.6447 302.493C73.69 302.606 73.724 302.697 73.7467 302.765C73.7921 302.833 73.8148 302.924 73.8148 303.037V303.139C73.6106 303.593 73.2931 303.945 72.8621 304.194C72.4539 304.444 72.0003 304.625 71.5013 304.738C71.0023 304.852 70.4919 304.92 69.9703 304.943C69.4486 304.965 68.9723 304.977 68.5413 304.977L65.9556 304.5C65.7061 304.5 65.4567 304.557 65.2072 304.67C64.9803 304.761 64.7308 304.806 64.4587 304.806L61.6348 304.024H61.2266C61.0451 304.024 60.9317 304.047 60.8863 304.092C59.911 304.205 58.9357 304.387 57.9604 304.636C56.9851 304.863 55.9418 304.977 54.8304 304.977C54.3768 304.977 53.8097 304.965 53.1293 304.943C52.4715 304.92 51.8251 304.84 51.19 304.704C50.5549 304.568 50.0106 304.364 49.557 304.092C49.1033 303.797 48.8765 303.389 48.8765 302.867ZM88.6825 305.215C88.6144 305.215 88.535 305.215 88.4443 305.215C88.3536 305.215 88.2515 305.192 88.1381 305.147H87.4236L87.0154 304.806V303.207L87.7979 301.983C88.002 301.892 88.2402 301.847 88.5123 301.847C88.7845 301.824 88.932 301.813 88.9546 301.813C89.0454 301.813 89.2495 301.801 89.567 301.778C89.9073 301.733 90.1794 301.665 90.3836 301.574C90.9052 301.688 91.2795 301.744 91.5063 301.744C91.7785 301.54 92.0393 301.268 92.2888 300.928C92.5383 300.588 92.7538 300.213 92.9352 299.805C93.1394 299.397 93.2868 298.989 93.3775 298.58C93.4909 298.172 93.5476 297.798 93.5476 297.458V293.681C93.5476 292.887 93.5476 292.116 93.5476 291.368C93.5703 290.597 93.6157 290.052 93.6837 289.735C93.6157 289.122 93.5703 288.521 93.5476 287.931C93.5249 287.319 93.4909 286.707 93.4456 286.094L93.2074 282.556C93.1394 281.49 93.0827 280.424 93.0373 279.358C92.9919 278.292 92.9692 277.214 92.9692 276.126C92.9692 276.012 92.9806 275.933 93.0033 275.888C93.026 275.82 93.128 275.729 93.3095 275.615C93.2187 275.253 93.162 274.924 93.1394 274.629C93.1394 274.334 93.1394 274.016 93.1394 273.676C93.1394 273.359 93.1394 273.041 93.1394 272.724C93.162 272.383 93.2187 272.032 93.3095 271.669C93.128 271.555 92.9806 271.385 92.8672 271.159C92.7765 270.932 92.7311 270.626 92.7311 270.24C92.7311 269.945 92.8218 269.707 93.0033 269.525C93.1847 269.344 93.2754 269.072 93.2754 268.709C93.2754 268.21 93.2641 267.677 93.2414 267.11C93.2187 266.543 93.128 265.964 92.9692 265.375C92.8105 264.581 92.7311 263.946 92.7311 263.47C92.7311 262.993 92.7084 262.483 92.663 261.939C92.527 261.734 92.2888 261.53 91.9486 261.326C91.631 261.122 91.2795 260.918 90.8939 260.714C90.531 260.487 90.1794 260.26 89.8392 260.033C89.499 259.784 89.2608 259.523 89.1247 259.251C88.9433 258.888 88.8185 258.672 88.7505 258.604C88.7051 258.514 88.6598 258.412 88.6144 258.298C88.6144 258.139 88.6598 257.913 88.7505 257.618C88.8412 257.3 89.0113 257.119 89.2608 257.073C89.7371 256.96 90.2248 256.824 90.7238 256.665C91.2228 256.506 91.597 256.404 91.8465 256.359C91.8919 256.359 92.0053 256.325 92.1867 256.257C92.3909 256.166 92.595 256.075 92.7991 255.985C93.026 255.871 93.2301 255.769 93.4115 255.678C93.6157 255.565 93.7404 255.474 93.7858 255.406C94.2167 255.293 94.6137 255.168 94.9766 255.032C95.3621 254.896 95.7364 254.771 96.0993 254.658C96.4622 254.544 96.8364 254.442 97.222 254.352C97.6303 254.261 98.0612 254.204 98.5149 254.181C98.7417 254.181 98.9345 254.193 99.0932 254.215C99.252 254.238 99.3314 254.329 99.3314 254.488C99.4221 255.077 99.4788 255.656 99.5015 256.223C99.5469 256.767 99.5696 257.3 99.5696 257.822C99.5696 258.344 99.5469 258.877 99.5015 259.421C99.4788 259.943 99.4221 260.453 99.3314 260.952C99.1499 261.428 99.0365 261.939 98.9912 262.483C98.9458 263.027 98.9231 263.572 98.9231 264.116L98.9572 265.885L98.8551 268.233C98.9458 268.414 99.0025 268.596 99.0252 268.777C99.0706 268.958 99.0932 269.197 99.0932 269.491C99.0932 269.945 99.0819 270.274 99.0592 270.478C99.0592 270.682 99.0252 270.841 98.9572 270.954L99.1953 273.132C99.1046 273.495 98.9572 273.869 98.753 274.255C98.5489 274.617 98.3901 275.026 98.2767 275.479C98.2767 275.729 98.3334 275.956 98.4468 276.16C98.5602 276.341 98.6396 276.591 98.685 276.908C98.7757 277.793 98.8211 278.643 98.8211 279.46C98.8437 280.276 98.8778 281.127 98.9231 282.012C98.8097 282.533 98.6736 282.998 98.5149 283.407C98.3788 283.792 98.3107 284.189 98.3107 284.597V285.142C98.3334 285.618 98.3674 286.06 98.4128 286.468C98.4582 286.854 98.5035 287.24 98.5489 287.625C98.6169 288.011 98.6736 288.419 98.719 288.85C98.7644 289.258 98.8097 289.735 98.8551 290.279C98.8551 290.869 98.8211 291.379 98.753 291.81C98.7077 292.241 98.6623 292.763 98.6169 293.375C98.5942 293.511 98.5602 293.704 98.5149 293.953C98.4922 294.203 98.4582 294.464 98.4128 294.736C98.3901 294.985 98.3674 295.224 98.3448 295.45C98.3221 295.677 98.3107 295.836 98.3107 295.927V295.961C98.3334 296.074 98.3788 296.301 98.4468 296.641C98.5149 296.981 98.5829 297.333 98.651 297.696C98.719 298.059 98.787 298.399 98.8551 298.716C98.9231 299.034 98.9572 299.238 98.9572 299.329L99.1953 299.839H99.2634C99.3314 299.839 99.3768 299.873 99.3994 299.941C99.4221 300.009 99.4561 300.055 99.5015 300.077C99.5922 300.168 99.6489 300.27 99.6716 300.384C99.6943 300.474 99.7397 300.576 99.8077 300.69C99.8984 300.78 100.023 300.883 100.182 300.996C100.363 301.087 100.647 301.177 101.033 301.268C101.463 301.54 101.792 301.676 102.019 301.676C102.087 301.676 102.144 301.676 102.189 301.676C102.235 301.676 102.314 301.654 102.427 301.608C102.609 301.654 102.824 301.688 103.074 301.71C103.323 301.733 103.584 301.778 103.856 301.847C104.129 301.892 104.401 301.971 104.673 302.085C104.945 302.198 105.183 302.357 105.387 302.561C105.501 302.652 105.569 302.776 105.591 302.935C105.614 303.071 105.625 303.264 105.625 303.514V304.67C105.625 304.829 105.603 304.977 105.557 305.113C105.512 305.249 105.421 305.339 105.285 305.385C105.104 305.339 104.911 305.317 104.707 305.317C104.525 305.317 104.344 305.317 104.163 305.317C104.004 305.317 103.834 305.305 103.652 305.283C103.471 305.283 103.244 305.26 102.972 305.215L101.917 305.079C101.872 305.079 101.77 305.067 101.611 305.045C101.475 305.045 101.316 305.033 101.135 305.011C100.976 305.011 100.817 304.999 100.658 304.977C100.522 304.977 100.431 304.977 100.386 304.977L98.719 304.874C98.6963 304.874 98.6736 304.863 98.651 304.84C98.6283 304.84 98.6056 304.84 98.5829 304.84C98.5829 304.818 98.5716 304.806 98.5489 304.806C98.0499 304.829 97.5963 304.863 97.188 304.909C96.8024 304.954 96.4282 304.999 96.0653 305.045C95.725 305.113 95.3735 305.169 95.0106 305.215C94.6704 305.283 94.2848 305.317 93.8538 305.317C93.3322 305.271 92.7651 305.215 92.1527 305.147C91.563 305.079 91.0073 305.045 90.4856 305.045L88.6825 305.215ZM122.535 300.962C122.444 301.007 122.296 301.143 122.092 301.37C121.911 301.574 121.763 301.676 121.65 301.676L120.357 302.323C120.312 302.346 120.232 302.402 120.119 302.493C120.028 302.561 119.915 302.652 119.779 302.765C119.665 302.856 119.563 302.947 119.473 303.037C119.382 303.105 119.325 303.139 119.302 303.139C119.257 303.162 119.166 303.185 119.03 303.207C118.917 303.23 118.781 303.253 118.622 303.275C118.486 303.298 118.35 303.321 118.214 303.343C118.1 303.343 118.01 303.343 117.942 303.343C117.76 303.389 117.59 303.468 117.431 303.582C117.295 303.695 117.148 303.831 116.989 303.99C116.853 304.126 116.694 304.273 116.513 304.432C116.331 304.568 116.127 304.693 115.9 304.806H112.668C112.555 304.806 112.396 304.784 112.192 304.738C112.01 304.693 111.806 304.636 111.579 304.568C111.375 304.5 111.171 304.421 110.967 304.33C110.763 304.239 110.604 304.16 110.491 304.092C110.491 304.047 110.423 303.945 110.287 303.786C110.173 303.604 110.105 303.457 110.082 303.343C110.037 303.298 110.003 303.241 109.98 303.173C109.912 303.105 109.878 303.037 109.878 302.969L108.96 302.085C108.778 301.722 108.619 301.268 108.483 300.724C108.37 300.157 108.313 299.692 108.313 299.329L108.551 298.614L108.313 297.9V297.492C108.313 297.378 108.336 297.231 108.381 297.049C108.449 296.845 108.517 296.652 108.585 296.471C108.653 296.267 108.722 296.085 108.79 295.927C108.858 295.745 108.914 295.62 108.96 295.552C108.982 295.53 109.062 295.45 109.198 295.314C109.357 295.155 109.527 294.985 109.708 294.804C109.89 294.6 110.048 294.418 110.184 294.26C110.343 294.101 110.445 293.987 110.491 293.919C110.513 293.919 110.593 293.84 110.729 293.681C110.888 293.522 110.967 293.42 110.967 293.375L111.035 293.239C111.058 293.194 111.069 293.148 111.069 293.103C111.455 292.853 111.829 292.592 112.192 292.32C112.555 292.025 112.963 291.776 113.417 291.572C113.439 291.549 113.598 291.481 113.893 291.368C114.21 291.232 114.551 291.096 114.914 290.959C115.299 290.801 115.673 290.665 116.036 290.551C116.399 290.438 116.671 290.358 116.853 290.313C117.08 290.2 117.318 290.052 117.567 289.871C117.817 289.689 118.055 289.519 118.282 289.36C118.531 289.202 118.758 289.066 118.962 288.952C119.166 288.816 119.336 288.748 119.473 288.748H120.357C120.38 288.748 120.448 288.714 120.561 288.646C120.607 288.623 120.663 288.589 120.731 288.544C120.822 288.521 121.038 288.487 121.378 288.442C121.741 288.396 121.979 288.374 122.092 288.374L122.535 287.795C122.693 287.705 122.852 287.637 123.011 287.591C123.17 287.523 123.317 287.455 123.453 287.387C123.589 287.319 123.703 287.228 123.793 287.115C123.907 286.979 123.997 286.797 124.066 286.571C124.224 286.094 124.326 285.595 124.372 285.074C124.44 284.529 124.474 284.019 124.474 283.543V282.794C124.474 282.749 124.406 282.624 124.27 282.42C124.134 282.216 124.066 282.068 124.066 281.978L123.657 280.242L122.909 279.324L122.535 278.609C122.444 278.564 122.353 278.451 122.262 278.269C122.172 278.088 122.115 277.94 122.092 277.827C122.047 277.691 121.877 277.566 121.582 277.453C121.287 277.317 120.958 277.203 120.595 277.112C120.232 276.999 119.869 276.92 119.507 276.874C119.166 276.806 118.928 276.772 118.792 276.772C118.747 276.772 118.565 276.772 118.248 276.772C117.953 276.749 117.703 276.738 117.499 276.738C117.295 276.738 117.012 276.761 116.649 276.806C116.308 276.829 115.98 276.897 115.662 277.01C115.345 277.101 115.061 277.237 114.811 277.419C114.585 277.6 114.471 277.838 114.471 278.133V278.439C114.494 278.485 114.539 278.587 114.607 278.745C114.675 278.882 114.743 279.04 114.811 279.222C114.88 279.381 114.936 279.539 114.982 279.698C115.05 279.834 115.084 279.925 115.084 279.97C115.084 280.061 115.05 280.197 114.982 280.379C114.936 280.537 114.891 280.707 114.846 280.889C114.687 281.615 114.471 282.17 114.199 282.556C113.927 282.942 113.496 283.316 112.906 283.679L112.498 283.985C112.407 284.053 112.328 284.121 112.26 284.189H109.674C109.47 284.189 109.3 284.11 109.164 283.951C109.028 283.792 108.914 283.611 108.824 283.407C108.733 283.18 108.665 282.964 108.619 282.76C108.574 282.533 108.551 282.363 108.551 282.25C108.551 282.114 108.574 281.932 108.619 281.705C108.665 281.479 108.733 281.263 108.824 281.059C108.914 280.832 109.005 280.628 109.096 280.447C109.209 280.242 109.323 280.084 109.436 279.97C109.504 279.811 109.583 279.675 109.674 279.562C109.72 279.449 109.765 279.358 109.81 279.29C109.878 279.222 109.924 279.176 109.946 279.154L110.491 278.609C110.99 278.292 111.409 277.963 111.749 277.623C112.09 277.283 112.487 276.92 112.94 276.534L115.322 274.969C115.549 274.765 115.753 274.617 115.934 274.527C116.138 274.413 116.342 274.323 116.547 274.255C116.751 274.186 116.955 274.13 117.159 274.084C117.386 274.039 117.647 273.96 117.942 273.846C117.964 273.846 118.021 273.824 118.112 273.778C118.225 273.733 118.338 273.688 118.452 273.642C118.565 273.574 118.679 273.517 118.792 273.472C118.905 273.427 118.985 273.393 119.03 273.37C119.144 273.347 119.359 273.302 119.677 273.234C120.017 273.166 120.368 273.098 120.731 273.03C121.117 272.962 121.48 272.905 121.82 272.86C122.16 272.814 122.398 272.792 122.535 272.792C122.648 272.792 122.75 272.837 122.841 272.928C122.954 272.996 123.034 273.03 123.079 273.03C123.147 273.03 123.249 273.041 123.385 273.064C123.521 273.064 123.657 273.075 123.793 273.098C123.952 273.12 124.088 273.143 124.202 273.166C124.338 273.166 124.428 273.177 124.474 273.2C124.61 273.245 124.791 273.313 125.018 273.404C125.245 273.472 125.472 273.551 125.699 273.642C125.925 273.733 126.13 273.812 126.311 273.88C126.492 273.948 126.606 273.994 126.651 274.016C126.674 274.039 126.731 274.096 126.821 274.186C126.912 274.277 127.014 274.391 127.128 274.527C127.264 274.64 127.388 274.754 127.502 274.867C127.615 274.98 127.695 275.071 127.74 275.139C127.989 275.502 128.239 275.831 128.488 276.126C128.761 276.421 128.953 276.761 129.067 277.146C129.18 277.373 129.26 277.623 129.305 277.895C129.373 278.144 129.43 278.394 129.475 278.643C129.543 278.893 129.622 279.131 129.713 279.358C129.804 279.585 129.951 279.789 130.155 279.97V282.08C130.155 283.577 130.099 285.051 129.985 286.503C129.895 287.931 129.827 289.406 129.781 290.925C129.691 291.152 129.611 291.379 129.543 291.606C129.475 291.81 129.441 292.048 129.441 292.32C129.441 292.524 129.464 292.751 129.509 293.001C129.577 293.25 129.611 293.432 129.611 293.545L129.305 294.192C129.282 294.282 129.271 294.373 129.271 294.464V294.838C129.271 295.178 129.282 295.541 129.305 295.927C129.328 296.312 129.384 296.698 129.475 297.083C129.566 297.469 129.691 297.832 129.849 298.172C130.031 298.512 130.28 298.796 130.598 299.023C130.711 299.113 130.859 299.249 131.04 299.431C131.244 299.59 131.392 299.669 131.482 299.669H131.618C131.845 299.669 132.106 299.635 132.401 299.567C132.696 299.476 133.002 299.386 133.32 299.295C133.637 299.181 133.955 299.079 134.272 298.989C134.612 298.898 134.941 298.853 135.259 298.853C135.69 298.853 135.905 298.989 135.905 299.261C135.905 299.987 135.758 300.69 135.463 301.37C135.191 302.051 134.805 302.663 134.306 303.207C133.807 303.729 133.229 304.16 132.571 304.5C131.913 304.818 131.199 304.977 130.428 304.977C129.656 304.977 128.908 304.943 128.182 304.874C127.456 304.784 126.663 304.58 125.801 304.262L125.562 304.092C125.517 304.047 125.404 303.911 125.222 303.684C125.064 303.434 124.882 303.173 124.678 302.901C124.496 302.629 124.326 302.38 124.168 302.153C124.009 301.903 123.918 301.744 123.895 301.676L123.079 300.962H122.841H122.535ZM114.846 295.859C114.846 296.222 114.902 296.641 115.016 297.117C115.152 297.594 115.345 298.047 115.594 298.478C115.843 298.887 116.15 299.238 116.513 299.533C116.875 299.828 117.284 299.975 117.737 299.975C117.828 299.975 117.908 299.964 117.976 299.941C118.044 299.919 118.236 299.828 118.554 299.669L121.65 299.397C121.718 299.352 121.82 299.261 121.956 299.125C122.115 298.966 122.262 298.807 122.398 298.648C122.557 298.49 122.693 298.342 122.807 298.206C122.943 298.07 123.034 297.968 123.079 297.9C123.102 297.9 123.136 297.832 123.181 297.696C123.249 297.56 123.328 297.39 123.419 297.185C123.51 296.981 123.589 296.766 123.657 296.539C123.748 296.312 123.827 296.108 123.895 295.927C123.941 295.813 123.975 295.643 123.997 295.416C124.043 295.19 124.066 295.065 124.066 295.042C124.043 294.793 124.02 294.543 123.997 294.294C123.975 294.044 123.963 293.795 123.963 293.545C123.963 293.318 123.975 293.114 123.997 292.933C124.02 292.729 124.043 292.524 124.066 292.32L124.304 291.572V290.959C124.304 290.574 124.179 290.222 123.929 289.905C123.68 289.587 123.317 289.428 122.841 289.428C122.455 289.428 122.126 289.519 121.854 289.701C121.605 289.859 121.31 290.064 120.97 290.313C120.856 290.381 120.629 290.506 120.289 290.687C119.949 290.846 119.586 291.016 119.2 291.198C118.837 291.356 118.486 291.515 118.146 291.674C117.828 291.833 117.613 291.935 117.499 291.98L116.853 292.32C116.807 292.32 116.717 292.343 116.581 292.388C116.445 292.434 116.377 292.468 116.377 292.49L115.9 293.375L115.084 294.192C114.97 294.441 114.902 294.736 114.88 295.076C114.857 295.394 114.846 295.654 114.846 295.859ZM139.58 321.035C139.58 320.831 139.58 320.649 139.58 320.491C139.602 320.332 139.67 320.128 139.784 319.878C139.897 319.357 140.135 318.926 140.498 318.585C140.884 318.245 141.462 317.962 142.233 317.735C142.301 317.712 142.415 317.678 142.574 317.633C142.732 317.61 142.891 317.587 143.05 317.565C143.209 317.542 143.345 317.519 143.458 317.497C143.594 317.497 143.674 317.497 143.696 317.497L144.955 317.735L145.704 317.497C145.772 317.497 145.874 317.485 146.01 317.463C146.146 317.463 146.339 317.463 146.588 317.463C146.996 317.463 147.269 317.451 147.405 317.429C147.564 317.406 147.688 317.338 147.779 317.225C147.96 316.952 148.108 316.714 148.221 316.51C148.335 316.306 148.425 316.102 148.493 315.898C148.584 315.716 148.652 315.512 148.698 315.285C148.766 315.081 148.834 314.82 148.902 314.503C148.902 314.48 148.913 314.401 148.936 314.265C148.958 314.151 148.981 314.015 149.004 313.856C149.026 313.698 149.049 313.55 149.072 313.414C149.094 313.278 149.117 313.176 149.14 313.108C149.14 313.017 149.197 312.847 149.31 312.598C149.423 312.348 149.548 312.087 149.684 311.815C149.82 311.543 149.945 311.282 150.058 311.033C150.195 310.806 150.297 310.636 150.365 310.522L150.127 309.093C150.376 308.685 150.569 308.311 150.705 307.971C150.841 307.63 150.909 307.222 150.909 306.746C150.909 306.678 150.898 306.587 150.875 306.474C150.852 306.383 150.841 306.315 150.841 306.269C150.841 306.088 150.83 305.861 150.807 305.589C150.807 305.339 150.796 305.101 150.773 304.874C150.75 304.625 150.728 304.41 150.705 304.228C150.682 304.047 150.671 303.945 150.671 303.922C150.671 303.854 150.625 303.718 150.535 303.514C150.444 303.287 150.342 303.049 150.229 302.799C150.138 302.55 150.036 302.311 149.922 302.085C149.832 301.858 149.786 301.699 149.786 301.608C149.764 301.563 149.718 301.427 149.65 301.2C149.582 300.973 149.503 300.735 149.412 300.486C149.344 300.213 149.276 299.964 149.208 299.737C149.163 299.51 149.14 299.374 149.14 299.329L148.051 297.492C148.051 297.469 148.04 297.378 148.017 297.22C147.994 297.061 147.972 296.891 147.949 296.709C147.926 296.528 147.892 296.358 147.847 296.199C147.824 296.017 147.802 295.904 147.779 295.859C147.779 295.654 147.756 295.405 147.711 295.11C147.666 294.793 147.632 294.634 147.609 294.634C147.586 294.566 147.518 294.475 147.405 294.362C147.314 294.248 147.201 294.135 147.065 294.021C146.951 293.908 146.838 293.806 146.724 293.715C146.611 293.624 146.554 293.568 146.554 293.545L146.078 292.32L144.955 290.721L143.696 287.489C143.674 287.444 143.606 287.319 143.492 287.115C143.401 286.888 143.356 286.763 143.356 286.741C143.311 286.695 143.243 286.639 143.152 286.571C143.061 286.48 143.016 286.412 143.016 286.366C142.993 286.344 142.971 286.242 142.948 286.06C142.925 285.879 142.902 285.686 142.88 285.482C142.88 285.278 142.868 285.096 142.846 284.938C142.846 284.756 142.846 284.643 142.846 284.597C142.755 284.234 142.619 283.849 142.437 283.441C142.256 283.01 142.063 282.59 141.859 282.182C141.655 281.751 141.44 281.331 141.213 280.923C141.009 280.515 140.827 280.14 140.668 279.8C140.668 279.755 140.646 279.641 140.6 279.46C140.555 279.256 140.51 279.131 140.464 279.086C140.464 279.018 140.408 278.927 140.294 278.814C140.203 278.677 140.101 278.587 139.988 278.541C139.33 278.02 138.627 277.611 137.879 277.317C137.153 277.022 136.393 276.681 135.599 276.296L135.293 275.854C135.202 275.672 135.066 275.536 134.885 275.445C134.68 275.355 134.578 275.23 134.578 275.071C134.578 274.277 134.726 273.767 135.021 273.54C135.293 273.313 135.644 273.2 136.075 273.2C136.416 273.2 136.744 273.257 137.062 273.37C137.402 273.483 137.754 273.642 138.117 273.846C138.185 273.846 138.321 273.835 138.525 273.812C138.729 273.79 138.967 273.778 139.239 273.778C139.489 273.778 139.727 273.79 139.954 273.812C140.203 273.835 140.373 273.846 140.464 273.846L141.349 274.186H142.233C142.256 274.186 142.347 274.175 142.506 274.152C142.687 274.107 142.868 274.073 143.05 274.05C143.254 274.005 143.435 273.971 143.594 273.948C143.753 273.903 143.855 273.869 143.9 273.846C144.037 273.778 144.218 273.722 144.445 273.676C144.694 273.608 144.932 273.551 145.159 273.506C145.386 273.461 145.579 273.427 145.738 273.404C145.919 273.381 146.033 273.37 146.078 273.37H147.609L148.527 273.2C148.732 273.2 148.97 273.245 149.242 273.336C149.537 273.404 149.798 273.506 150.024 273.642C150.274 273.778 150.478 273.937 150.637 274.118C150.818 274.277 150.909 274.436 150.909 274.595C150.909 274.776 150.886 275.048 150.841 275.411C150.796 275.752 150.694 276.012 150.535 276.194C150.172 276.579 149.786 276.852 149.378 277.01C148.992 277.169 148.709 277.271 148.527 277.317L147.949 277.487C147.79 277.555 147.609 277.577 147.405 277.555C147.223 277.509 147.053 277.566 146.894 277.725C146.917 277.906 146.962 278.133 147.03 278.405C147.099 278.655 147.178 278.904 147.269 279.154C147.359 279.403 147.439 279.63 147.507 279.834C147.575 280.016 147.609 280.118 147.609 280.14C147.632 280.367 147.688 280.571 147.779 280.753C147.892 280.934 148.006 281.116 148.119 281.297C148.233 281.479 148.346 281.66 148.459 281.841C148.573 282.023 148.664 282.216 148.732 282.42L149.14 284.597C149.185 284.915 149.299 285.221 149.48 285.516C149.662 285.788 149.854 286.06 150.058 286.332C150.263 286.582 150.467 286.854 150.671 287.149C150.875 287.421 151.011 287.716 151.079 288.034C151.079 288.056 151.079 288.158 151.079 288.34C151.102 288.521 151.113 288.714 151.113 288.918C151.136 289.122 151.159 289.315 151.181 289.496C151.204 289.678 151.227 289.78 151.249 289.803C151.249 289.825 151.317 289.939 151.453 290.143C151.589 290.347 151.68 290.46 151.726 290.483C151.748 290.528 151.805 290.653 151.896 290.857C151.986 291.061 152.066 291.198 152.134 291.266L152.644 292.32C152.69 292.479 152.769 292.683 152.882 292.933C152.996 293.16 153.098 293.273 153.189 293.273C153.347 293.522 153.517 293.704 153.699 293.817C153.903 293.908 154.084 293.953 154.243 293.953C154.357 293.953 154.515 293.908 154.719 293.817C154.924 293.704 155.082 293.522 155.196 293.273C155.264 293.182 155.343 293.091 155.434 293.001C155.615 292.819 155.752 292.695 155.842 292.627L155.91 292.422C155.933 292.377 155.956 292.332 155.978 292.286C156.001 292.241 156.012 292.196 156.012 292.15C156.285 291.47 156.545 290.778 156.795 290.075C157.044 289.372 157.294 288.635 157.543 287.863C157.543 287.795 157.566 287.648 157.611 287.421C157.657 287.172 157.736 287.002 157.85 286.911C157.85 286.888 157.85 286.82 157.85 286.707C157.872 286.593 157.884 286.468 157.884 286.332C157.906 286.174 157.929 286.038 157.952 285.924C157.974 285.788 157.997 285.709 158.02 285.686L158.53 284.257C158.553 284.234 158.575 284.166 158.598 284.053C158.621 283.94 158.643 283.826 158.666 283.713C158.689 283.577 158.7 283.463 158.7 283.372C158.723 283.259 158.734 283.18 158.734 283.134C158.802 282.908 158.904 282.681 159.04 282.454C159.199 282.227 159.347 282.012 159.483 281.807C159.619 281.603 159.743 281.399 159.857 281.195C159.97 280.968 160.027 280.73 160.027 280.481C159.982 280.39 159.914 280.265 159.823 280.106C159.755 279.925 159.698 279.823 159.653 279.8V278.371C159.653 278.326 159.562 278.201 159.381 277.997C159.222 277.793 159.097 277.668 159.006 277.623C158.916 277.577 158.779 277.521 158.598 277.453C158.439 277.362 158.258 277.283 158.054 277.214C157.85 277.146 157.645 277.09 157.441 277.044C157.26 276.976 157.112 276.931 156.999 276.908C156.772 276.908 156.602 276.874 156.489 276.806C156.398 276.715 156.341 276.67 156.319 276.67L155.196 275.854C155.082 275.536 155.026 275.275 155.026 275.071C155.026 274.776 155.082 274.515 155.196 274.289C155.309 274.039 155.445 273.79 155.604 273.54C155.899 273.381 156.171 273.279 156.421 273.234C156.693 273.166 156.931 273.132 157.135 273.132C157.339 273.109 157.532 273.086 157.713 273.064C157.895 273.041 158.054 272.984 158.19 272.894L159.006 272.792C159.052 272.792 159.176 272.803 159.381 272.826C159.607 272.826 159.846 272.837 160.095 272.86C160.344 272.882 160.571 272.905 160.775 272.928C161.002 272.928 161.138 272.939 161.184 272.962L162.306 273.2C162.828 273.2 163.293 273.12 163.701 272.962C164.132 272.803 164.609 272.644 165.13 272.485H165.913C165.913 272.44 166.015 272.406 166.219 272.383C166.423 272.338 166.571 272.315 166.661 272.315C166.661 272.27 166.684 272.247 166.729 272.247C166.797 272.247 166.854 272.247 166.899 272.247C167.104 272.247 167.376 272.293 167.716 272.383C168.079 272.474 168.43 272.599 168.771 272.758C169.111 272.916 169.406 273.098 169.655 273.302C169.905 273.506 170.029 273.722 170.029 273.948C170.029 274.221 169.95 274.413 169.791 274.527C169.633 274.64 169.474 274.788 169.315 274.969L168.022 276.024C167.75 276.273 167.478 276.466 167.206 276.602C166.933 276.715 166.65 276.806 166.355 276.874C166.083 276.942 165.788 276.999 165.471 277.044C165.153 277.09 164.824 277.158 164.484 277.248C164.098 277.838 163.769 278.439 163.497 279.052C163.248 279.664 162.976 280.265 162.681 280.855C162.681 280.968 162.658 281.116 162.613 281.297C162.567 281.456 162.522 281.558 162.477 281.603C162.477 281.626 162.465 281.694 162.443 281.807C162.443 281.898 162.431 282.012 162.409 282.148C162.386 282.261 162.363 282.374 162.34 282.488C162.34 282.601 162.329 282.658 162.306 282.658C162.306 282.703 162.261 282.783 162.17 282.896C162.102 283.01 162.023 283.146 161.932 283.304C161.841 283.441 161.751 283.577 161.66 283.713C161.592 283.826 161.558 283.894 161.558 283.917V285.686C161.535 285.709 161.49 285.788 161.422 285.924C161.354 286.038 161.274 286.174 161.184 286.332C161.116 286.468 161.036 286.593 160.946 286.707C160.878 286.82 160.821 286.888 160.775 286.911C160.458 287.501 160.084 288.136 159.653 288.816C159.222 289.496 158.916 290.2 158.734 290.925V292.15C158.734 292.196 158.689 292.32 158.598 292.524C158.53 292.706 158.473 292.797 158.428 292.797C158.178 293.273 158.02 293.715 157.952 294.123C157.884 294.532 157.747 294.929 157.543 295.314L156.557 297.322C156.466 297.775 156.409 298.24 156.387 298.716C156.364 299.193 156.353 299.68 156.353 300.179C156.353 300.656 156.341 301.132 156.319 301.608C156.296 302.085 156.25 302.561 156.182 303.037C156.137 303.604 155.956 304.16 155.638 304.704C155.321 305.249 155.037 305.77 154.788 306.269C154.742 306.315 154.674 306.371 154.583 306.44C154.515 306.53 154.481 306.587 154.481 306.61C154.391 306.746 154.3 306.961 154.209 307.256C154.164 307.392 154.118 307.54 154.073 307.698C154.05 307.834 154.028 308.05 154.005 308.345C153.982 308.64 153.96 308.946 153.937 309.263C153.937 309.581 153.926 309.876 153.903 310.148C153.903 310.443 153.903 310.647 153.903 310.76C153.676 310.942 153.506 311.203 153.393 311.543C153.302 311.883 153.223 312.257 153.154 312.666C153.109 313.074 153.064 313.471 153.018 313.856C152.996 314.265 152.939 314.605 152.848 314.877L151.896 316.102C151.85 316.147 151.805 316.295 151.76 316.544C151.737 316.816 151.726 316.986 151.726 317.054C151.658 317.122 151.578 317.236 151.487 317.395C151.397 317.531 151.283 317.724 151.147 317.973C151.011 318.223 150.852 318.563 150.671 318.994C150.671 319.016 150.648 319.084 150.603 319.198C150.557 319.334 150.501 319.47 150.433 319.606C150.365 319.765 150.297 319.912 150.229 320.048C150.183 320.184 150.149 320.264 150.127 320.287C150.036 320.604 149.9 320.808 149.718 320.899C149.559 320.99 149.367 321.137 149.14 321.341C149.004 321.455 148.902 321.545 148.834 321.613C148.766 321.704 148.709 321.784 148.664 321.852C148.618 321.92 148.561 321.988 148.493 322.056C148.448 322.146 148.369 322.26 148.255 322.396C147.938 322.804 147.575 323.042 147.167 323.11C146.758 323.201 146.327 323.315 145.874 323.451L145.193 323.995C144.921 324.086 144.66 324.131 144.411 324.131C144.161 324.154 143.923 324.165 143.696 324.165C143.265 324.165 142.812 324.086 142.335 323.927C141.859 323.791 141.417 323.587 141.009 323.315C140.6 323.042 140.26 322.713 139.988 322.328C139.716 321.942 139.58 321.511 139.58 321.035ZM181.495 304.636C180.905 304.432 180.281 304.285 179.624 304.194C178.966 304.081 178.297 303.979 177.616 303.888C176.959 303.774 176.324 303.638 175.711 303.48C175.099 303.321 174.554 303.083 174.078 302.765C173.602 302.425 173.216 301.971 172.921 301.404C172.649 300.837 172.513 300.1 172.513 299.193V298.342L173.16 291.844C173.25 291.663 173.33 291.526 173.398 291.436C173.466 291.322 173.613 291.266 173.84 291.266C174.339 291.266 174.702 291.481 174.929 291.912C175.791 293.137 176.539 294.328 177.174 295.484C177.832 296.641 178.535 297.866 179.284 299.159C179.374 299.386 179.612 299.612 179.998 299.839C180.406 300.043 180.883 300.259 181.427 300.486C181.971 300.69 182.561 300.883 183.196 301.064C183.831 301.245 184.432 301.404 184.999 301.54C185.589 301.676 186.111 301.79 186.564 301.881C187.041 301.949 187.392 301.983 187.619 301.983H188.265C188.628 301.983 188.832 301.96 188.878 301.915C188.946 301.869 189.059 301.79 189.218 301.676C189.399 301.563 189.581 301.438 189.762 301.302C189.966 301.166 190.148 301.041 190.307 300.928C190.488 300.815 190.613 300.735 190.681 300.69C190.772 300.599 190.93 300.508 191.157 300.418C191.384 300.327 191.543 300.282 191.634 300.282L193.028 299.907C193.119 299.907 193.323 299.669 193.641 299.193C193.958 298.694 194.287 298.149 194.628 297.56C195.036 296.879 195.467 296.097 195.92 295.212C195.92 295.167 195.932 295.042 195.954 294.838C195.977 294.634 195.988 294.418 195.988 294.192C196.011 293.942 196.034 293.715 196.056 293.511C196.079 293.284 196.09 293.126 196.09 293.035V292.49C196.09 292.241 196.079 292.025 196.056 291.844C196.056 291.64 196.034 291.447 195.988 291.266C195.966 291.061 195.92 290.846 195.852 290.619C195.807 290.392 195.739 290.12 195.648 289.803L195.58 289.599C195.399 289.349 195.161 289.122 194.866 288.918C194.593 288.714 194.344 288.476 194.117 288.204C193.845 287.818 193.652 287.523 193.539 287.319C193.425 287.115 193.312 286.945 193.199 286.809C193.085 286.673 192.926 286.548 192.722 286.434C192.518 286.321 192.189 286.162 191.736 285.958C191.713 285.958 191.588 285.924 191.361 285.856C191.135 285.788 190.964 285.709 190.851 285.618C190.534 285.436 190.227 285.312 189.932 285.244C189.638 285.153 189.331 285.096 189.014 285.074C188.719 285.028 188.413 284.994 188.095 284.972C187.778 284.926 187.449 284.847 187.109 284.733C186.791 284.484 186.53 284.234 186.326 283.985C186.122 283.713 185.827 283.486 185.442 283.304C185.373 283.304 185.249 283.293 185.067 283.27C184.909 283.225 184.727 283.18 184.523 283.134C184.341 283.089 184.16 283.055 183.979 283.032C183.82 282.987 183.718 282.964 183.672 282.964L181.903 281.127C181.586 280.9 181.291 280.741 181.019 280.651C180.769 280.537 180.531 280.435 180.304 280.345C180.077 280.254 179.851 280.152 179.624 280.038C179.42 279.925 179.181 279.743 178.909 279.494C178.705 279.313 178.546 279.131 178.433 278.95C178.342 278.768 178.263 278.587 178.195 278.405C178.127 278.224 178.059 278.042 177.991 277.861C177.945 277.679 177.866 277.498 177.753 277.317C177.707 277.135 177.605 276.92 177.446 276.67C177.31 276.421 177.197 276.228 177.106 276.092C176.584 275.479 176.165 274.958 175.847 274.527C175.53 274.073 175.28 273.631 175.099 273.2C174.94 272.769 174.827 272.304 174.759 271.805C174.713 271.283 174.691 270.626 174.691 269.832C174.691 268.879 174.804 267.892 175.031 266.872C175.258 265.828 175.586 264.819 176.017 263.844C176.448 262.868 176.97 261.95 177.582 261.088C178.217 260.226 178.932 259.489 179.726 258.877C179.953 258.65 180.202 258.491 180.474 258.4C180.769 258.287 181.064 258.207 181.359 258.162C181.676 258.117 181.994 258.094 182.311 258.094C182.629 258.071 182.935 258.026 183.23 257.958C183.525 257.89 183.797 257.788 184.047 257.652C184.319 257.516 184.58 257.38 184.829 257.243C185.101 257.085 185.373 256.949 185.646 256.835C185.941 256.722 186.247 256.665 186.564 256.665C187.54 256.665 188.458 256.722 189.32 256.835C190.205 256.949 191.078 257.107 191.94 257.311C192.529 257.448 193.062 257.629 193.539 257.856C194.038 258.083 194.593 258.196 195.206 258.196C195.637 258.196 196.022 258.071 196.363 257.822C196.726 257.572 197.077 257.3 197.417 257.005C197.758 256.688 198.109 256.404 198.472 256.155C198.858 255.905 199.289 255.78 199.765 255.78C200.196 255.78 200.479 255.985 200.615 256.393C200.751 256.801 200.82 257.187 200.82 257.55L200.173 259.761L200.445 263.776V264.66C200.445 265.273 200.423 265.794 200.377 266.225C200.355 266.634 200.264 267.155 200.105 267.79C200.06 267.904 199.98 268.006 199.867 268.097C199.776 268.187 199.697 268.233 199.629 268.233C199.629 268.278 199.549 268.301 199.391 268.301C199.277 268.301 199.096 268.153 198.846 267.858C198.619 267.564 198.336 267.189 197.996 266.736C197.678 266.282 197.338 265.783 196.975 265.239C196.612 264.694 196.249 264.173 195.886 263.674C195.523 263.152 195.172 262.687 194.832 262.279C194.514 261.87 194.231 261.587 193.981 261.428C193.527 261.133 193.028 260.895 192.484 260.714C191.94 260.51 191.373 260.362 190.783 260.271C190.193 260.158 189.604 260.079 189.014 260.033C188.424 259.988 187.88 259.965 187.381 259.965C186.632 259.965 185.986 260.033 185.442 260.169C184.897 260.305 184.421 260.521 184.013 260.816C183.604 261.111 183.241 261.496 182.924 261.973C182.606 262.426 182.311 262.971 182.039 263.606C181.812 264.105 181.62 264.502 181.461 264.796C181.325 265.091 181.2 265.363 181.087 265.613C180.996 265.862 180.928 266.135 180.883 266.429C180.837 266.702 180.815 267.076 180.815 267.552C180.815 268.754 181.019 269.798 181.427 270.682C181.835 271.567 182.38 272.338 183.06 272.996C183.74 273.631 184.534 274.164 185.442 274.595C186.349 275.003 187.313 275.355 188.333 275.649L188.674 275.888C189.218 276.228 189.694 276.523 190.103 276.772C190.534 276.999 190.942 277.214 191.327 277.419C191.713 277.6 192.11 277.782 192.518 277.963C192.949 278.144 193.437 278.36 193.981 278.609L197.928 281.127C197.973 281.15 198.018 281.195 198.064 281.263C198.132 281.308 198.2 281.354 198.268 281.399C198.359 281.467 198.438 281.535 198.506 281.603L199.118 283.304C199.209 283.463 199.289 283.645 199.357 283.849C199.447 284.03 199.538 284.166 199.629 284.257C199.697 284.302 199.81 284.416 199.969 284.597C200.128 284.779 200.287 284.983 200.445 285.21C200.627 285.414 200.774 285.618 200.888 285.822C201.024 286.004 201.092 286.128 201.092 286.196C201.16 286.332 201.239 286.537 201.33 286.809C201.443 287.058 201.545 287.319 201.636 287.591C201.749 287.863 201.84 288.124 201.908 288.374C201.999 288.623 202.044 288.805 202.044 288.918V293.919C202.044 293.942 201.988 294.089 201.874 294.362C201.784 294.634 201.681 294.861 201.568 295.042C201.5 295.065 201.443 295.121 201.398 295.212C201.375 295.258 201.353 295.314 201.33 295.382C201.307 295.45 201.25 295.598 201.16 295.825C201.092 296.051 201.012 296.301 200.922 296.573C200.831 296.845 200.74 297.095 200.649 297.322C200.559 297.548 200.491 297.684 200.445 297.73C200.377 297.934 200.253 298.149 200.071 298.376C199.912 298.603 199.731 298.819 199.527 299.023C199.323 299.227 199.118 299.408 198.914 299.567C198.733 299.726 198.597 299.839 198.506 299.907C198.302 300.179 198.188 300.474 198.166 300.792C198.143 301.109 198.007 301.348 197.758 301.506C196.873 301.824 196.147 302.187 195.58 302.595C195.013 302.981 194.469 303.355 193.947 303.718C193.448 304.058 192.915 304.353 192.348 304.602C191.781 304.852 191.067 304.977 190.205 304.977H189.796C189.184 304.931 188.776 304.909 188.572 304.909C188.39 304.886 188.254 304.874 188.163 304.874L181.495 304.636ZM210.958 291.912L210.754 288.51L210.958 284.972V283.951C210.981 283.837 211.015 283.701 211.06 283.543C211.106 283.384 211.128 283.248 211.128 283.134C211.128 282.477 211.026 281.807 210.822 281.127C210.618 280.424 210.459 279.743 210.346 279.086C210.119 278.927 209.79 278.814 209.359 278.745C208.951 278.677 208.543 278.598 208.134 278.507C207.726 278.394 207.363 278.235 207.046 278.031C206.751 277.827 206.603 277.509 206.603 277.078C206.603 276.602 206.762 276.251 207.08 276.024C207.397 275.774 207.771 275.57 208.202 275.411C208.656 275.23 209.11 275.071 209.563 274.935C210.04 274.799 210.425 274.595 210.72 274.323C211.015 274.073 211.344 273.767 211.707 273.404C212.07 273.041 212.33 272.758 212.489 272.553C212.671 272.191 212.909 271.737 213.204 271.193C213.521 270.648 213.861 270.127 214.224 269.628C214.587 269.106 214.973 268.664 215.381 268.301C215.789 267.915 216.198 267.722 216.606 267.722C216.878 267.722 217.093 267.802 217.252 267.96C217.434 268.097 217.57 268.278 217.661 268.505C217.774 268.709 217.853 268.936 217.899 269.185C217.944 269.435 217.978 269.673 218.001 269.9V273.846L218.171 274.084H219.77C220.337 274.084 220.859 274.05 221.335 273.982C221.811 273.892 222.254 273.801 222.662 273.71C223.093 273.597 223.501 273.506 223.887 273.438C224.295 273.347 224.726 273.302 225.179 273.302C225.815 273.302 226.348 273.54 226.778 274.016C227.209 274.493 227.425 275.06 227.425 275.717C227.425 276.239 227.334 276.67 227.153 277.01C226.994 277.351 226.756 277.623 226.438 277.827C226.121 278.031 225.746 278.178 225.316 278.269C224.885 278.337 224.408 278.371 223.887 278.371L221.641 278.201L219.94 278.371L218.307 278.201C217.989 278.201 217.695 278.349 217.422 278.643C217.173 278.916 217.048 279.176 217.048 279.426L217.354 281.978C217.354 282.295 217.309 282.601 217.218 282.896C217.128 283.191 217.025 283.497 216.912 283.815C216.799 284.11 216.697 284.416 216.606 284.733C216.515 285.051 216.47 285.38 216.47 285.72V286.332L216.776 290.279C216.708 290.415 216.663 290.551 216.64 290.687C216.64 290.823 216.64 290.993 216.64 291.198C216.64 291.356 216.663 291.504 216.708 291.64C216.753 291.776 216.776 291.901 216.776 292.014C216.844 292.672 216.878 293.318 216.878 293.953C216.878 294.52 216.855 295.065 216.81 295.586C216.765 296.108 216.697 296.63 216.606 297.151C216.629 297.174 216.674 297.242 216.742 297.356C216.81 297.446 216.878 297.56 216.946 297.696C217.037 297.809 217.116 297.934 217.184 298.07C217.252 298.183 217.309 298.252 217.354 298.274C217.536 298.546 217.74 298.751 217.967 298.887C218.194 299.023 218.42 299.147 218.647 299.261C218.897 299.352 219.146 299.454 219.396 299.567C219.668 299.68 219.929 299.851 220.178 300.077H221.471C221.993 300.077 222.492 300.021 222.968 299.907C223.444 299.794 223.898 299.68 224.329 299.567C224.783 299.431 225.213 299.306 225.622 299.193C226.053 299.079 226.495 299.023 226.949 299.023C227.221 299.023 227.425 299.159 227.561 299.431C227.697 299.703 227.765 299.964 227.765 300.213C227.765 300.35 227.754 300.463 227.731 300.554C227.731 300.622 227.708 300.69 227.663 300.758C227.618 300.826 227.55 300.905 227.459 300.996C227.391 301.087 227.3 301.211 227.187 301.37L226.71 302.051C226.642 302.096 226.529 302.209 226.37 302.391C226.234 302.572 226.075 302.776 225.894 303.003C225.712 303.207 225.531 303.412 225.35 303.616C225.168 303.797 225.032 303.933 224.941 304.024C224.714 304.273 224.374 304.512 223.921 304.738C223.467 304.965 222.991 305.158 222.492 305.317C221.993 305.498 221.505 305.634 221.029 305.725C220.575 305.816 220.212 305.861 219.94 305.861L215.585 304.977C215.2 304.863 214.769 304.693 214.292 304.466C213.816 304.239 213.351 303.979 212.897 303.684C212.466 303.366 212.081 303.015 211.741 302.629C211.423 302.243 211.219 301.824 211.128 301.37V299.023C211.015 298.252 210.879 297.526 210.72 296.845C210.584 296.142 210.516 295.416 210.516 294.668L210.958 291.912ZM231.644 286.979C231.961 285.777 232.358 284.631 232.834 283.543C233.311 282.431 233.855 281.297 234.467 280.14L235.42 279.018L235.828 278.303C235.896 278.19 235.976 278.088 236.067 277.997C236.135 277.906 236.203 277.827 236.271 277.759C236.339 277.668 236.407 277.6 236.475 277.555L238.482 276.126C238.595 275.99 238.72 275.899 238.856 275.854C238.992 275.786 239.117 275.74 239.231 275.717C239.367 275.672 239.503 275.638 239.639 275.615C239.775 275.57 239.9 275.491 240.013 275.377L240.66 274.731L241.204 274.493H241.714L243.551 273.778C243.642 273.733 243.767 273.688 243.926 273.642C244.107 273.597 244.289 273.551 244.47 273.506C244.651 273.461 244.822 273.427 244.98 273.404C245.139 273.381 245.252 273.37 245.321 273.37H248.791C248.995 273.279 249.165 273.234 249.301 273.234C249.46 273.211 249.585 273.2 249.675 273.2C250.333 273.2 250.991 273.313 251.649 273.54C252.306 273.744 252.964 273.937 253.622 274.118H254.915C254.96 274.118 255.028 274.164 255.119 274.255C255.21 274.323 255.312 274.413 255.425 274.527L255.799 274.901C256.366 275.219 256.922 275.536 257.466 275.854C258.011 276.148 258.555 276.477 259.1 276.84C259.553 277.203 259.905 277.611 260.154 278.065C260.426 278.496 260.733 278.927 261.073 279.358C261.118 279.403 261.198 279.517 261.311 279.698C261.447 279.857 261.583 280.038 261.719 280.242C261.855 280.447 261.98 280.651 262.093 280.855C262.23 281.059 262.32 281.218 262.366 281.331L262.57 281.739L263.897 286.094C263.965 286.23 264.021 286.389 264.067 286.571C264.112 286.752 264.157 286.933 264.203 287.115C264.248 287.274 264.282 287.432 264.305 287.591C264.328 287.727 264.339 287.818 264.339 287.863V288.952L264.135 289.803V292.252L262.366 297.458C261.912 298.07 261.436 298.705 260.937 299.363C260.438 299.998 259.939 300.599 259.44 301.166C259.44 301.189 259.394 301.245 259.304 301.336C259.168 301.518 259.009 301.71 258.827 301.915C258.646 302.119 258.442 302.311 258.215 302.493C258.17 302.538 258.033 302.572 257.807 302.595C257.603 302.618 257.376 302.686 257.126 302.799L255.085 303.99C255.04 303.99 254.937 304.013 254.779 304.058C254.643 304.081 254.484 304.115 254.302 304.16C254.144 304.183 253.985 304.205 253.826 304.228C253.667 304.251 253.554 304.262 253.486 304.262C253.078 304.353 252.737 304.478 252.465 304.636C252.216 304.795 251.853 304.874 251.376 304.874L247.906 304.977C247.816 304.977 247.623 304.977 247.328 304.977C247.033 304.954 246.715 304.943 246.375 304.943C246.035 304.92 245.706 304.909 245.389 304.909C245.071 304.886 244.833 304.874 244.674 304.874L243.721 304.67L241.544 304.5L241.204 304.33L237.836 301.983L237.019 301.608C236.611 301.382 236.271 301.053 235.998 300.622C235.726 300.168 235.454 299.737 235.182 299.329C234.932 298.875 234.672 298.467 234.399 298.104C234.15 297.741 233.9 297.401 233.651 297.083C233.447 296.721 233.22 296.369 232.97 296.029C232.744 295.689 232.528 295.337 232.324 294.974C232.143 294.611 231.984 294.248 231.848 293.885C231.712 293.5 231.644 293.08 231.644 292.627L231.371 289.973L231.644 286.979ZM238.652 291.776C238.834 291.98 238.958 292.162 239.026 292.32C239.117 292.479 239.174 292.627 239.197 292.763C239.242 292.899 239.265 293.046 239.265 293.205C239.287 293.364 239.321 293.556 239.367 293.783C239.548 294.532 239.843 295.314 240.251 296.131C240.66 296.947 241.09 297.639 241.544 298.206L242.837 299.431C243.291 299.998 243.721 300.565 244.13 301.132C244.538 301.676 245.048 302.073 245.661 302.323H247.022C247.521 302.323 248.054 302.266 248.621 302.153C249.188 302.017 249.755 301.903 250.322 301.813C250.639 301.813 250.923 301.801 251.172 301.778C251.422 301.733 251.728 301.597 252.091 301.37L252.499 300.928C253.588 300.338 254.529 299.612 255.323 298.751L257.671 295.042L257.569 291.504C257.682 291.322 257.75 291.152 257.773 290.993C257.795 290.835 257.807 290.597 257.807 290.279C257.807 289.893 257.716 289.542 257.535 289.224C257.353 288.907 257.262 288.521 257.262 288.068L257.569 286.775C257.5 286.503 257.432 286.185 257.364 285.822C257.296 285.459 257.217 285.096 257.126 284.733C257.058 284.348 256.967 283.996 256.854 283.679C256.763 283.338 256.639 283.066 256.48 282.862L254.745 280.855C254.677 280.809 254.586 280.707 254.473 280.549C254.382 280.39 254.28 280.208 254.166 280.004C254.076 279.8 253.985 279.607 253.894 279.426C253.826 279.244 253.792 279.108 253.792 279.018L252.771 278.303C252.363 277.85 251.955 277.464 251.547 277.146C251.138 276.806 250.651 276.591 250.084 276.5L248.417 276.296C247.827 276.205 247.305 276.103 246.852 275.99C246.398 275.854 245.888 275.786 245.321 275.786H245.082L243.007 277.01L239.707 280.855C239.616 281.104 239.537 281.331 239.469 281.535C239.401 281.739 239.367 281.944 239.367 282.148L239.197 283.202L238.652 284.597V285.482C238.652 285.799 238.698 286.094 238.788 286.366C238.902 286.639 238.958 286.956 238.958 287.319C238.958 287.501 238.947 287.648 238.924 287.761C238.902 287.852 238.811 287.954 238.652 288.068V291.776ZM268.524 302.901C268.524 302.72 268.637 302.595 268.864 302.527C269.113 302.436 269.295 302.334 269.408 302.221C269.658 301.949 269.941 301.756 270.259 301.642C270.599 301.529 270.837 301.438 270.973 301.37C271.155 301.257 271.279 301.121 271.348 300.962C271.416 300.78 271.574 300.644 271.824 300.554L272.64 300.282C272.776 300.282 272.89 300.179 272.981 299.975C273.071 299.771 273.128 299.658 273.151 299.635C273.128 299.522 273.117 299.329 273.117 299.057C273.117 298.785 273.117 298.524 273.117 298.274C273.117 297.957 273.117 297.673 273.117 297.424C273.117 297.151 273.128 296.925 273.151 296.743L273.355 295.723V290.483C273.355 290.438 273.366 290.336 273.389 290.177C273.412 290.018 273.434 289.848 273.457 289.667C273.48 289.485 273.502 289.315 273.525 289.156C273.548 288.997 273.57 288.895 273.593 288.85V288.612C273.57 288.476 273.548 288.272 273.525 287.999C273.502 287.705 273.48 287.421 273.457 287.149C273.434 286.854 273.412 286.593 273.389 286.366C273.366 286.14 273.355 286.004 273.355 285.958C273.332 285.89 273.309 285.777 273.287 285.618C273.264 285.459 273.241 285.289 273.219 285.108C273.196 284.926 273.173 284.756 273.151 284.597C273.151 284.439 273.151 284.325 273.151 284.257C273.083 283.94 272.969 283.633 272.81 283.338C272.652 283.044 272.47 282.771 272.266 282.522C272.062 282.25 271.847 281.989 271.62 281.739C271.393 281.467 271.177 281.206 270.973 280.957C270.951 280.957 270.871 280.878 270.735 280.719C270.599 280.537 270.531 280.424 270.531 280.379L268.524 278.507L270.157 276.84C270.202 276.818 270.293 276.772 270.429 276.704C270.588 276.636 270.746 276.568 270.905 276.5C271.087 276.409 271.257 276.33 271.416 276.262C271.597 276.194 271.733 276.148 271.824 276.126C271.869 276.08 271.96 276.046 272.096 276.024C272.255 275.978 272.414 275.944 272.572 275.922C272.754 275.899 272.913 275.888 273.049 275.888C273.207 275.865 273.309 275.854 273.355 275.854C273.786 275.717 274.171 275.536 274.512 275.309C274.874 275.06 275.226 274.822 275.566 274.595C275.906 274.345 276.247 274.13 276.587 273.948C276.95 273.767 277.358 273.676 277.812 273.676H278.356C278.379 273.699 278.504 273.824 278.73 274.05C278.957 274.255 279.127 274.402 279.241 274.493C279.399 274.742 279.479 275.06 279.479 275.445C279.479 275.808 279.49 276.171 279.513 276.534C279.536 276.874 279.615 277.169 279.751 277.419C279.887 277.668 280.182 277.793 280.636 277.793C280.704 277.793 280.772 277.793 280.84 277.793C280.93 277.793 280.976 277.77 280.976 277.725C281.067 277.702 281.191 277.657 281.35 277.589C281.509 277.498 281.668 277.396 281.826 277.283C282.008 277.169 282.167 277.056 282.303 276.942C282.461 276.829 282.575 276.738 282.643 276.67L284.038 275.615C284.083 275.57 284.231 275.468 284.48 275.309C284.73 275.128 284.9 274.992 284.99 274.901C285.013 274.901 285.104 274.901 285.263 274.901C285.421 274.878 285.58 274.867 285.739 274.867C285.92 274.844 286.09 274.822 286.249 274.799C286.408 274.776 286.521 274.754 286.589 274.731C286.612 274.731 286.68 274.708 286.794 274.663C286.93 274.617 287.066 274.572 287.202 274.527C287.361 274.481 287.497 274.436 287.61 274.391C287.724 274.345 287.792 274.323 287.814 274.323H288.188C288.71 274.323 289.13 274.481 289.447 274.799C289.788 275.116 290.094 275.468 290.366 275.854C290.525 276.058 290.615 276.353 290.638 276.738C290.683 277.101 290.763 277.373 290.876 277.555C290.876 277.623 290.91 277.691 290.978 277.759L291.114 277.895C291.114 278.984 290.956 279.959 290.638 280.821C290.343 281.66 289.833 282.34 289.107 282.862C288.903 282.908 288.665 282.953 288.393 282.998C288.12 283.021 287.894 283.032 287.712 283.032C287.236 283.032 286.884 283.01 286.657 282.964C286.431 282.896 286.261 282.805 286.147 282.692C286.034 282.579 285.932 282.431 285.841 282.25C285.773 282.068 285.648 281.853 285.467 281.603C285.308 281.399 285.115 281.24 284.888 281.127C284.684 280.991 284.48 280.9 284.276 280.855C284.072 280.787 283.879 280.741 283.698 280.719C283.539 280.696 283.437 280.685 283.391 280.685L281.928 280.447L280.704 280.787L280.295 281.331C280.182 281.354 280.023 281.467 279.819 281.671C279.615 281.853 279.411 282.068 279.207 282.318C279.025 282.545 278.866 282.794 278.73 283.066C278.594 283.316 278.526 283.52 278.526 283.679L278.356 286.128L278.526 287.081V288.85C278.526 288.895 278.538 289.032 278.56 289.258C278.606 289.462 278.651 289.621 278.696 289.735L278.458 292.797L278.696 293.953C278.696 294.112 278.651 294.271 278.56 294.43C278.492 294.588 278.458 294.793 278.458 295.042L278.696 296.199L278.458 297.458C278.458 297.48 278.458 297.514 278.458 297.56C278.458 297.605 278.481 297.628 278.526 297.628C278.549 297.764 278.617 297.957 278.73 298.206C278.866 298.456 279.003 298.716 279.139 298.989C279.297 299.261 279.433 299.522 279.547 299.771C279.683 299.998 279.774 300.168 279.819 300.282C279.819 300.304 279.842 300.35 279.887 300.418C279.932 300.486 279.989 300.52 280.057 300.52C280.261 300.633 280.454 300.78 280.636 300.962C280.84 301.143 281.078 301.279 281.35 301.37C281.509 301.438 281.713 301.506 281.962 301.574C282.212 301.62 282.473 301.676 282.745 301.744C283.04 301.813 283.323 301.892 283.595 301.983C283.89 302.073 284.163 302.187 284.412 302.323C284.548 302.504 284.673 302.72 284.786 302.969C284.922 303.219 284.99 303.491 284.99 303.786C284.99 304.035 284.945 304.217 284.854 304.33C284.786 304.444 284.673 304.557 284.514 304.67C284.378 304.761 284.151 304.806 283.834 304.806L282.745 304.909C282.359 304.954 282.008 304.977 281.69 304.977C281.395 304.977 281.146 304.977 280.942 304.977C280.76 304.977 280.556 304.954 280.329 304.909C280.125 304.84 279.898 304.806 279.649 304.806C279.014 304.806 278.413 304.886 277.846 305.045C277.279 305.226 276.7 305.317 276.111 305.317L274.58 304.806L272.402 305.317H271.824L271.348 304.977C271.302 304.977 271.177 304.965 270.973 304.943C270.769 304.897 270.474 304.852 270.089 304.806C269.998 304.806 269.907 304.761 269.817 304.67C269.748 304.648 269.635 304.614 269.476 304.568C269.34 304.523 269.113 304.421 268.796 304.262C268.614 304.013 268.524 303.774 268.524 303.548V303.446V302.901ZM294.21 290.075C294.21 289.961 294.233 289.746 294.278 289.428C294.324 289.088 294.369 288.737 294.415 288.374C294.483 287.988 294.528 287.625 294.551 287.285C294.596 286.945 294.619 286.718 294.619 286.605C294.709 285.516 294.948 284.404 295.333 283.27C295.741 282.136 296.252 281.048 296.864 280.004C297.477 278.938 298.18 277.963 298.974 277.078C299.79 276.194 300.675 275.445 301.627 274.833C301.65 274.788 301.763 274.708 301.967 274.595C302.194 274.481 302.432 274.368 302.682 274.255C302.931 274.141 303.17 274.028 303.396 273.914C303.623 273.801 303.759 273.722 303.805 273.676C303.963 273.608 304.168 273.495 304.417 273.336C304.689 273.154 304.961 272.984 305.234 272.826C305.506 272.644 305.778 272.485 306.05 272.349C306.322 272.213 306.572 272.145 306.799 272.145C307.003 272.145 307.162 272.168 307.275 272.213C307.411 272.259 307.57 272.327 307.751 272.417C308.137 272.372 308.5 272.338 308.84 272.315C309.203 272.27 309.566 272.247 309.929 272.247C310.314 272.247 310.677 272.27 311.017 272.315C311.358 272.338 311.72 272.372 312.106 272.417C312.106 272.417 312.151 272.44 312.242 272.485C312.333 272.508 312.435 272.542 312.548 272.587C312.662 272.633 312.775 272.678 312.889 272.724C313.002 272.769 313.093 272.803 313.161 272.826C313.229 272.848 313.365 272.916 313.569 273.03C313.773 273.12 314 273.234 314.249 273.37C314.499 273.506 314.737 273.631 314.964 273.744C315.191 273.835 315.35 273.892 315.44 273.914C315.44 273.937 315.52 273.971 315.678 274.016C315.837 274.062 315.939 274.084 315.985 274.084L317.345 274.833L320.407 277.623C320.498 277.736 320.634 278.042 320.816 278.541C321.02 279.018 321.213 279.551 321.394 280.14C321.598 280.707 321.768 281.252 321.904 281.773C322.063 282.295 322.143 282.635 322.143 282.794C322.143 283.112 322.052 283.372 321.87 283.577C321.689 283.758 321.474 283.917 321.224 284.053C320.975 284.166 320.702 284.257 320.407 284.325C320.135 284.37 319.897 284.404 319.693 284.427H319.557C319.33 284.45 318.956 284.473 318.434 284.495C317.935 284.518 317.402 284.541 316.835 284.563C316.291 284.563 315.769 284.575 315.27 284.597C314.794 284.597 314.465 284.597 314.283 284.597C314.034 284.711 313.807 284.779 313.603 284.801C313.422 284.824 313.229 284.835 313.025 284.835L310.609 284.597C310.155 284.597 309.679 284.677 309.18 284.835C308.704 284.994 308.239 285.074 307.785 285.074C307.49 285.074 307.196 284.972 306.901 284.767C306.629 284.541 306.322 284.427 305.982 284.427C305.937 284.427 305.812 284.484 305.608 284.597C305.426 284.688 305.29 284.733 305.2 284.733L302.614 284.563C302.251 284.563 301.911 284.631 301.593 284.767C301.276 284.903 300.913 285.142 300.505 285.482C300.436 286.072 300.391 286.593 300.368 287.047C300.346 287.478 300.334 287.965 300.334 288.51C300.334 288.986 300.357 289.372 300.402 289.667C300.47 289.961 300.561 290.245 300.675 290.517C300.788 290.767 300.924 291.027 301.083 291.3C301.242 291.549 301.423 291.867 301.627 292.252L301.967 292.899C302.557 294.192 303.317 295.235 304.247 296.029C305.177 296.823 306.379 297.446 307.853 297.9C307.853 298.013 308.012 298.127 308.33 298.24C308.67 298.331 309.044 298.399 309.452 298.444C309.929 298.535 310.473 298.592 311.085 298.614C311.834 298.614 312.605 298.569 313.399 298.478C314.193 298.388 314.964 298.24 315.712 298.036C316.461 297.832 317.164 297.56 317.822 297.22C318.502 296.879 319.081 296.46 319.557 295.961H320.101C320.373 295.961 320.555 296.006 320.646 296.097C320.759 296.165 320.872 296.38 320.986 296.743C320.918 297.401 320.816 297.991 320.68 298.512C320.566 299.011 320.396 299.465 320.169 299.873C319.965 300.282 319.693 300.667 319.353 301.03C319.013 301.37 318.57 301.722 318.026 302.085C317.844 302.221 317.674 302.323 317.516 302.391C317.357 302.436 317.209 302.482 317.073 302.527C316.937 302.572 316.79 302.64 316.631 302.731C316.495 302.822 316.336 302.981 316.155 303.207L312.514 305.045L312.106 304.977L309.554 305.385C307.649 305.385 305.937 305.113 304.417 304.568C302.897 304.024 301.537 303.253 300.334 302.255C299.155 301.234 298.123 300.021 297.238 298.614C296.376 297.208 295.639 295.654 295.027 293.953C294.823 293.341 294.698 292.717 294.653 292.082C294.607 291.424 294.46 290.755 294.21 290.075ZM300.913 280.787C300.913 280.9 300.924 281.07 300.947 281.297C300.992 281.524 301.049 281.751 301.117 281.978C301.185 282.204 301.264 282.409 301.355 282.59C301.446 282.771 301.537 282.873 301.627 282.896H302.682L307.207 282.182L310.099 282.42C310.598 282.42 311.04 282.374 311.426 282.284C311.834 282.193 312.276 282.091 312.752 281.978C313.183 281.91 313.546 281.853 313.841 281.807C314.159 281.739 314.408 281.626 314.59 281.467C314.794 281.308 314.941 281.104 315.032 280.855C315.123 280.583 315.168 280.208 315.168 279.732C315.168 278.938 314.953 278.246 314.522 277.657C314.091 277.067 313.546 276.579 312.889 276.194C312.254 275.786 311.55 275.491 310.779 275.309C310.031 275.105 309.328 275.003 308.67 275.003C308.511 275.003 308.284 275.048 307.989 275.139C307.695 275.207 307.354 275.309 306.969 275.445C306.606 275.559 306.22 275.695 305.812 275.854C305.426 275.99 305.063 276.148 304.723 276.33C304.406 276.489 304.122 276.647 303.873 276.806C303.623 276.942 303.464 277.067 303.396 277.18L302.682 278.711C302.546 278.87 302.376 279.018 302.172 279.154C301.967 279.29 301.763 279.437 301.559 279.596C301.378 279.755 301.219 279.936 301.083 280.14C300.969 280.322 300.913 280.537 300.913 280.787Z" fill="white"/>
<defs>
<filter id="filter0_d_1875_18300" x="-0.0017643" y="211.928" width="341.129" height="130.645" filterUnits="userSpaceOnUse" color-interpolation-filters="sRGB">
<feFlood flood-opacity="0" result="BackgroundImageFix"/>
<feColorMatrix in="SourceAlpha" type="matrix" values="0 0 0 0 0 0 0 0 0 0 0 0 0 0 0 0 0 0 127 0" result="hardAlpha"/>
<feOffset dy="-8.70968"/>
<feGaussianBlur stdDeviation="2.90323"/>
<feComposite in2="hardAlpha" operator="out"/>
<feColorMatrix type="matrix" values="0 0 0 0 0 0 0 0 0 0 0 0 0 0 0 0 0 0 0.15 0"/>
<feBlend mode="normal" in2="BackgroundImageFix" result="effect1_dropShadow_1875_18300"/>
<feBlend mode="normal" in="SourceGraphic" in2="effect1_dropShadow_1875_18300" result="shape"/>
</filter>
<filter id="filter1_i_1875_18300" x="5.80469" y="188.695" width="36.2891" height="37.7417" filterUnits="userSpaceOnUse" color-interpolation-filters="sRGB">
<feFlood flood-opacity="0" result="BackgroundImageFix"/>
<feBlend mode="normal" in="SourceGraphic" in2="BackgroundImageFix" result="shape"/>
<feColorMatrix in="SourceAlpha" type="matrix" values="0 0 0 0 0 0 0 0 0 0 0 0 0 0 0 0 0 0 127 0" result="hardAlpha"/>
<feOffset dy="-1.45161"/>
<feGaussianBlur stdDeviation="2.90323"/>
<feComposite in2="hardAlpha" operator="arithmetic" k2="-1" k3="1"/>
<feColorMatrix type="matrix" values="0 0 0 0 0 0 0 0 0 0 0 0 0 0 0 0 0 0 0.25 0"/>
<feBlend mode="normal" in2="shape" result="effect1_innerShadow_1875_18300"/>
</filter>
</defs>
</svg>
