<svg width="342" height="360" viewBox="0 0 342 360" fill="none" xmlns="http://www.w3.org/2000/svg">
<path d="M42.0684 23.2258C42.0684 10.3985 52.4669 0 65.2942 0H221.558C225.587 0 229.434 1.67424 232.18 4.6222L264.165 38.961L296.561 73.7414C299.064 76.4282 300.455 79.9636 300.455 83.6354V336.774C300.455 349.601 290.057 360 277.23 360H65.2941C52.4669 360 42.0684 349.601 42.0684 336.774V23.2258Z" fill="#ECF0F3"/>
<path d="M230.78 3.62891L234.409 7.25794L296.102 73.3072L252.79 72.8364C239.871 72.696 229.55 62.0399 229.822 49.1231L230.78 3.62891Z" fill="#05CDFF"/>
<g filter="url(#filter0_d_1860_17548)">
<path d="M5.80664 226.445H315C326.224 226.445 335.323 235.544 335.323 246.768V322.252C335.323 333.476 326.224 342.574 315 342.574H26.1292C14.9053 342.574 5.80664 333.476 5.80664 322.252V226.445Z" fill="#05CDFF"/>
<path d="M5.80664 226.445H315C326.224 226.445 335.323 235.544 335.323 246.768V322.252C335.323 333.476 326.224 342.574 315 342.574H26.1292C14.9053 342.574 5.80664 333.476 5.80664 322.252V226.445Z" fill="black" fill-opacity="0.2"/>
</g>
<path d="M5.80664 208.29C5.80664 198.268 13.9305 190.145 23.9518 190.145H42.097V226.435H5.80664V208.29Z" fill="#05CDFF"/>
<path d="M5.80664 208.29C5.80664 198.268 13.9305 190.145 23.9518 190.145H42.097V226.435H5.80664V208.29Z" fill="black" fill-opacity="0.2"/>
<g filter="url(#filter1_i_1860_17548)">
<path d="M5.80664 208.29C5.80664 198.268 13.9305 190.145 23.9518 190.145H42.097V226.435H23.9518C13.9305 226.435 5.80664 218.311 5.80664 208.29Z" fill="black" fill-opacity="0.25"/>
</g>
<path d="M116.377 140.808C116.377 155.37 122.162 169.336 132.459 179.632C142.755 189.929 156.721 195.714 171.283 195.714C185.845 195.714 199.81 189.929 210.107 179.632C220.404 169.336 226.189 155.37 226.189 140.808C226.189 126.246 220.404 112.281 210.107 101.984C199.81 91.6871 185.845 85.9023 171.283 85.9023C156.721 85.9023 142.755 91.6871 132.459 101.984C122.162 112.281 116.377 126.246 116.377 140.808Z" stroke="#05CDFF" stroke-width="9.15097" stroke-linejoin="round"/>
<path d="M147.762 140.808C147.762 126.246 150.241 112.281 154.654 101.984C159.067 91.6871 165.052 85.9023 171.293 85.9023C177.534 85.9023 183.519 91.6871 187.932 101.984C192.345 112.281 194.824 126.246 194.824 140.808C194.824 155.37 192.345 169.336 187.932 179.632C183.519 189.929 177.534 195.714 171.293 195.714C165.052 195.714 159.067 189.929 154.654 179.632C150.241 169.336 147.762 155.37 147.762 140.808Z" stroke="#05CDFF" stroke-width="9.15097" stroke-linejoin="round"/>
<path d="M120.311 159.112H222.279M120.311 122.508H222.279" stroke="#05CDFF" stroke-width="9.15097" stroke-linecap="round"/>
<path d="M136.018 270.648L134.317 265.851L133.603 264.524C133.353 263.866 133.172 263.209 133.058 262.551C132.968 261.87 132.797 261.224 132.548 260.612C132.412 260.339 132.14 260.169 131.731 260.101C131.346 260.011 130.926 259.931 130.473 259.863C130.042 259.772 129.656 259.648 129.316 259.489C128.976 259.307 128.806 258.99 128.806 258.536C128.806 258.06 128.942 257.742 129.214 257.584C129.486 257.402 129.815 257.311 130.2 257.311C130.677 257.311 131.13 257.323 131.561 257.346C131.992 257.368 132.446 257.436 132.922 257.55C133.24 257.595 133.569 257.64 133.909 257.686C134.249 257.708 134.623 257.72 135.032 257.72H136.086C136.676 257.72 137.028 257.697 137.141 257.652C137.527 257.493 137.912 257.402 138.298 257.38C138.706 257.334 139.103 257.311 139.488 257.311H140.203C140.793 257.402 141.212 257.459 141.462 257.482C141.711 257.482 141.881 257.482 141.972 257.482C143.015 257.232 143.9 257.039 144.626 256.903C145.352 256.744 146.111 256.665 146.905 256.665C146.973 256.665 147.098 256.676 147.28 256.699C147.484 256.722 147.676 256.767 147.858 256.835C148.039 256.881 148.198 256.949 148.334 257.039C148.493 257.107 148.572 257.198 148.572 257.311C148.708 257.516 148.822 257.72 148.913 257.924C149.026 258.128 149.083 258.332 149.083 258.536C149.083 258.718 149.026 258.911 148.913 259.115C148.822 259.319 148.708 259.523 148.572 259.727C148.414 259.84 148.244 259.954 148.062 260.067C147.881 260.181 147.733 260.237 147.62 260.237L146.225 259.829C145.749 259.829 145.238 259.897 144.694 260.033C144.172 260.169 143.685 260.373 143.231 260.646C142.777 260.918 142.403 261.269 142.108 261.7C141.813 262.109 141.666 262.608 141.666 263.197V263.708C141.779 264.161 141.87 264.581 141.938 264.966C142.006 265.352 142.063 265.726 142.108 266.089C142.154 266.429 142.188 266.792 142.21 267.178C142.256 267.564 142.29 267.983 142.312 268.437L142.38 269.083C142.38 269.333 142.448 269.639 142.584 270.002C142.721 270.365 142.868 270.739 143.027 271.124C143.208 271.51 143.39 271.884 143.571 272.247C143.753 272.587 143.889 272.86 143.979 273.064C144.161 273.631 144.32 274.221 144.456 274.833C144.614 275.445 144.762 276.069 144.898 276.704C145.057 277.317 145.216 277.929 145.374 278.541C145.533 279.154 145.737 279.743 145.987 280.31C145.987 280.991 145.987 281.581 145.987 282.08C146.009 282.579 146.066 282.953 146.157 283.202C146.157 283.248 146.191 283.327 146.259 283.441C146.35 283.554 146.44 283.679 146.531 283.815C146.622 283.951 146.701 284.076 146.769 284.189C146.86 284.302 146.905 284.382 146.905 284.427C146.905 284.473 146.939 284.597 147.007 284.801C147.098 285.006 147.177 285.232 147.246 285.482C147.336 285.709 147.416 285.924 147.484 286.128C147.574 286.31 147.62 286.412 147.62 286.434C147.665 286.593 147.71 286.831 147.756 287.149C147.801 287.444 147.869 287.75 147.96 288.068C148.051 288.362 148.164 288.623 148.3 288.85C148.459 289.077 148.663 289.19 148.913 289.19C149.48 289.19 149.922 289.066 150.239 288.816C150.557 288.544 150.807 288.215 150.988 287.829C151.192 287.444 151.362 287.047 151.498 286.639C151.634 286.23 151.793 285.867 151.975 285.55L152.859 284.427C152.905 284.382 152.939 284.291 152.961 284.155C153.007 284.019 153.029 283.871 153.029 283.713C153.052 283.531 153.063 283.372 153.063 283.236C153.086 283.078 153.097 282.964 153.097 282.896C153.143 282.805 153.256 282.692 153.438 282.556C153.642 282.397 153.766 282.295 153.812 282.25C153.948 282.068 154.05 281.773 154.118 281.365C154.209 280.934 154.311 280.469 154.424 279.97C154.56 279.471 154.708 278.972 154.866 278.473C155.048 277.974 155.286 277.566 155.581 277.248C155.672 277.158 155.762 277.033 155.853 276.874C155.944 276.693 155.989 276.579 155.989 276.534C156.012 276.443 156.057 276.262 156.125 275.99C156.193 275.717 156.261 275.434 156.329 275.139C156.397 274.822 156.454 274.538 156.5 274.289C156.545 274.016 156.568 273.846 156.568 273.778L156.976 273.302C156.999 273.302 157.067 273.177 157.18 272.928C157.293 272.678 157.418 272.383 157.554 272.043C157.713 271.68 157.86 271.317 157.997 270.954C158.155 270.569 158.269 270.251 158.337 270.002C158.609 269.435 158.96 268.902 159.391 268.403C159.822 267.904 160.14 267.348 160.344 266.736L160.752 264.252C160.956 263.798 161.104 263.481 161.195 263.299C161.285 263.118 161.331 262.902 161.331 262.653C161.331 262.403 161.319 262.233 161.297 262.143C161.274 262.029 161.251 261.927 161.229 261.836C161.138 261.428 160.934 261.167 160.616 261.054C160.321 260.918 160.151 260.85 160.106 260.85L158.439 260.408C158.099 260.408 157.792 260.408 157.52 260.408C157.271 260.408 157.021 260.408 156.772 260.408C156.522 260.385 156.25 260.362 155.955 260.339C155.66 260.317 155.331 260.283 154.969 260.237C154.855 260.056 154.73 259.829 154.594 259.557C154.458 259.285 154.39 259.024 154.39 258.774C154.39 258.502 154.515 258.241 154.764 257.992C155.014 257.742 155.309 257.527 155.649 257.346C155.989 257.141 156.329 256.983 156.67 256.869C157.01 256.733 157.271 256.665 157.452 256.665C158.314 256.665 159.244 256.71 160.242 256.801C161.24 256.869 162.17 257.096 163.032 257.482L165.992 256.835C166.241 256.835 166.479 256.949 166.706 257.175C166.933 257.38 167.148 257.482 167.353 257.482C167.443 257.482 167.545 257.436 167.659 257.346C167.795 257.232 167.908 257.164 167.999 257.141C168.657 256.824 169.36 256.54 170.108 256.291C170.88 256.019 171.628 255.883 172.354 255.883C172.603 255.883 172.808 255.973 172.966 256.155C173.148 256.314 173.238 256.54 173.238 256.835C173.238 257.017 173.193 257.232 173.102 257.482C173.034 257.708 172.921 257.935 172.762 258.162C172.626 258.389 172.467 258.582 172.286 258.74C172.104 258.877 171.912 258.945 171.707 258.945C171.458 259.013 171.22 259.137 170.993 259.319C170.766 259.478 170.551 259.636 170.347 259.795C170.142 259.954 169.927 260.101 169.7 260.237C169.496 260.351 169.281 260.408 169.054 260.408C168.963 260.408 168.872 260.408 168.782 260.408C168.714 260.408 168.668 260.396 168.645 260.373C168.623 260.373 168.532 260.408 168.373 260.476C168.237 260.521 168.067 260.6 167.863 260.714C167.659 260.804 167.455 260.929 167.251 261.088C167.046 261.224 166.876 261.371 166.74 261.53C166.355 262.052 166.037 262.46 165.788 262.755C165.561 263.05 165.368 263.424 165.209 263.878C164.62 265.012 164.086 266.123 163.61 267.212C163.157 268.278 162.635 269.423 162.045 270.648C161.75 271.238 161.546 271.862 161.433 272.519C161.342 273.154 161.195 273.767 160.99 274.357C160.786 274.946 160.469 275.547 160.038 276.16C159.607 276.749 159.255 277.351 158.983 277.963C158.802 278.349 158.632 278.723 158.473 279.086C158.337 279.449 158.189 279.811 158.031 280.174C157.894 280.537 157.736 280.912 157.554 281.297C157.395 281.66 157.203 282.057 156.976 282.488C156.772 282.964 156.488 283.475 156.125 284.019C155.785 284.541 155.536 285.051 155.377 285.55C155.173 286.049 155.003 286.571 154.866 287.115C154.753 287.637 154.64 288.17 154.526 288.714C154.436 289.236 154.322 289.757 154.186 290.279C154.05 290.778 153.869 291.243 153.642 291.674C153.596 291.742 153.483 291.889 153.301 292.116C153.143 292.32 152.961 292.547 152.757 292.797C152.553 293.046 152.372 293.273 152.213 293.477C152.054 293.681 151.975 293.806 151.975 293.851L151.804 295.859C151.6 296.267 151.328 296.584 150.988 296.811C150.67 297.038 150.41 297.39 150.205 297.866C150.115 298.229 150.047 298.694 150.001 299.261C149.956 299.805 149.899 300.372 149.831 300.962C149.786 301.529 149.706 302.073 149.593 302.595C149.48 303.094 149.31 303.48 149.083 303.752C148.992 303.888 148.856 304.058 148.674 304.262C148.493 304.444 148.312 304.625 148.13 304.806C147.949 304.988 147.779 305.135 147.62 305.249C147.484 305.385 147.404 305.453 147.382 305.453C147.291 305.544 147.177 305.6 147.041 305.623C146.905 305.668 146.769 305.691 146.633 305.691C146.202 305.691 145.783 305.612 145.374 305.453C145.147 305.408 144.932 305.215 144.728 304.874C144.546 304.534 144.376 304.126 144.218 303.65C144.059 303.151 143.9 302.618 143.741 302.051C143.605 301.484 143.48 300.951 143.367 300.452C143.276 299.93 143.197 299.476 143.129 299.091C143.061 298.682 143.004 298.41 142.959 298.274L142.755 295.144C142.755 295.076 142.709 294.917 142.619 294.668C142.55 294.396 142.46 294.123 142.346 293.851C142.256 293.556 142.165 293.284 142.074 293.035C142.006 292.785 141.972 292.649 141.972 292.627C141.723 291.742 141.552 290.88 141.462 290.041C141.394 289.202 141.292 288.374 141.156 287.557C141.156 287.466 141.088 287.353 140.951 287.217C140.838 287.081 140.713 286.933 140.577 286.775C140.464 286.571 140.305 286.332 140.101 286.06C139.919 285.788 139.795 285.618 139.727 285.55C139.727 285.505 139.693 285.334 139.625 285.04C139.579 284.722 139.534 284.518 139.488 284.427C139.488 284.404 139.466 284.302 139.42 284.121C139.398 283.94 139.364 283.826 139.318 283.781H138.808C138.422 283.781 138.082 283.951 137.787 284.291C137.492 284.631 137.22 285.028 136.971 285.482C136.744 285.935 136.529 286.389 136.324 286.843C136.12 287.296 135.927 287.648 135.746 287.897C135.701 287.965 135.61 288.068 135.474 288.204C135.338 288.317 135.19 288.464 135.032 288.646C134.895 288.805 134.759 288.986 134.623 289.19C134.487 289.372 134.385 289.553 134.317 289.735L134.079 291.504C134.079 291.549 134.034 291.64 133.943 291.776C133.875 291.889 133.795 292.014 133.705 292.15C133.614 292.286 133.523 292.422 133.433 292.558C133.364 292.672 133.33 292.751 133.33 292.797C133.24 293.182 133.172 293.579 133.126 293.987C133.081 294.396 132.934 294.781 132.684 295.144C132.639 295.28 132.582 295.371 132.514 295.416C132.446 295.462 132.366 295.507 132.276 295.552C132.208 295.598 132.14 295.654 132.072 295.723C132.004 295.791 131.947 295.915 131.902 296.097C131.879 296.256 131.822 296.471 131.731 296.743C131.663 297.015 131.584 297.299 131.493 297.594C131.425 297.866 131.357 298.115 131.289 298.342C131.221 298.546 131.187 298.682 131.187 298.751V300.622C131.187 300.667 131.176 300.724 131.153 300.792C131.153 300.86 131.153 300.917 131.153 300.962C131.04 301.37 130.892 301.892 130.711 302.527C130.529 303.162 130.302 303.774 130.03 304.364C129.758 304.954 129.429 305.453 129.044 305.861C128.681 306.292 128.261 306.508 127.785 306.508C127.49 306.508 127.161 306.371 126.798 306.099C126.435 305.85 126.072 305.532 125.709 305.147C125.369 304.784 125.063 304.398 124.791 303.99C124.519 303.582 124.326 303.219 124.213 302.901C124.031 302.448 123.895 301.983 123.804 301.506C123.714 301.03 123.634 300.554 123.566 300.077C123.521 299.601 123.464 299.113 123.396 298.614C123.328 298.115 123.237 297.628 123.124 297.151C123.056 296.879 122.942 296.63 122.784 296.403C122.647 296.176 122.5 295.949 122.341 295.723C122.183 295.496 122.035 295.269 121.899 295.042C121.763 294.815 121.661 294.577 121.593 294.328C121.411 293.67 121.207 293.046 120.98 292.456C120.754 291.844 120.504 291.254 120.232 290.687C119.96 290.098 119.688 289.519 119.415 288.952C119.143 288.362 118.871 287.739 118.599 287.081C118.599 286.967 118.576 286.843 118.531 286.707C118.508 286.571 118.497 286.48 118.497 286.434V284.665C118.451 284.461 118.361 284.234 118.225 283.985C118.111 283.735 117.975 283.486 117.816 283.236C117.658 282.964 117.499 282.703 117.34 282.454C117.181 282.204 117.057 281.978 116.966 281.773C116.966 281.751 116.932 281.671 116.864 281.535C116.818 281.399 116.773 281.286 116.728 281.195C116.546 280.469 116.342 279.766 116.115 279.086C115.911 278.405 115.696 277.725 115.469 277.044C115.242 276.364 115.027 275.683 114.822 275.003C114.641 274.3 114.494 273.574 114.38 272.826C114.131 272.599 113.938 272.349 113.802 272.077C113.688 271.782 113.598 271.487 113.53 271.193C113.462 270.875 113.393 270.557 113.325 270.24C113.257 269.922 113.178 269.616 113.087 269.321C112.77 268.573 112.464 267.836 112.169 267.11C111.896 266.384 111.59 265.681 111.25 265.001C110.933 264.32 110.57 263.662 110.161 263.027C109.753 262.369 109.254 261.734 108.664 261.122C108.415 260.941 108.12 260.827 107.78 260.782C107.44 260.736 107.111 260.68 106.793 260.612C106.498 260.544 106.237 260.442 106.011 260.305C105.784 260.147 105.67 259.874 105.67 259.489L105.602 258.604C105.602 258.4 105.716 258.185 105.943 257.958C106.124 257.822 106.362 257.72 106.657 257.652C106.952 257.561 107.258 257.493 107.576 257.448C107.893 257.38 108.211 257.346 108.528 257.346C108.846 257.323 109.129 257.311 109.379 257.311C109.515 257.334 109.674 257.368 109.855 257.414C110.037 257.459 110.15 257.482 110.195 257.482H110.263C111.171 257.482 112.112 257.402 113.087 257.243C114.085 257.062 115.027 256.926 115.911 256.835L118.599 257.141L120.674 256.835L124.383 257.311C124.836 257.448 125.097 257.686 125.165 258.026C125.256 258.344 125.301 258.695 125.301 259.081V259.727L124.893 260.237H121.593C121.298 260.419 121.003 260.578 120.708 260.714C120.436 260.85 120.187 261.009 119.96 261.19C119.733 261.371 119.551 261.598 119.415 261.87C119.279 262.143 119.211 262.506 119.211 262.959C119.211 263.163 119.257 263.356 119.347 263.538C119.438 263.696 119.54 263.855 119.654 264.014C119.767 264.15 119.88 264.297 119.994 264.456C120.13 264.615 120.221 264.785 120.266 264.966C120.402 265.488 120.504 265.998 120.572 266.497C120.64 266.974 120.708 267.473 120.776 267.994C120.844 268.493 120.935 269.004 121.048 269.525C121.185 270.024 121.366 270.546 121.593 271.09C121.638 271.227 121.752 271.476 121.933 271.839C122.114 272.202 122.296 272.587 122.477 272.996C122.682 273.381 122.863 273.756 123.022 274.118C123.181 274.459 123.26 274.697 123.26 274.833L123.736 278.507L125.301 280.719C125.324 280.764 125.347 280.866 125.369 281.025C125.392 281.161 125.415 281.32 125.437 281.501C125.46 281.66 125.483 281.819 125.505 281.978C125.528 282.114 125.539 282.204 125.539 282.25C125.653 283.021 125.812 283.803 126.016 284.597C126.243 285.391 126.515 286.14 126.832 286.843L127.479 288.068C127.524 288.158 127.592 288.306 127.683 288.51C127.796 288.691 127.91 288.884 128.023 289.088C128.136 289.27 128.238 289.44 128.329 289.599C128.443 289.757 128.522 289.859 128.567 289.905C128.681 290.064 128.771 290.279 128.84 290.551C128.908 290.801 128.976 291.05 129.044 291.3C129.134 291.526 129.236 291.731 129.35 291.912C129.486 292.071 129.667 292.15 129.894 292.15C130.144 292.15 130.382 292.082 130.609 291.946C130.858 291.81 131.13 291.504 131.425 291.027C131.471 290.937 131.584 290.789 131.765 290.585C131.947 290.358 132.14 290.12 132.344 289.871C132.571 289.599 132.775 289.349 132.956 289.122C133.138 288.895 133.262 288.725 133.33 288.612C133.33 288.181 133.387 287.818 133.501 287.523C133.637 287.228 133.784 286.945 133.943 286.673C134.124 286.4 134.306 286.128 134.487 285.856C134.669 285.584 134.827 285.266 134.964 284.903L136.324 280.719C136.415 280.379 136.529 280.038 136.665 279.698C136.801 279.358 136.925 279.018 137.039 278.677C137.175 278.337 137.288 277.986 137.379 277.623C137.47 277.26 137.515 276.863 137.515 276.432C137.515 275.933 137.436 275.457 137.277 275.003C137.118 274.549 136.948 274.107 136.767 273.676C136.585 273.223 136.415 272.769 136.256 272.315C136.098 271.862 136.018 271.374 136.018 270.852V270.648ZM169.632 290.075C169.632 289.961 169.655 289.746 169.7 289.428C169.746 289.088 169.791 288.737 169.836 288.374C169.904 287.988 169.95 287.625 169.972 287.285C170.018 286.945 170.04 286.718 170.04 286.605C170.131 285.516 170.369 284.404 170.755 283.27C171.163 282.136 171.673 281.048 172.286 280.004C172.898 278.938 173.601 277.963 174.395 277.078C175.212 276.194 176.096 275.445 177.049 274.833C177.072 274.788 177.185 274.708 177.389 274.595C177.616 274.481 177.854 274.368 178.104 274.255C178.353 274.141 178.591 274.028 178.818 273.914C179.045 273.801 179.181 273.722 179.226 273.676C179.385 273.608 179.589 273.495 179.839 273.336C180.111 273.154 180.383 272.984 180.655 272.826C180.927 272.644 181.2 272.485 181.472 272.349C181.744 272.213 181.994 272.145 182.22 272.145C182.424 272.145 182.583 272.168 182.697 272.213C182.833 272.259 182.991 272.327 183.173 272.417C183.559 272.372 183.921 272.338 184.262 272.315C184.625 272.27 184.987 272.247 185.35 272.247C185.736 272.247 186.099 272.27 186.439 272.315C186.779 272.338 187.142 272.372 187.528 272.417C187.528 272.417 187.573 272.44 187.664 272.485C187.755 272.508 187.857 272.542 187.97 272.587C188.083 272.633 188.197 272.678 188.31 272.724C188.424 272.769 188.514 272.803 188.582 272.826C188.651 272.848 188.787 272.916 188.991 273.03C189.195 273.12 189.422 273.234 189.671 273.37C189.921 273.506 190.159 273.631 190.386 273.744C190.612 273.835 190.771 273.892 190.862 273.914C190.862 273.937 190.941 273.971 191.1 274.016C191.259 274.062 191.361 274.084 191.406 274.084L192.767 274.833L195.829 277.623C195.92 277.736 196.056 278.042 196.237 278.541C196.442 279.018 196.634 279.551 196.816 280.14C197.02 280.707 197.19 281.252 197.326 281.773C197.485 282.295 197.564 282.635 197.564 282.794C197.564 283.112 197.474 283.372 197.292 283.577C197.111 283.758 196.895 283.917 196.646 284.053C196.396 284.166 196.124 284.257 195.829 284.325C195.557 284.37 195.319 284.404 195.115 284.427H194.979C194.752 284.45 194.378 284.473 193.856 284.495C193.357 284.518 192.824 284.541 192.257 284.563C191.713 284.563 191.191 284.575 190.692 284.597C190.216 284.597 189.887 284.597 189.705 284.597C189.456 284.711 189.229 284.779 189.025 284.801C188.843 284.824 188.651 284.835 188.446 284.835L186.031 284.597C185.577 284.597 185.101 284.677 184.602 284.835C184.126 284.994 183.661 285.074 183.207 285.074C182.912 285.074 182.617 284.972 182.322 284.767C182.05 284.541 181.744 284.427 181.404 284.427C181.358 284.427 181.234 284.484 181.03 284.597C180.848 284.688 180.712 284.733 180.621 284.733L178.036 284.563C177.673 284.563 177.332 284.631 177.015 284.767C176.697 284.903 176.334 285.142 175.926 285.482C175.858 286.072 175.813 286.593 175.79 287.047C175.767 287.478 175.756 287.965 175.756 288.51C175.756 288.986 175.779 289.372 175.824 289.667C175.892 289.961 175.983 290.245 176.096 290.517C176.21 290.767 176.346 291.027 176.505 291.3C176.663 291.549 176.845 291.867 177.049 292.252L177.389 292.899C177.979 294.192 178.739 295.235 179.669 296.029C180.599 296.823 181.801 297.446 183.275 297.9C183.275 298.013 183.434 298.127 183.751 298.24C184.092 298.331 184.466 298.399 184.874 298.444C185.35 298.535 185.895 298.592 186.507 298.614C187.256 298.614 188.027 298.569 188.821 298.478C189.614 298.388 190.386 298.24 191.134 298.036C191.883 297.832 192.586 297.56 193.244 297.22C193.924 296.879 194.502 296.46 194.979 295.961H195.523C195.795 295.961 195.977 296.006 196.067 296.097C196.181 296.165 196.294 296.38 196.408 296.743C196.34 297.401 196.237 297.991 196.101 298.512C195.988 299.011 195.818 299.465 195.591 299.873C195.387 300.282 195.115 300.667 194.774 301.03C194.434 301.37 193.992 301.722 193.448 302.085C193.266 302.221 193.096 302.323 192.937 302.391C192.779 302.436 192.631 302.482 192.495 302.527C192.359 302.572 192.211 302.64 192.053 302.731C191.917 302.822 191.758 302.981 191.576 303.207L187.936 305.045L187.528 304.977L184.976 305.385C183.071 305.385 181.358 305.113 179.839 304.568C178.319 304.024 176.958 303.253 175.756 302.255C174.577 301.234 173.545 300.021 172.66 298.614C171.798 297.208 171.061 295.654 170.449 293.953C170.245 293.341 170.12 292.717 170.074 292.082C170.029 291.424 169.882 290.755 169.632 290.075ZM176.334 280.787C176.334 280.9 176.346 281.07 176.369 281.297C176.414 281.524 176.471 281.751 176.539 281.978C176.607 282.204 176.686 282.409 176.777 282.59C176.867 282.771 176.958 282.873 177.049 282.896H178.104L182.629 282.182L185.52 282.42C186.019 282.42 186.462 282.374 186.847 282.284C187.256 282.193 187.698 282.091 188.174 281.978C188.605 281.91 188.968 281.853 189.263 281.807C189.58 281.739 189.83 281.626 190.011 281.467C190.216 281.308 190.363 281.104 190.454 280.855C190.544 280.583 190.59 280.208 190.59 279.732C190.59 278.938 190.374 278.246 189.943 277.657C189.512 277.067 188.968 276.579 188.31 276.194C187.675 275.786 186.972 275.491 186.201 275.309C185.452 275.105 184.749 275.003 184.092 275.003C183.933 275.003 183.706 275.048 183.411 275.139C183.116 275.207 182.776 275.309 182.39 275.445C182.028 275.559 181.642 275.695 181.234 275.854C180.848 275.99 180.485 276.148 180.145 276.33C179.827 276.489 179.544 276.647 179.294 276.806C179.045 276.942 178.886 277.067 178.818 277.18L178.104 278.711C177.968 278.87 177.797 279.018 177.593 279.154C177.389 279.29 177.185 279.437 176.981 279.596C176.799 279.755 176.641 279.936 176.505 280.14C176.391 280.322 176.334 280.537 176.334 280.787ZM205.594 304.874C205.299 304.761 204.992 304.546 204.675 304.228C204.38 303.888 204.233 303.491 204.233 303.037V298.138L204.063 297.083C204.267 296.358 204.448 295.575 204.607 294.736C204.766 293.897 204.845 293.091 204.845 292.32C204.845 292.162 204.8 292.025 204.709 291.912C204.641 291.799 204.55 291.697 204.437 291.606C204.346 291.492 204.255 291.402 204.165 291.334C204.097 291.243 204.063 291.141 204.063 291.027C204.063 290.143 204.085 289.27 204.131 288.408C204.199 287.546 204.233 286.752 204.233 286.026V285.074L204.063 284.189C204.063 283.531 204.131 282.862 204.267 282.182C204.403 281.501 204.471 280.798 204.471 280.072C204.471 279.687 204.448 279.347 204.403 279.052C204.38 278.757 204.267 278.428 204.063 278.065L204.539 274.255L204.131 271.907L204.369 266.906L204.233 265.375C204.119 265.012 204.085 264.615 204.131 264.184C204.176 263.753 204.097 263.367 203.892 263.027C203.711 262.664 203.484 262.335 203.212 262.041C202.94 261.746 202.679 261.496 202.429 261.292C202.112 260.907 201.738 260.646 201.307 260.51C200.876 260.373 200.365 260.192 199.776 259.965L199.708 259.183C200.116 258.684 200.468 258.264 200.762 257.924C201.08 257.561 201.386 257.255 201.681 257.005C201.999 256.756 202.327 256.54 202.668 256.359C203.008 256.155 203.416 255.962 203.892 255.78L205.355 254.658L209.2 254.181C209.381 254.181 209.608 254.284 209.88 254.488C210.175 254.669 210.459 254.896 210.731 255.168C211.003 255.44 211.23 255.735 211.411 256.053C211.615 256.348 211.718 256.608 211.718 256.835C211.718 257.493 211.615 258.105 211.411 258.672C211.23 259.239 211.139 259.784 211.139 260.305C211.139 260.759 211.116 261.133 211.071 261.428C211.048 261.723 211.014 262.007 210.969 262.279C210.946 262.551 210.912 262.834 210.867 263.129C210.844 263.401 210.833 263.73 210.833 264.116L210.493 267.246V272.621C210.493 272.871 210.481 273.098 210.459 273.302C210.436 273.506 210.402 273.767 210.357 274.084C210.289 274.674 210.255 275.196 210.255 275.649C210.255 275.763 210.266 275.91 210.289 276.092C210.334 276.273 210.391 276.455 210.459 276.636C210.527 276.818 210.617 276.976 210.731 277.112C210.844 277.248 210.98 277.317 211.139 277.317C211.57 277.317 211.933 277.237 212.228 277.078C212.545 276.92 212.84 276.727 213.112 276.5C213.385 276.273 213.645 276.046 213.895 275.82C214.167 275.57 214.462 275.366 214.78 275.207C215.279 275.003 215.834 274.833 216.447 274.697C217.059 274.561 217.683 274.459 218.318 274.391C218.976 274.3 219.622 274.232 220.257 274.186C220.915 274.141 221.516 274.118 222.06 274.118C222.332 274.118 222.548 274.152 222.707 274.221C222.865 274.266 223.013 274.323 223.149 274.391C223.285 274.459 223.433 274.538 223.591 274.629C223.75 274.697 223.966 274.754 224.238 274.799L225.531 274.969L226.007 275.207C226.324 275.479 226.676 275.74 227.062 275.99C227.447 276.239 227.833 276.5 228.218 276.772C228.627 277.022 229.012 277.294 229.375 277.589C229.761 277.884 230.09 278.201 230.362 278.541C230.838 279.131 231.314 279.8 231.791 280.549C232.267 281.274 232.687 282.046 233.049 282.862C233.435 283.679 233.741 284.529 233.968 285.414C234.195 286.276 234.308 287.126 234.308 287.965C234.127 289.054 233.991 290.143 233.9 291.232C233.832 292.32 233.616 293.409 233.254 294.498C232.936 295.609 232.596 296.539 232.233 297.288C231.87 298.036 231.439 298.705 230.94 299.295C230.441 299.885 229.851 300.44 229.171 300.962C228.49 301.484 227.674 302.062 226.721 302.697C226.358 302.901 226.064 303.06 225.837 303.173C225.61 303.264 225.394 303.355 225.19 303.446C225.009 303.514 224.805 303.604 224.578 303.718C224.374 303.831 224.113 304.013 223.795 304.262L223.319 304.67L214.78 305.385L211.888 305.045C211.706 305.022 211.423 304.999 211.037 304.977C210.674 304.954 210.277 304.92 209.846 304.874C209.438 304.829 209.007 304.784 208.553 304.738C208.123 304.693 207.748 304.636 207.431 304.568L205.594 304.874ZM210.255 290.551C210.255 290.733 210.289 291.039 210.357 291.47C210.425 291.901 210.504 292.388 210.595 292.933C210.708 293.477 210.833 294.044 210.969 294.634C211.105 295.224 211.241 295.768 211.377 296.267C211.536 296.766 211.684 297.197 211.82 297.56C211.956 297.9 212.08 298.093 212.194 298.138C212.466 298.342 212.693 298.524 212.874 298.682C213.056 298.841 213.215 299 213.351 299.159C213.487 299.295 213.634 299.465 213.793 299.669C213.952 299.851 214.156 300.089 214.405 300.384C214.519 300.542 214.666 300.701 214.848 300.86C215.052 300.996 215.256 301.143 215.46 301.302C215.687 301.438 215.902 301.586 216.106 301.744C216.311 301.881 216.481 302.017 216.617 302.153H219.645C220.053 302.153 220.484 302.141 220.938 302.119C221.414 302.096 221.867 302.028 222.298 301.915C222.752 301.801 223.172 301.631 223.557 301.404C223.943 301.177 224.249 300.86 224.476 300.452C224.68 299.998 224.861 299.442 225.02 298.785C225.179 298.104 225.428 297.537 225.769 297.083L226.721 295.961C226.721 295.915 226.733 295.791 226.755 295.586C226.801 295.382 226.846 295.144 226.891 294.872C226.959 294.6 227.028 294.328 227.096 294.055C227.164 293.761 227.22 293.5 227.266 293.273C227.266 293.001 227.232 292.763 227.164 292.558C227.096 292.332 227.062 292.093 227.062 291.844L227.436 290.381C227.436 290.2 227.413 289.916 227.368 289.53C227.345 289.122 227.288 288.669 227.198 288.17C227.13 287.648 227.05 287.115 226.959 286.571C226.869 286.026 226.755 285.505 226.619 285.006C226.506 284.507 226.37 284.076 226.211 283.713C226.075 283.327 225.927 283.055 225.769 282.896L222.843 280.004C222.435 280.004 222.049 279.88 221.686 279.63C221.323 279.381 220.949 279.12 220.563 278.848C220.178 278.553 219.781 278.28 219.373 278.031C218.987 277.782 218.556 277.657 218.08 277.657L215.018 278.269H213.317C212.999 278.269 212.75 278.36 212.568 278.541C212.387 278.723 212.16 278.859 211.888 278.95C211.842 278.95 211.74 278.972 211.581 279.018C211.445 279.063 211.287 279.131 211.105 279.222C210.946 279.313 210.799 279.437 210.663 279.596C210.549 279.732 210.493 279.891 210.493 280.072V282.896C210.243 283.078 210.119 283.395 210.119 283.849C210.119 283.962 210.141 284.076 210.187 284.189C210.232 284.28 210.255 284.348 210.255 284.393L210.493 287.251L210.255 290.551Z" fill="white"/>
<defs>
<filter id="filter0_d_1860_17548" x="0.000188828" y="211.929" width="341.129" height="130.645" filterUnits="userSpaceOnUse" color-interpolation-filters="sRGB">
<feFlood flood-opacity="0" result="BackgroundImageFix"/>
<feColorMatrix in="SourceAlpha" type="matrix" values="0 0 0 0 0 0 0 0 0 0 0 0 0 0 0 0 0 0 127 0" result="hardAlpha"/>
<feOffset dy="-8.70968"/>
<feGaussianBlur stdDeviation="2.90323"/>
<feComposite in2="hardAlpha" operator="out"/>
<feColorMatrix type="matrix" values="0 0 0 0 0 0 0 0 0 0 0 0 0 0 0 0 0 0 0.15 0"/>
<feBlend mode="normal" in2="BackgroundImageFix" result="effect1_dropShadow_1860_17548"/>
<feBlend mode="normal" in="SourceGraphic" in2="effect1_dropShadow_1860_17548" result="shape"/>
</filter>
<filter id="filter1_i_1860_17548" x="5.80664" y="188.693" width="36.291" height="37.7407" filterUnits="userSpaceOnUse" color-interpolation-filters="sRGB">
<feFlood flood-opacity="0" result="BackgroundImageFix"/>
<feBlend mode="normal" in="SourceGraphic" in2="BackgroundImageFix" result="shape"/>
<feColorMatrix in="SourceAlpha" type="matrix" values="0 0 0 0 0 0 0 0 0 0 0 0 0 0 0 0 0 0 127 0" result="hardAlpha"/>
<feOffset dy="-1.45161"/>
<feGaussianBlur stdDeviation="2.90323"/>
<feComposite in2="hardAlpha" operator="arithmetic" k2="-1" k3="1"/>
<feColorMatrix type="matrix" values="0 0 0 0 0 0 0 0 0 0 0 0 0 0 0 0 0 0 0.25 0"/>
<feBlend mode="normal" in2="shape" result="effect1_innerShadow_1860_17548"/>
</filter>
</defs>
</svg>
